SpartanTT-Thin.ufo
<glyph name="exclam" format="2">
  <advance width="710"/>
  <unicode hex="0021"/>
  <outline>
    <component base="period" xOffset="-12"/>
    <contour>
      <point x="381" y="336" type="line"/>
      <point x="381" y="1720" type="line"/>
      <point x="329" y="1720" type="line"/>
      <point x="329" y="336" type="line"/>
    </contour>
  </outline>
</glyph>
<glyph name="numbersign" format="2">
  <advance width="1374"/>
  <unicode hex="0023"/>
  <outline>
    <contour>
      <point x="378" y="0" type="line"/>
      <point x="436" y="414" type="line"/>
      <point x="862" y="414" type="line"/>
      <point x="804" y="0" type="line"/>
      <point x="842" y="0" type="line"/>
      <point x="900" y="414" type="line"/>
      <point x="1154" y="414" type="line"/>
      <point x="1154" y="452" type="line"/>
      <point x="904" y="452" type="line"/>
      <point x="970" y="914" type="line"/>
      <point x="1154" y="914" type="line"/>
      <point x="1154" y="952" type="line"/>
      <point x="976" y="952" type="line"/>
      <point x="1034" y="1368" type="line"/>
      <point x="996" y="1368" type="line"/>
      <point x="938" y="952" type="line"/>
      <point x="512" y="952" type="line"/>
      <point x="570" y="1368" type="line"/>
      <point x="532" y="1368" type="line"/>
      <point x="474" y="952" type="line"/>
      <point x="220" y="952" type="line"/>
      <point x="220" y="914" type="line"/>
      <point x="470" y="914" type="line"/>
      <point x="404" y="452" type="line"/>
      <point x="220" y="452" type="line"/>
      <point x="220" y="414" type="line"/>
      <point x="398" y="414" type="line"/>
      <point x="340" y="0" type="line"/>
    </contour>
    <contour>
      <point x="506" y="914" type="line"/>
      <point x="932" y="914" type="line"/>
      <point x="868" y="452" type="line"/>
      <point x="440" y="452" type="line"/>
    </contour>
  </outline>
</glyph>
<glyph name="dollar" format="2">
  <advance width="1512"/>
  <unicode hex="0024"/>
  <outline>
    <component base="S" xOffset="74"/>
    <contour>
      <point x="762" y="1926" type="line"/>
      <point x="762" y="1675" type="line"/>
      <point x="808" y="1675" type="line"/>
      <point x="808" y="1926" type="line"/>
    </contour>
    <contour>
      <point x="762" y="-28" type="line"/>
      <point x="762" y="-276" type="line"/>
      <point x="808" y="-276" type="line"/>
      <point x="808" y="-28" type="line"/>
    </contour>
  </outline>
</glyph>
<glyph name="percent" format="2">
  <advance width="2270"/>
  <unicode hex="0025"/>
  <outline>
    <contour>
      <point x="635" y="892" type="curve" smooth="yes"/>
      <point x="857" y="892"/>
      <point x="1029" y="1054"/>
      <point x="1029" y="1286" type="curve" smooth="yes"/>
      <point x="1029" y="1518"/>
      <point x="857" y="1680"/>
      <point x="635" y="1680" type="curve" smooth="yes"/>
      <point x="411" y="1680"/>
      <point x="239" y="1518"/>
      <point x="239" y="1286" type="curve" smooth="yes"/>
      <point x="239" y="1054"/>
      <point x="411" y="892"/>
    </contour>
    <contour>
      <point x="635" y="945" type="curve" smooth="yes"/>
      <point x="439" y="945"/>
      <point x="298" y="1086"/>
      <point x="298" y="1286" type="curve" smooth="yes"/>
      <point x="298" y="1486"/>
      <point x="439" y="1627"/>
      <point x="635" y="1627" type="curve" smooth="yes"/>
      <point x="829" y="1627"/>
      <point x="972" y="1487"/>
      <point x="972" y="1286" type="curve" smooth="yes"/>
      <point x="972" y="1086"/>
      <point x="829" y="945"/>
    </contour>
    <contour>
      <point x="1635" y="-32" type="curve" smooth="yes"/>
      <point x="1859" y="-32"/>
      <point x="2031" y="130"/>
      <point x="2031" y="362" type="curve" smooth="yes"/>
      <point x="2031" y="594"/>
      <point x="1859" y="756"/>
      <point x="1635" y="756" type="curve" smooth="yes"/>
      <point x="1413" y="756"/>
      <point x="1239" y="594"/>
      <point x="1239" y="362" type="curve" smooth="yes"/>
      <point x="1239" y="130"/>
      <point x="1413" y="-32"/>
    </contour>
    <contour>
      <point x="1635" y="21" type="curve" smooth="yes"/>
      <point x="1441" y="21"/>
      <point x="1298" y="162"/>
      <point x="1298" y="362" type="curve" smooth="yes"/>
      <point x="1298" y="562"/>
      <point x="1441" y="703"/>
      <point x="1635" y="703" type="curve" smooth="yes"/>
      <point x="1831" y="703"/>
      <point x="1972" y="562"/>
      <point x="1972" y="362" type="curve" smooth="yes"/>
      <point x="1972" y="162"/>
      <point x="1831" y="21"/>
    </contour>
    <contour>
      <point x="679" y="0" type="line"/>
      <point x="1639" y="1650" type="line"/>
      <point x="1581" y="1650" type="line"/>
      <point x="621" y="0" type="line"/>
    </contour>
  </outline>
</glyph>
<glyph name="ampersand" format="2">
  <advance width="1777"/>
  <unicode hex="0026"/>
  <outline>
    <contour>
      <point x="703" y="-32" type="curve" smooth="yes"/>
      <point x="901" y="-32"/>
      <point x="1094" y="72"/>
      <point x="1260" y="266" type="curve"/>
      <point x="1498" y="0" type="line" name=".hr01"/>
      <point x="1564" y="0" type="line"/>
      <point x="1292" y="304" type="line"/>
      <point x="1360" y="390"/>
      <point x="1438" y="515"/>
      <point x="1478" y="600" type="curve"/>
      <point x="1440" y="616" type="line"/>
      <point x="1426" y="584"/>
      <point x="1308" y="403"/>
      <point x="1258" y="342" type="curve"/>
      <point x="720" y="930" type="line"/>
      <point x="954" y="1041"/>
      <point x="1076" y="1142"/>
      <point x="1076" y="1332" type="curve" smooth="yes"/>
      <point x="1076" y="1542"/>
      <point x="927" y="1680"/>
      <point x="734" y="1680" type="curve" smooth="yes"/>
      <point x="537" y="1680"/>
      <point x="388" y="1537"/>
      <point x="388" y="1343" type="curve" smooth="yes"/>
      <point x="388" y="1216"/>
      <point x="451" y="1114"/>
      <point x="636" y="944" type="curve"/>
      <point x="380" y="817"/>
      <point x="244" y="639"/>
      <point x="244" y="411" type="curve" smooth="yes"/>
      <point x="244" y="122"/>
      <point x="462" y="-32" name=".hr02"/>
    </contour>
    <contour>
      <point x="701" y="16" type="curve" smooth="yes"/>
      <point x="484" y="16"/>
      <point x="292" y="156"/>
      <point x="292" y="409" type="curve" smooth="yes"/>
      <point x="292" y="616"/>
      <point x="421" y="787"/>
      <point x="672" y="908" type="curve"/>
      <point x="1228" y="304" type="line"/>
      <point x="1066" y="116"/>
      <point x="885" y="16"/>
    </contour>
    <contour>
      <point x="682" y="966" type="curve"/>
      <point x="487" y="1150"/>
      <point x="436" y="1230"/>
      <point x="436" y="1341" type="curve" smooth="yes"/>
      <point x="436" y="1509"/>
      <point x="564" y="1630"/>
      <point x="733" y="1630" type="curve" smooth="yes"/>
      <point x="897" y="1630"/>
      <point x="1028" y="1516"/>
      <point x="1028" y="1334" type="curve" smooth="yes"/>
      <point x="1028" y="1154"/>
      <point x="900" y="1069"/>
    </contour>
  </outline>
</glyph>
<glyph name="quotesingle" format="2">
  <advance width="626"/>
  <unicode hex="0027"/>
  <outline>
    <contour>
      <point x="338" y="1438" type="line"/>
      <point x="350" y="1720" type="line"/>
      <point x="276" y="1720" type="line"/>
      <point x="288" y="1438" type="line"/>
    </contour>
  </outline>
</glyph>
<glyph name="parenleft" format="2">
  <advance width="760"/>
  <unicode hex="0028"/>
  <outline>
    <contour>
      <point x="612" y="-504" type="line"/>
      <point x="454" y="-269"/>
      <point x="262" y="120"/>
      <point x="262" y="614" type="curve" smooth="yes"/>
      <point x="262" y="1093"/>
      <point x="443" y="1482"/>
      <point x="612" y="1734" type="curve"/>
      <point x="574" y="1750" type="line"/>
      <point x="406" y="1540"/>
      <point x="196" y="1132"/>
      <point x="196" y="614" type="curve" smooth="yes"/>
      <point x="196" y="96"/>
      <point x="406" y="-311"/>
      <point x="574" y="-520" type="curve"/>
    </contour>
  </outline>
</glyph>
<glyph name="asterisk" format="2">
  <advance width="878"/>
  <unicode hex="002A"/>
  <outline>
    <contour>
      <point x="438" y="1522" type="line"/>
      <point x="532" y="1394" type="line"/>
      <point x="552" y="1410" type="line"/>
      <point x="460" y="1538" type="line"/>
      <point x="610" y="1586" type="line"/>
      <point x="602" y="1610" type="line"/>
      <point x="452" y="1562" type="line"/>
      <point x="452" y="1720" type="line"/>
      <point x="426" y="1720" type="line"/>
      <point x="426" y="1562" type="line"/>
      <point x="276" y="1610" type="line"/>
      <point x="268" y="1586" type="line"/>
      <point x="418" y="1538" type="line"/>
      <point x="326" y="1410" type="line"/>
      <point x="346" y="1394" type="line"/>
    </contour>
  </outline>
</glyph>
<glyph name="plus" format="2">
  <advance width="1482"/>
  <unicode hex="002B"/>
  <outline>
    <contour>
      <point x="765" y="316" type="line"/>
      <point x="765" y="804" type="line"/>
      <point x="1253" y="804" type="line"/>
      <point x="1253" y="852" type="line"/>
      <point x="765" y="852" type="line"/>
      <point x="765" y="1340" type="line"/>
      <point x="717" y="1340" type="line"/>
      <point x="717" y="852" type="line"/>
      <point x="229" y="852" type="line"/>
      <point x="229" y="804" type="line"/>
      <point x="717" y="804" type="line"/>
      <point x="717" y="316" type="line"/>
    </contour>
  </outline>
</glyph>
<glyph name="comma" format="2">
  <advance width="709"/>
  <unicode hex="002C"/>
  <outline>
    <contour>
      <point x="325" y="-186" type="line"/>
      <point x="363" y="-158"/>
      <point x="409" y="-71"/>
      <point x="409" y="-7" type="curve" smooth="yes"/>
      <point x="409" y="42"/>
      <point x="381" y="64"/>
      <point x="353" y="64" type="curve" smooth="yes"/>
      <point x="325" y="64"/>
      <point x="303" y="42"/>
      <point x="303" y="16" type="curve" smooth="yes"/>
      <point x="303" y="-10"/>
      <point x="325" y="-32"/>
      <point x="351" y="-32" type="curve"/>
      <point x="351" y="-94"/>
      <point x="340" y="-139"/>
      <point x="315" y="-176" type="curve"/>
    </contour>
  </outline>
</glyph>
<glyph name="hyphen" format="2">
  <advance width="1114"/>
  <unicode hex="002D"/>
  <outline>
    <contour>
      <point x="879" y="556" type="line"/>
      <point x="879" y="604" type="line"/>
      <point x="235" y="604" type="line"/>
      <point x="235" y="556" type="line"/>
    </contour>
  </outline>
</glyph>
<glyph name="period" format="2">
  <advance width="750"/>
  <unicode hex="002E"/>
  <outline>
    <contour>
      <point x="375" y="-32" type="curve" smooth="yes"/>
      <point x="401" y="-32"/>
      <point x="423" y="-10"/>
      <point x="423" y="16" type="curve" smooth="yes"/>
      <point x="423" y="42"/>
      <point x="401" y="64"/>
      <point x="375" y="64" type="curve" smooth="yes"/>
      <point x="349" y="64"/>
      <point x="327" y="42"/>
      <point x="327" y="16" type="curve" smooth="yes"/>
      <point x="327" y="-10"/>
      <point x="349" y="-32"/>
    </contour>
  </outline>
</glyph>
<glyph name="slash" format="2">
  <advance width="1056"/>
  <unicode hex="002F"/>
  <outline>
    <contour>
      <point x="136" y="-240" type="line"/>
      <point x="960" y="1720" type="line"/>
      <point x="920" y="1720" type="line"/>
      <point x="96" y="-240" type="line"/>
    </contour>
  </outline>
</glyph>
<glyph name="zero" format="2">
  <advance width="1500"/>
  <unicode hex="0030"/>
  <outline>
    <contour>
      <point x="750" y="-32" type="curve" smooth="yes"/>
      <point x="1152" y="-32"/>
      <point x="1420" y="311"/>
      <point x="1420" y="824" type="curve" smooth="yes"/>
      <point x="1420" y="1337"/>
      <point x="1152" y="1680"/>
      <point x="750" y="1680" type="curve" smooth="yes"/>
      <point x="348" y="1680"/>
      <point x="80" y="1337"/>
      <point x="80" y="824" type="curve" smooth="yes"/>
      <point x="80" y="311"/>
      <point x="348" y="-32"/>
    </contour>
    <contour>
      <point x="750" y="22" type="curve" smooth="yes"/>
      <point x="385" y="22"/>
      <point x="140" y="344"/>
      <point x="140" y="824" type="curve" smooth="yes"/>
      <point x="140" y="1304"/>
      <point x="385" y="1626"/>
      <point x="750" y="1626" type="curve" smooth="yes"/>
      <point x="1115" y="1626"/>
      <point x="1360" y="1304"/>
      <point x="1360" y="824" type="curve" smooth="yes"/>
      <point x="1360" y="344"/>
      <point x="1115" y="22"/>
    </contour>
  </outline>
</glyph>
<glyph name="one" format="2">
  <advance width="1500"/>
  <unicode hex="0031"/>
  <outline>
    <contour>
      <point x="831" y="0" type="line"/>
      <point x="831" y="1650" type="line"/>
      <point x="569" y="1650" type="line"/>
      <point x="569" y="1594" type="line"/>
      <point x="775" y="1594" type="line"/>
      <point x="775" y="0" type="line"/>
    </contour>
  </outline>
</glyph>
<glyph name="two" format="2">
  <advance width="1500"/>
  <unicode hex="0032"/>
  <outline>
    <contour>
      <point x="1302" y="0" type="line"/>
      <point x="1302" y="62" type="line"/>
      <point x="335" y="62" type="line"/>
      <point x="1091" y="667"/>
      <point x="1272" y="876"/>
      <point x="1272" y="1142" type="curve" smooth="yes"/>
      <point x="1272" y="1447"/>
      <point x="1031" y="1680"/>
      <point x="742" y="1680" type="curve" smooth="yes"/>
      <point x="451" y="1680"/>
      <point x="216" y="1444"/>
      <point x="212" y="1158" type="curve"/>
      <point x="274" y="1152" type="line"/>
      <point x="275" y="1409"/>
      <point x="485" y="1618"/>
      <point x="742" y="1618" type="curve" smooth="yes"/>
      <point x="999" y="1618"/>
      <point x="1210" y="1410"/>
      <point x="1210" y="1145" type="curve" smooth="yes"/>
      <point x="1210" y="891"/>
      <point x="1016" y="678"/>
      <point x="182" y="18" type="curve"/>
      <point x="182" y="0" type="line"/>
    </contour>
  </outline>
</glyph>
<glyph name="three" format="2">
  <advance width="1500"/>
  <unicode hex="0033"/>
  <outline>
    <contour>
      <point x="736" y="-32" type="curve" smooth="yes"/>
      <point x="1035" y="-32"/>
      <point x="1204" y="154"/>
      <point x="1204" y="402" type="curve" smooth="yes"/>
      <point x="1204" y="632"/>
      <point x="1059" y="798"/>
      <point x="888" y="836" type="curve"/>
      <point x="1067" y="891"/>
      <point x="1192" y="1063"/>
      <point x="1192" y="1254" type="curve" smooth="yes"/>
      <point x="1192" y="1489"/>
      <point x="1002" y="1680"/>
      <point x="764" y="1680" type="curve" smooth="yes"/>
      <point x="538" y="1680"/>
      <point x="350" y="1508"/>
      <point x="340" y="1274" type="curve"/>
      <point x="396" y="1268" type="line"/>
      <point x="402" y="1465"/>
      <point x="565" y="1624"/>
      <point x="764" y="1624" type="curve" smooth="yes"/>
      <point x="963" y="1624"/>
      <point x="1132" y="1463"/>
      <point x="1132" y="1253" type="curve" smooth="yes"/>
      <point x="1132" y="1041"/>
      <point x="959" y="864"/>
      <point x="730" y="864" type="curve" smooth="yes"/>
      <point x="686" y="864" type="line"/>
      <point x="686" y="806" type="line"/>
      <point x="702" y="810"/>
      <point x="722" y="812"/>
      <point x="744" y="812" type="curve" smooth="yes"/>
      <point x="961" y="812"/>
      <point x="1140" y="627"/>
      <point x="1140" y="397" type="curve" smooth="yes"/>
      <point x="1140" y="180"/>
      <point x="982" y="30"/>
      <point x="735" y="30" type="curve" smooth="yes"/>
      <point x="488" y="30"/>
      <point x="306" y="179"/>
      <point x="304" y="401" type="curve"/>
      <point x="246" y="395" type="line"/>
      <point x="250" y="141"/>
      <point x="448" y="-32"/>
    </contour>
  </outline>
</glyph>
<glyph name="four" format="2">
  <advance width="1500"/>
  <unicode hex="0034"/>
  <outline>
    <contour>
      <point x="1068" y="0" type="line"/>
      <point x="1068" y="326" type="line"/>
      <point x="1260" y="326" type="line"/>
      <point x="1260" y="376" type="line"/>
      <point x="1068" y="376" type="line"/>
      <point x="1068" y="1650" type="line"/>
      <point x="1012" y="1650" type="line"/>
      <point x="182" y="376" type="line"/>
      <point x="182" y="326" type="line"/>
      <point x="1012" y="326" type="line"/>
      <point x="1012" y="0" type="line"/>
    </contour>
    <contour>
      <point x="1012" y="1564" type="line"/>
      <point x="1012" y="376" type="line"/>
      <point x="245" y="376" type="line"/>
    </contour>
  </outline>
</glyph>
<glyph name="five" format="2">
  <advance width="1500"/>
  <unicode hex="0035"/>
  <outline>
    <contour>
      <point x="368" y="1650" type="line"/>
      <point x="236" y="798" type="line"/>
      <point x="375" y="959"/>
      <point x="543" y="1044"/>
      <point x="733" y="1044" type="curve" smooth="yes"/>
      <point x="1030" y="1044"/>
      <point x="1266" y="838"/>
      <point x="1266" y="512" type="curve" smooth="yes"/>
      <point x="1266" y="204"/>
      <point x="1055" y="16"/>
      <point x="747" y="16" type="curve" smooth="yes"/>
      <point x="495" y="16"/>
      <point x="290" y="142"/>
      <point x="210" y="350" type="curve"/>
      <point x="164" y="326" type="line"/>
      <point x="246" y="107"/>
      <point x="471" y="-32"/>
      <point x="740" y="-32" type="curve" smooth="yes"/>
      <point x="1044" y="-32"/>
      <point x="1316" y="139"/>
      <point x="1316" y="508" type="curve" smooth="yes"/>
      <point x="1316" y="860"/>
      <point x="1069" y="1092"/>
      <point x="726" y="1092" type="curve" smooth="yes"/>
      <point x="556" y="1092"/>
      <point x="412" y="1036"/>
      <point x="297" y="922" type="curve"/>
      <point x="305" y="922" type="line"/>
      <point x="411" y="1600" type="line"/>
      <point x="1210" y="1600" type="line"/>
      <point x="1210" y="1650" type="line"/>
    </contour>
  </outline>
</glyph>
<glyph name="six" format="2">
  <advance width="1500"/>
  <unicode hex="0036"/>
  <outline>
    <contour>
      <point x="744" y="-32" type="curve" smooth="yes"/>
      <point x="1071" y="-32"/>
      <point x="1311" y="203"/>
      <point x="1311" y="527" type="curve" smooth="yes"/>
      <point x="1311" y="860"/>
      <point x="1056" y="1096"/>
      <point x="763" y="1096" type="curve" smooth="yes"/>
      <point x="669" y="1096"/>
      <point x="583" y="1071"/>
      <point x="497" y="1024" type="curve"/>
      <point x="1021" y="1650" type="line"/>
      <point x="951" y="1650" type="line"/>
      <point x="331" y="912" type="line" smooth="yes"/>
      <point x="249" y="815"/>
      <point x="189" y="658"/>
      <point x="189" y="511" type="curve" smooth="yes"/>
      <point x="189" y="241"/>
      <point x="392" y="-32"/>
    </contour>
    <contour>
      <point x="745" y="20" type="curve" smooth="yes"/>
      <point x="437" y="20"/>
      <point x="241" y="251"/>
      <point x="241" y="520" type="curve" smooth="yes"/>
      <point x="241" y="813"/>
      <point x="475" y="1044"/>
      <point x="759" y="1044" type="curve" smooth="yes"/>
      <point x="1035" y="1044"/>
      <point x="1259" y="826"/>
      <point x="1259" y="528" type="curve" smooth="yes"/>
      <point x="1259" y="234"/>
      <point x="1041" y="20"/>
    </contour>
  </outline>
</glyph>
<glyph name="seven" format="2">
  <advance width="1500"/>
  <unicode hex="0037"/>
  <outline>
    <contour>
      <point x="351" y="0" type="line"/>
      <point x="1223" y="1624" type="line"/>
      <point x="1223" y="1650" type="line"/>
      <point x="285" y="1650" type="line"/>
      <point x="285" y="1600" type="line"/>
      <point x="1143" y="1600" type="line"/>
      <point x="285" y="0" type="line"/>
    </contour>
  </outline>
</glyph>
<glyph name="eight" format="2">
  <advance width="1500"/>
  <unicode hex="0038"/>
  <outline>
    <contour>
      <point x="750" y="-32" type="curve" smooth="yes"/>
      <point x="1033" y="-32"/>
      <point x="1234" y="171"/>
      <point x="1234" y="431" type="curve" smooth="yes"/>
      <point x="1234" y="634"/>
      <point x="1110" y="803"/>
      <point x="914" y="872" type="curve"/>
      <point x="1073" y="938"/>
      <point x="1174" y="1088"/>
      <point x="1174" y="1263" type="curve" smooth="yes"/>
      <point x="1174" y="1496"/>
      <point x="996" y="1680"/>
      <point x="750" y="1680" type="curve" smooth="yes"/>
      <point x="504" y="1680"/>
      <point x="326" y="1496"/>
      <point x="326" y="1263" type="curve" smooth="yes"/>
      <point x="326" y="1088"/>
      <point x="427" y="938"/>
      <point x="586" y="872" type="curve"/>
      <point x="390" y="803"/>
      <point x="266" y="634"/>
      <point x="266" y="431" type="curve" smooth="yes"/>
      <point x="266" y="171"/>
      <point x="467" y="-32"/>
    </contour>
    <contour>
      <point x="750" y="20" type="curve" smooth="yes"/>
      <point x="501" y="20"/>
      <point x="324" y="197"/>
      <point x="324" y="431" type="curve" smooth="yes"/>
      <point x="324" y="670"/>
      <point x="509" y="842"/>
      <point x="750" y="842" type="curve" smooth="yes"/>
      <point x="994" y="842"/>
      <point x="1176" y="667"/>
      <point x="1176" y="430" type="curve" smooth="yes"/>
      <point x="1176" y="197"/>
      <point x="999" y="20"/>
    </contour>
    <contour>
      <point x="750" y="899" type="curve" smooth="yes"/>
      <point x="538" y="899"/>
      <point x="381" y="1054"/>
      <point x="381" y="1264" type="curve" smooth="yes"/>
      <point x="381" y="1473"/>
      <point x="539" y="1631"/>
      <point x="750" y="1631" type="curve" smooth="yes"/>
      <point x="961" y="1631"/>
      <point x="1119" y="1473"/>
      <point x="1119" y="1264" type="curve" smooth="yes"/>
      <point x="1119" y="1054"/>
      <point x="962" y="899"/>
    </contour>
  </outline>
</glyph>
<glyph name="nine" format="2">
  <advance width="1500"/>
  <unicode hex="0039"/>
  <outline>
    <contour>
      <point x="549" y="0" type="line"/>
      <point x="1169" y="738" type="line" smooth="yes"/>
      <point x="1259" y="846"/>
      <point x="1311" y="986"/>
      <point x="1311" y="1123" type="curve" smooth="yes"/>
      <point x="1311" y="1446"/>
      <point x="1077" y="1680"/>
      <point x="754" y="1680" type="curve" smooth="yes"/>
      <point x="429" y="1680"/>
      <point x="189" y="1444"/>
      <point x="189" y="1123" type="curve" smooth="yes"/>
      <point x="189" y="800"/>
      <point x="433" y="554"/>
      <point x="754" y="554" type="curve" smooth="yes"/>
      <point x="849" y="554"/>
      <point x="942" y="585"/>
      <point x="1018" y="642" type="curve"/>
      <point x="479" y="0" type="line"/>
    </contour>
    <contour>
      <point x="754" y="611" type="curve" smooth="yes"/>
      <point x="465" y="611"/>
      <point x="246" y="832"/>
      <point x="246" y="1123" type="curve" smooth="yes"/>
      <point x="246" y="1411"/>
      <point x="462" y="1623"/>
      <point x="754" y="1623" type="curve" smooth="yes"/>
      <point x="1044" y="1623"/>
      <point x="1254" y="1413"/>
      <point x="1254" y="1123" type="curve" smooth="yes"/>
      <point x="1254" y="844"/>
      <point x="1027" y="611"/>
    </contour>
  </outline>
</glyph>
<glyph name="less" format="2">
  <advance width="1553"/>
  <unicode hex="003C"/>
  <outline>
    <contour>
      <point x="1319" y="324" type="line"/>
      <point x="285" y="832" type="line"/>
      <point x="1319" y="1340" type="line"/>
      <point x="1319" y="1394" type="line"/>
      <point x="225" y="850" type="line"/>
      <point x="225" y="814" type="line"/>
      <point x="1319" y="270" type="line"/>
    </contour>
  </outline>
</glyph>
<glyph name="equal" format="2">
  <advance width="1728"/>
  <unicode hex="003D"/>
  <outline>
    <contour>
      <point x="1376" y="988" type="line"/>
      <point x="1376" y="1036" type="line"/>
      <point x="352" y="1036" type="line"/>
      <point x="352" y="988" type="line"/>
    </contour>
    <contour>
      <point x="1376" y="622" type="line"/>
      <point x="1376" y="670" type="line"/>
      <point x="352" y="670" type="line"/>
      <point x="352" y="622" type="line"/>
    </contour>
  </outline>
</glyph>
<glyph name="greater" format="2">
  <advance width="1553"/>
  <unicode hex="003E"/>
  <outline>
    <contour>
      <point x="1328" y="814" type="line"/>
      <point x="1328" y="850" type="line"/>
      <point x="234" y="1394" type="line"/>
      <point x="234" y="1340" type="line"/>
      <point x="1268" y="832" type="line"/>
      <point x="234" y="324" type="line"/>
      <point x="234" y="270" type="line"/>
    </contour>
  </outline>
</glyph>
<glyph name="question" format="2">
  <advance width="1399"/>
  <unicode hex="003F"/>
  <outline>
    <component base="period" xOffset="273"/>
    <contour>
      <point x="666" y="370" type="line"/>
      <point x="666" y="690" type="line"/>
      <point x="982" y="690"/>
      <point x="1178" y="901"/>
      <point x="1178" y="1192" type="curve" smooth="yes"/>
      <point x="1178" y="1483"/>
      <point x="983" y="1680"/>
      <point x="690" y="1680" type="curve" smooth="yes"/>
      <point x="409" y="1680"/>
      <point x="221" y="1497"/>
      <point x="208" y="1217" type="curve"/>
      <point x="263" y="1212" type="line"/>
      <point x="274" y="1464"/>
      <point x="439" y="1624"/>
      <point x="690" y="1624" type="curve" smooth="yes"/>
      <point x="941" y="1624"/>
      <point x="1122" y="1463"/>
      <point x="1122" y="1189" type="curve" smooth="yes"/>
      <point x="1122" y="905"/>
      <point x="927" y="740"/>
      <point x="669" y="740" type="curve" smooth="yes"/>
      <point x="649" y="740"/>
      <point x="639" y="741"/>
      <point x="616" y="744" type="curve"/>
      <point x="616" y="370" type="line"/>
    </contour>
  </outline>
</glyph>
<glyph name="at" format="2">
  <advance width="2182"/>
  <unicode hex="0040"/>
  <outline>
    <contour>
      <point x="1089" y="-327" type="curve" smooth="yes"/>
      <point x="1368" y="-327"/>
      <point x="1601" y="-201"/>
      <point x="1742" y="-3" type="curve"/>
      <point x="1690" y="23" type="line"/>
      <point x="1570" y="-143"/>
      <point x="1364" y="-273"/>
      <point x="1090" y="-273" type="curve" smooth="yes"/>
      <point x="630" y="-273"/>
      <point x="320" y="90"/>
      <point x="320" y="527" type="curve" smooth="yes"/>
      <point x="320" y="994"/>
      <point x="674" y="1331"/>
      <point x="1111" y="1331" type="curve" smooth="yes"/>
      <point x="1497" y="1331"/>
      <point x="1874" y="1069"/>
      <point x="1874" y="539" type="curve" smooth="yes"/>
      <point x="1874" y="320"/>
      <point x="1810" y="167"/>
      <point x="1702" y="167" type="curve" smooth="yes"/>
      <point x="1633" y="167"/>
      <point x="1568" y="229"/>
      <point x="1568" y="359" type="curve" smooth="yes"/>
      <point x="1568" y="1025" type="line"/>
      <point x="1512" y="1025" type="line"/>
      <point x="1512" y="763" type="line"/>
      <point x="1430" y="943"/>
      <point x="1260" y="1057"/>
      <point x="1054" y="1057" type="curve" smooth="yes"/>
      <point x="764" y="1057"/>
      <point x="540" y="831"/>
      <point x="540" y="511" type="curve" smooth="yes"/>
      <point x="540" y="191"/>
      <point x="764" y="-33"/>
      <point x="1054" y="-33" type="curve" smooth="yes"/>
      <point x="1260" y="-33"/>
      <point x="1430" y="81"/>
      <point x="1512" y="261" type="curve"/>
      <point x="1535" y="186"/>
      <point x="1609" y="117"/>
      <point x="1702" y="117" type="curve" smooth="yes"/>
      <point x="1878" y="117"/>
      <point x="1924" y="367"/>
      <point x="1924" y="553" type="curve" smooth="yes"/>
      <point x="1924" y="1115"/>
      <point x="1502" y="1385"/>
      <point x="1100" y="1385" type="curve" smooth="yes"/>
      <point x="626" y="1385"/>
      <point x="260" y="1008"/>
      <point x="260" y="522" type="curve" smooth="yes"/>
      <point x="260" y="52"/>
      <point x="603" y="-327"/>
    </contour>
    <contour>
      <point x="1056" y="19" type="curve" smooth="yes"/>
      <point x="790" y="19"/>
      <point x="594" y="223"/>
      <point x="594" y="511" type="curve" smooth="yes"/>
      <point x="594" y="801"/>
      <point x="790" y="1005"/>
      <point x="1056" y="1005" type="curve" smooth="yes"/>
      <point x="1324" y="1005"/>
      <point x="1518" y="801"/>
      <point x="1518" y="511" type="curve" smooth="yes"/>
      <point x="1518" y="223"/>
      <point x="1324" y="19"/>
    </contour>
  </outline>
</glyph>
<glyph name="A" format="2">
  <advance width="1652"/>
  <unicode hex="0041"/>
  <anchor x="826" y="0" name="bottom"/>
  <anchor x="1494" y="0" name="ogonek"/>
  <anchor x="826" y="1650" name="top"/>
  <outline>
    <contour>
      <point x="218" y="0" type="line"/>
      <point x="454" y="610" type="line"/>
      <point x="1198" y="610" type="line"/>
      <point x="1434" y="0" type="line"/>
      <point x="1494" y="0" type="line"/>
      <point x="852" y="1650" type="line"/>
      <point x="800" y="1650" type="line"/>
      <point x="158" y="0" type="line"/>
    </contour>
    <contour>
      <point x="826" y="1582" type="line"/>
      <point x="1179" y="660" type="line"/>
      <point x="473" y="660" type="line"/>
    </contour>
  </outline>
</glyph>
<glyph name="B" format="2">
  <advance width="1282"/>
  <unicode hex="0042"/>
  <anchor x="641" y="0" name="bottom"/>
  <anchor x="641" y="1650" name="top"/>
  <outline>
    <contour>
      <point x="658" y="0" type="line" smooth="yes"/>
      <point x="978" y="0"/>
      <point x="1166" y="159"/>
      <point x="1166" y="430" type="curve" smooth="yes"/>
      <point x="1166" y="668"/>
      <point x="1021" y="822"/>
      <point x="768" y="854" type="curve"/>
      <point x="932" y="917"/>
      <point x="1020" y="1049"/>
      <point x="1020" y="1232" type="curve" smooth="yes"/>
      <point x="1020" y="1498"/>
      <point x="835" y="1650"/>
      <point x="512" y="1650" type="curve" smooth="yes"/>
      <point x="232" y="1650" type="line"/>
      <point x="232" y="0" type="line"/>
    </contour>
    <contour>
      <point x="288" y="1601" type="line"/>
      <point x="512" y="1601" type="line" smooth="yes"/>
      <point x="803" y="1601"/>
      <point x="968" y="1468" name=".hr01"/>
      <point x="968" y="1232" type="curve" smooth="yes"/>
      <point x="968" y="998"/>
      <point x="805" y="867"/>
      <point x="512" y="867" type="curve" smooth="yes"/>
      <point x="288" y="867" type="line"/>
    </contour>
    <contour>
      <point x="288" y="814" type="line"/>
      <point x="658" y="814" type="line" smooth="yes"/>
      <point x="944" y="814"/>
      <point x="1114" y="671"/>
      <point x="1114" y="430" type="curve" smooth="yes"/>
      <point x="1114" y="191"/>
      <point x="946" y="52"/>
      <point x="658" y="52" type="curve" smooth="yes"/>
      <point x="288" y="52" type="line"/>
    </contour>
  </outline>
</glyph>
<glyph name="C" format="2">
  <advance width="1652"/>
  <unicode hex="0043"/>
  <anchor x="961" y="0" name="bottom"/>
  <anchor x="961" y="1650" name="top"/>
  <outline>
    <contour>
      <point x="148" y="824" type="curve" smooth="yes"/>
      <point x="148" y="337"/>
      <point x="507" y="-32"/>
      <point x="1001" y="-32" type="curve" smooth="yes"/>
      <point x="1210" y="-32"/>
      <point x="1392" y="31"/>
      <point x="1536" y="146" type="curve"/>
      <point x="1502" y="190" type="line"/>
      <point x="1370" y="82"/>
      <point x="1196" y="24"/>
      <point x="1005" y="24" type="curve" smooth="yes"/>
      <point x="536" y="24"/>
      <point x="210" y="376"/>
      <point x="210" y="824" type="curve" smooth="yes"/>
      <point x="210" y="1272"/>
      <point x="536" y="1624"/>
      <point x="1005" y="1624" type="curve" smooth="yes"/>
      <point x="1196" y="1624"/>
      <point x="1370" y="1566"/>
      <point x="1502" y="1458" type="curve"/>
      <point x="1536" y="1502" type="line"/>
      <point x="1392" y="1617"/>
      <point x="1210" y="1680"/>
      <point x="1001" y="1680" type="curve" smooth="yes"/>
      <point x="507" y="1680"/>
      <point x="148" y="1311"/>
    </contour>
  </outline>
</glyph>
<glyph name="D" format="2">
  <advance width="1653"/>
  <unicode hex="0044"/>
  <anchor x="827" y="0" name="bottom"/>
  <anchor x="827" y="825" name="center"/>
  <anchor x="827" y="1650" name="top"/>
  <outline>
    <contour>
      <point x="619" y="0" type="line" smooth="yes"/>
      <point x="1089" y="0"/>
      <point x="1451" y="359"/>
      <point x="1451" y="825" type="curve" smooth="yes"/>
      <point x="1451" y="1291"/>
      <point x="1089" y="1650"/>
      <point x="619" y="1650" type="curve" smooth="yes"/>
      <point x="293" y="1650" type="line"/>
      <point x="293" y="0" type="line"/>
    </contour>
    <contour>
      <point x="349" y="1600" type="line"/>
      <point x="619" y="1600" type="line" smooth="yes"/>
      <point x="1055" y="1600"/>
      <point x="1397" y="1260"/>
      <point x="1397" y="825" type="curve" smooth="yes"/>
      <point x="1397" y="390"/>
      <point x="1055" y="50"/>
      <point x="619" y="50" type="curve" smooth="yes"/>
      <point x="349" y="50" type="line"/>
    </contour>
  </outline>
</glyph>
<glyph name="E" format="2">
  <advance width="1254"/>
  <unicode hex="0045"/>
  <anchor x="706" y="0" name="bottom"/>
  <anchor x="1077" y="0" name="ogonek"/>
  <anchor x="706" y="1650" name="top"/>
  <outline>
    <contour>
      <point x="1077" y="0" type="line"/>
      <point x="1077" y="50" type="line"/>
      <point x="349" y="50" type="line"/>
      <point x="349" y="802" type="line"/>
      <point x="1053" y="802" type="line"/>
      <point x="1053" y="852" type="line"/>
      <point x="349" y="852" type="line"/>
      <point x="349" y="1600" type="line"/>
      <point x="1077" y="1600" type="line"/>
      <point x="1077" y="1650" type="line"/>
      <point x="293" y="1650" type="line"/>
      <point x="293" y="0" type="line"/>
    </contour>
  </outline>
</glyph>
<glyph name="F" format="2">
  <advance width="1239"/>
  <unicode hex="0046"/>
  <anchor x="620" y="0" name="bottom"/>
  <anchor x="620" y="1650" name="top"/>
  <outline>
    <contour>
      <point x="293" y="1650" type="line"/>
      <point x="293" y="0" type="line"/>
      <point x="349" y="0" type="line"/>
      <point x="349" y="802" type="line"/>
      <point x="1031" y="802" type="line"/>
      <point x="1031" y="852" type="line"/>
      <point x="349" y="852" type="line"/>
      <point x="349" y="1600" type="line"/>
      <point x="1077" y="1600" type="line"/>
      <point x="1077" y="1650" type="line"/>
    </contour>
  </outline>
</glyph>
<glyph name="G" format="2">
  <advance width="1958"/>
  <unicode hex="0047"/>
  <anchor x="1000" y="0" name="bottom"/>
  <anchor x="1000" y="1650" name="top"/>
  <outline>
    <contour>
      <point x="1020" y="-32" type="curve" smooth="yes"/>
      <point x="1365" y="-32"/>
      <point x="1773" y="181"/>
      <point x="1773" y="684" type="curve" smooth="yes"/>
      <point x="1773" y="774" type="line"/>
      <point x="1009" y="774" type="line"/>
      <point x="1009" y="722" type="line"/>
      <point x="1715" y="722" type="line"/>
      <point x="1715" y="646" type="line" smooth="yes"/>
      <point x="1715" y="257"/>
      <point x="1359" y="18"/>
      <point x="1015" y="18" type="curve" smooth="yes"/>
      <point x="593" y="18"/>
      <point x="263" y="378"/>
      <point x="263" y="824" type="curve" smooth="yes"/>
      <point x="263" y="1236"/>
      <point x="545" y="1630"/>
      <point x="1019" y="1630" type="curve" smooth="yes"/>
      <point x="1263" y="1630"/>
      <point x="1469" y="1526"/>
      <point x="1600" y="1369" type="curve"/>
      <point x="1647" y="1398" type="line"/>
      <point x="1514" y="1562"/>
      <point x="1302" y="1680"/>
      <point x="1024" y="1680" type="curve" smooth="yes"/>
      <point x="496" y="1680"/>
      <point x="205" y="1252"/>
      <point x="205" y="823" type="curve" smooth="yes"/>
      <point x="205" y="350"/>
      <point x="559" y="-32"/>
    </contour>
  </outline>
</glyph>
<glyph name="H" format="2">
  <advance width="1758"/>
  <unicode hex="0048"/>
  <anchor x="879" y="0" name="bottom"/>
  <anchor x="879" y="825" name="center"/>
  <anchor x="879" y="1650" name="top"/>
  <outline>
    <contour>
      <point x="349" y="0" type="line"/>
      <point x="349" y="802" type="line"/>
      <point x="1409" y="802" type="line"/>
      <point x="1409" y="0" type="line"/>
      <point x="1465" y="0" type="line"/>
      <point x="1465" y="1650" type="line"/>
      <point x="1409" y="1650" type="line"/>
      <point x="1409" y="852" type="line"/>
      <point x="349" y="852" type="line"/>
      <point x="349" y="1650" type="line"/>
      <point x="293" y="1650" type="line"/>
      <point x="293" y="0" type="line"/>
    </contour>
  </outline>
</glyph>
<glyph name="I" format="2">
  <advance width="642"/>
  <unicode hex="0049"/>
  <anchor x="321" y="0" name="bottom"/>
  <anchor x="349" y="0" name="ogonek"/>
  <anchor x="321" y="1650" name="top"/>
  <outline>
    <contour>
      <point x="349" y="0" type="line"/>
      <point x="349" y="1650" type="line"/>
      <point x="293" y="1650" type="line"/>
      <point x="293" y="0" type="line"/>
    </contour>
  </outline>
</glyph>
<glyph name="J" format="2">
  <advance width="1335"/>
  <unicode hex="004A"/>
  <anchor x="573" y="0" name="bottom"/>
  <anchor x="648" y="1650" name="top"/>
  <outline>
    <contour>
      <point x="567" y="-32" type="curve" smooth="yes"/>
      <point x="876" y="-32"/>
      <point x="1059" y="153"/>
      <point x="1059" y="464" type="curve" smooth="yes"/>
      <point x="1059" y="1650" type="line"/>
      <point x="1003" y="1650" type="line"/>
      <point x="1003" y="488" type="line" smooth="yes"/>
      <point x="1003" y="190"/>
      <point x="847" y="20"/>
      <point x="573" y="20" type="curve" smooth="yes"/>
      <point x="435" y="20"/>
      <point x="324" y="68"/>
      <point x="231" y="167" type="curve"/>
      <point x="197" y="120" type="line"/>
      <point x="304" y="15"/>
      <point x="419" y="-32"/>
    </contour>
  </outline>
</glyph>
<glyph name="K" format="2">
  <advance width="1429"/>
  <unicode hex="004B"/>
  <anchor x="731" y="0" name="bottom"/>
  <anchor x="731" y="1650" name="top"/>
  <outline>
    <contour>
      <point x="349" y="0" type="line"/>
      <point x="349" y="778" type="line"/>
      <point x="1235" y="0" type="line"/>
      <point x="1318" y="0" type="line"/>
      <point x="389" y="820" type="line"/>
      <point x="1243" y="1650" type="line"/>
      <point x="1165" y="1650" type="line"/>
      <point x="349" y="856" type="line"/>
      <point x="349" y="1650" type="line"/>
      <point x="293" y="1650" type="line"/>
      <point x="293" y="0" type="line"/>
    </contour>
  </outline>
</glyph>
<glyph name="L" format="2">
  <advance width="1245"/>
  <unicode hex="004C"/>
  <anchor x="623" y="0" name="bottom"/>
  <anchor x="623" y="825" name="center"/>
  <anchor x="543" y="1650" name="top"/>
  <anchor x="1225" y="1650" name="topright"/>
  <outline>
    <contour>
      <point x="1093" y="0" type="line"/>
      <point x="1093" y="50" type="line"/>
      <point x="349" y="50" type="line"/>
      <point x="349" y="1650" type="line"/>
      <point x="293" y="1650" type="line"/>
      <point x="293" y="0" type="line"/>
    </contour>
  </outline>
</glyph>
<glyph name="M" format="2">
  <advance width="1898"/>
  <unicode hex="004D"/>
  <anchor x="979" y="134" name="bottom"/>
  <anchor x="949" y="1650" name="top"/>
  <outline>
    <contour>
      <point x="349" y="0" type="line"/>
      <point x="349" y="1500" type="line"/>
      <point x="919" y="134" type="line"/>
      <point x="979" y="134" type="line"/>
      <point x="1549" y="1500" type="line"/>
      <point x="1549" y="0" type="line"/>
      <point x="1605" y="0" type="line"/>
      <point x="1605" y="1650" type="line"/>
      <point x="1545" y="1650" type="line"/>
      <point x="949" y="214" type="line"/>
      <point x="353" y="1650" type="line"/>
      <point x="293" y="1650" type="line"/>
      <point x="293" y="0" type="line"/>
    </contour>
  </outline>
</glyph>
<glyph name="N" format="2">
  <advance width="1682"/>
  <unicode hex="004E"/>
  <anchor x="841" y="0" name="bottom"/>
  <anchor x="841" y="1650" name="top"/>
  <outline>
    <contour>
      <point x="349" y="0" type="line"/>
      <point x="349" y="1546" type="line"/>
      <point x="1333" y="0" type="line"/>
      <point x="1389" y="0" type="line"/>
      <point x="1389" y="1650" type="line"/>
      <point x="1333" y="1650" type="line"/>
      <point x="1333" y="102" type="line"/>
      <point x="349" y="1650" type="line"/>
      <point x="293" y="1650" type="line"/>
      <point x="293" y="0" type="line"/>
    </contour>
  </outline>
</glyph>
<glyph name="O" format="2">
  <advance width="2070"/>
  <unicode hex="004F"/>
  <anchor x="1035" y="0" name="bottom"/>
  <anchor x="1035" y="825" name="center"/>
  <anchor x="1067" y="0" name="ogonek"/>
  <anchor x="1035" y="1650" name="top"/>
  <anchor x="20" y="1650" name="topleft"/>
  <anchor x="2050" y="1650" name="topright"/>
  <outline>
    <contour>
      <point x="1035" y="-32" type="curve" smooth="yes"/>
      <point x="1497" y="-32"/>
      <point x="1867" y="348"/>
      <point x="1867" y="824" type="curve" smooth="yes"/>
      <point x="1867" y="1300"/>
      <point x="1497" y="1680"/>
      <point x="1035" y="1680" type="curve" smooth="yes"/>
      <point x="573" y="1680"/>
      <point x="203" y="1300"/>
      <point x="203" y="824" type="curve" smooth="yes"/>
      <point x="203" y="348"/>
      <point x="573" y="-32"/>
    </contour>
    <contour>
      <point x="1035" y="22" type="curve" smooth="yes"/>
      <point x="607" y="22"/>
      <point x="263" y="380"/>
      <point x="263" y="824" type="curve" smooth="yes"/>
      <point x="263" y="1268"/>
      <point x="607" y="1626"/>
      <point x="1035" y="1626" type="curve" smooth="yes"/>
      <point x="1463" y="1626"/>
      <point x="1807" y="1268"/>
      <point x="1807" y="824" type="curve" smooth="yes"/>
      <point x="1807" y="380"/>
      <point x="1463" y="22"/>
    </contour>
  </outline>
</glyph>
<glyph name="P" format="2">
  <advance width="1343"/>
  <unicode hex="0050"/>
  <outline>
    <contour>
      <point x="349" y="0" type="line"/>
      <point x="349" y="736" type="line"/>
      <point x="647" y="736" type="line" smooth="yes"/>
      <point x="971" y="736"/>
      <point x="1157" y="924"/>
      <point x="1157" y="1193" type="curve" smooth="yes"/>
      <point x="1157" y="1462"/>
      <point x="971" y="1650"/>
      <point x="647" y="1650" type="curve" smooth="yes"/>
      <point x="293" y="1650" type="line"/>
      <point x="293" y="0" type="line"/>
    </contour>
    <contour>
      <point x="349" y="1600" type="line"/>
      <point x="647" y="1600" type="line" smooth="yes"/>
      <point x="937" y="1600"/>
      <point x="1105" y="1432"/>
      <point x="1105" y="1193" type="curve" smooth="yes"/>
      <point x="1105" y="954"/>
      <point x="937" y="786"/>
      <point x="647" y="786" type="curve" smooth="yes"/>
      <point x="349" y="786" type="line"/>
    </contour>
  </outline>
</glyph>
<glyph name="Q" format="2">
  <advance width="2018"/>
  <unicode hex="0051"/>
  <outline>
    <component base="O" xOffset="-41" yOffset="-1"/>
    <contour>
      <point x="1104" y="450" type="line"/>
      <point x="1300" y="242"/>
      <point x="1564" y="52"/>
      <point x="1830" y="-54" type="curve"/>
      <point x="1849" y="0" type="line"/>
      <point x="1595" y="92"/>
      <point x="1324" y="286"/>
      <point x="1134" y="476" type="curve"/>
    </contour>
  </outline>
</glyph>
<glyph name="R" format="2">
  <advance width="1336"/>
  <unicode hex="0052"/>
  <anchor x="668" y="0" name="bottom"/>
  <anchor x="668" y="1650" name="top"/>
  <outline>
    <contour>
      <point x="349" y="1600" type="line"/>
      <point x="647" y="1600" type="line" smooth="yes"/>
      <point x="937" y="1600"/>
      <point x="1105" y="1436"/>
      <point x="1105" y="1201" type="curve" smooth="yes"/>
      <point x="1105" y="966"/>
      <point x="937" y="801"/>
      <point x="647" y="801" type="curve" smooth="yes"/>
      <point x="349" y="801" type="line"/>
    </contour>
    <contour>
      <point x="349" y="0" type="line"/>
      <point x="349" y="751" type="line"/>
      <point x="588" y="751" type="line"/>
      <point x="1153" y="0" type="line"/>
      <point x="1225" y="0" type="line"/>
      <point x="660" y="751" type="line"/>
      <point x="935" y="751"/>
      <point x="1157" y="909"/>
      <point x="1157" y="1201" type="curve" smooth="yes"/>
      <point x="1157" y="1465"/>
      <point x="971" y="1650"/>
      <point x="647" y="1650" type="curve" smooth="yes"/>
      <point x="293" y="1650" type="line"/>
      <point x="293" y="0" type="line"/>
    </contour>
  </outline>
</glyph>
<glyph name="S" format="2">
  <advance width="1369"/>
  <unicode hex="0053"/>
  <anchor x="695" y="0" name="bottom"/>
  <anchor x="692" y="1660" name="top"/>
  <anchor x="727" y="0" name="cedilla"/>
  <outline>
    <contour>
      <point x="708" y="-32" type="curve" smooth="yes"/>
      <point x="954" y="-32"/>
      <point x="1183" y="126"/>
      <point x="1183" y="411" type="curve" smooth="yes"/>
      <point x="1183" y="641"/>
      <point x="1046" y="776"/>
      <point x="691" y="898" type="curve" smooth="yes"/>
      <point x="440" y="984"/>
      <point x="317" y="1108"/>
      <point x="317" y="1277" type="curve" smooth="yes"/>
      <point x="317" y="1458"/>
      <point x="449" y="1628"/>
      <point x="684" y="1628" type="curve" smooth="yes"/>
      <point x="873" y="1628"/>
      <point x="999" y="1518"/>
      <point x="1039" y="1416" type="curve"/>
      <point x="1085" y="1438" type="line"/>
      <point x="1037" y="1550"/>
      <point x="899" y="1680"/>
      <point x="686" y="1680" type="curve" smooth="yes"/>
      <point x="444" y="1680"/>
      <point x="267" y="1514"/>
      <point x="267" y="1280" type="curve" smooth="yes"/>
      <point x="267" y="1087"/>
      <point x="403" y="939"/>
      <point x="665" y="850" type="curve" smooth="yes"/>
      <point x="1007" y="734"/>
      <point x="1131" y="616"/>
      <point x="1131" y="408" type="curve" smooth="yes"/>
      <point x="1131" y="152"/>
      <point x="918" y="18"/>
      <point x="704" y="18" type="curve" smooth="yes"/>
      <point x="480" y="18"/>
      <point x="283" y="161"/>
      <point x="215" y="345" type="curve"/>
      <point x="169" y="326" type="line"/>
      <point x="237" y="131"/>
      <point x="450" y="-32"/>
    </contour>
  </outline>
</glyph>
<glyph name="T" format="2">
  <advance width="1464"/>
  <unicode hex="0054"/>
  <anchor x="732" y="0" name="bottom"/>
  <anchor x="732" y="1650" name="top"/>
  <outline>
    <contour>
      <point x="760" y="0" type="line"/>
      <point x="760" y="1594" type="line"/>
      <point x="1312" y="1594" type="line"/>
      <point x="1312" y="1650" type="line"/>
      <point x="152" y="1650" type="line"/>
      <point x="152" y="1594" type="line"/>
      <point x="704" y="1594" type="line"/>
      <point x="704" y="0" type="line"/>
    </contour>
  </outline>
</glyph>
<glyph name="U" format="2">
  <advance width="1622"/>
  <unicode hex="0055"/>
  <anchor x="811" y="0" name="bottom"/>
  <anchor x="851" y="0" name="ogonek"/>
  <anchor x="811" y="1650" name="top"/>
  <outline>
    <contour>
      <point x="811" y="-32" type="curve" smooth="yes"/>
      <point x="1159" y="-32"/>
      <point x="1351" y="191"/>
      <point x="1351" y="594" type="curve" smooth="yes"/>
      <point x="1351" y="1650" type="line"/>
      <point x="1295" y="1650" type="line"/>
      <point x="1295" y="594" type="line" smooth="yes"/>
      <point x="1295" y="221"/>
      <point x="1128" y="24"/>
      <point x="811" y="24" type="curve" smooth="yes"/>
      <point x="494" y="24"/>
      <point x="327" y="221"/>
      <point x="327" y="594" type="curve" smooth="yes"/>
      <point x="327" y="1650" type="line"/>
      <point x="271" y="1650" type="line"/>
      <point x="271" y="594" type="line" smooth="yes"/>
      <point x="271" y="191"/>
      <point x="463" y="-32"/>
    </contour>
  </outline>
</glyph>
<glyph name="V" format="2">
  <advance width="1742"/>
  <unicode hex="0056"/>
  <anchor x="871" y="0" name="bottom"/>
  <anchor x="871" y="1650" name="top"/>
  <outline>
    <contour>
      <point x="893" y="0" type="line"/>
      <point x="1585" y="1650" type="line"/>
      <point x="1521" y="1650" type="line"/>
      <point x="871" y="84" type="line"/>
      <point x="221" y="1650" type="line"/>
      <point x="157" y="1650" type="line"/>
      <point x="849" y="0" type="line"/>
    </contour>
  </outline>
</glyph>
<glyph name="W" format="2">
  <advance width="2552"/>
  <unicode hex="0057"/>
  <anchor x="1276" y="0" name="bottom"/>
  <anchor x="1276" y="1650" name="top"/>
  <outline>
    <contour>
      <point x="728" y="0" type="line"/>
      <point x="1276" y="1550" type="line"/>
      <point x="1824" y="0" type="line"/>
      <point x="1890" y="0" type="line"/>
      <point x="2388" y="1650" type="line"/>
      <point x="2326" y="1650" type="line"/>
      <point x="1857" y="74" type="line"/>
      <point x="1300" y="1650" type="line"/>
      <point x="1252" y="1650" type="line"/>
      <point x="695" y="74" type="line"/>
      <point x="226" y="1650" type="line"/>
      <point x="164" y="1650" type="line"/>
      <point x="662" y="0" type="line"/>
    </contour>
  </outline>
</glyph>
<glyph name="X" format="2">
  <advance width="1642"/>
  <unicode hex="0058"/>
  <outline>
    <contour>
      <point x="223" y="0" type="line"/>
      <point x="821" y="842" type="line"/>
      <point x="1419" y="0" type="line"/>
      <point x="1491" y="0" type="line"/>
      <point x="857" y="892" type="line"/>
      <point x="1395" y="1650" type="line"/>
      <point x="1325" y="1650" type="line"/>
      <point x="821" y="942" type="line"/>
      <point x="317" y="1650" type="line"/>
      <point x="247" y="1650" type="line"/>
      <point x="785" y="892" type="line"/>
      <point x="151" y="0" type="line"/>
    </contour>
  </outline>
</glyph>
<glyph name="Y" format="2">
  <advance width="1460"/>
  <unicode hex="0059"/>
  <anchor x="730" y="0" name="bottom"/>
  <anchor x="730" y="1650" name="top"/>
  <outline>
    <contour>
      <point x="758" y="0" type="line"/>
      <point x="758" y="704" type="line"/>
      <point x="1308" y="1650" type="line"/>
      <point x="1240" y="1650" type="line"/>
      <point x="730" y="772" type="line"/>
      <point x="220" y="1650" type="line"/>
      <point x="152" y="1650" type="line"/>
      <point x="702" y="704" type="line"/>
      <point x="702" y="0" type="line"/>
    </contour>
  </outline>
</glyph>
<glyph name="Z" format="2">
  <advance width="1609"/>
  <unicode hex="005A"/>
  <anchor x="805" y="0" name="bottom"/>
  <anchor x="805" y="825" name="center"/>
  <anchor x="805" y="1650" name="top"/>
  <outline>
    <contour>
      <point x="1397" y="0" type="line"/>
      <point x="1397" y="56" type="line"/>
      <point x="263" y="56" type="line"/>
      <point x="1453" y="1650" type="line"/>
      <point x="263" y="1650" type="line"/>
      <point x="263" y="1594" type="line"/>
      <point x="1341" y="1594" type="line"/>
      <point x="151" y="0" type="line"/>
    </contour>
  </outline>
</glyph>
<glyph name="bracketleft" format="2">
  <advance width="752"/>
  <unicode hex="005B"/>
  <outline>
    <contour>
      <point x="606" y="-520" type="line"/>
      <point x="606" y="-464" type="line"/>
      <point x="338" y="-464" type="line"/>
      <point x="338" y="1664" type="line"/>
      <point x="606" y="1664" type="line"/>
      <point x="606" y="1720" type="line"/>
      <point x="282" y="1720" type="line"/>
      <point x="282" y="-520" type="line"/>
    </contour>
  </outline>
</glyph>
<glyph name="backslash" format="2">
  <advance width="1056"/>
  <unicode hex="005C"/>
  <outline>
    <contour>
      <point x="960" y="0" type="line"/>
      <point x="136" y="1720" type="line"/>
      <point x="96" y="1720" type="line"/>
      <point x="920" y="0" type="line"/>
    </contour>
  </outline>
</glyph>
<glyph name="asciicircum" format="2">
  <advance width="1310"/>
  <unicode hex="005E"/>
  <outline>
    <contour>
      <point x="275" y="1210" type="line"/>
      <point x="655" y="1646" type="line"/>
      <point x="1035" y="1210" type="line"/>
      <point x="1083" y="1210" type="line"/>
      <point x="669" y="1680" type="line"/>
      <point x="641" y="1680" type="line"/>
      <point x="227" y="1210" type="line"/>
    </contour>
  </outline>
</glyph>
<glyph name="underscore" format="2">
  <advance width="1496"/>
  <unicode hex="005F"/>
  <outline>
    <contour>
      <point x="1261" y="-200" type="line"/>
      <point x="1261" y="-160" type="line"/>
      <point x="235" y="-160" type="line"/>
      <point x="235" y="-200" type="line"/>
    </contour>
  </outline>
</glyph>
<glyph name="a" format="2">
  <advance width="1175"/>
  <unicode hex="0061"/>
  <anchor x="588" y="0" name="bottom"/>
  <anchor x="1058" y="10" name="ogonek"/>
  <anchor x="588" y="1026" name="top"/>
  <outline>
    <contour>
      <point x="553" y="-32" type="curve" smooth="yes"/>
      <point x="702" y="-32"/>
      <point x="832" y="26"/>
      <point x="904" y="124" type="curve"/>
      <point x="904" y="0" type="line" name=".hr01"/>
      <point x="960" y="0" type="line"/>
      <point x="960" y="640" type="line" smooth="yes"/>
      <point x="960" y="899"/>
      <point x="810" y="1056"/>
      <point x="562" y="1056" type="curve" smooth="yes"/>
      <point x="415" y="1056"/>
      <point x="296" y="1001"/>
      <point x="208" y="892" type="curve"/>
      <point x="248" y="860" type="line"/>
      <point x="340" y="961"/>
      <point x="436" y="1006"/>
      <point x="558" y="1006" type="curve" smooth="yes"/>
      <point x="775" y="1006"/>
      <point x="904" y="863"/>
      <point x="904" y="622" type="curve" smooth="yes"/>
      <point x="904" y="478" type="line"/>
      <point x="832" y="576"/>
      <point x="702" y="634"/>
      <point x="553" y="634" type="curve" smooth="yes"/>
      <point x="318" y="634"/>
      <point x="146" y="493"/>
      <point x="146" y="300" type="curve" smooth="yes"/>
      <point x="146" y="109"/>
      <point x="318" y="-32" name=".hr02"/>
    </contour>
    <contour>
      <point x="554" y="20" type="curve" smooth="yes"/>
      <point x="349" y="20"/>
      <point x="198" y="139"/>
      <point x="198" y="302" type="curve" smooth="yes"/>
      <point x="198" y="464"/>
      <point x="348" y="582"/>
      <point x="554" y="582" type="curve" smooth="yes"/>
      <point x="760" y="582"/>
      <point x="910" y="464"/>
      <point x="910" y="302" type="curve" smooth="yes"/>
      <point x="910" y="139"/>
      <point x="759" y="20"/>
    </contour>
  </outline>
</glyph>
<glyph name="b" format="2">
  <advance width="1428"/>
  <unicode hex="0062"/>
  <anchor x="714" y="0" name="bottom"/>
  <anchor x="714" y="1720" name="top"/>
  <outline>
    <contour>
      <point x="285" y="512" type="curve" smooth="yes"/>
      <point x="285" y="800"/>
      <point x="478" y="1004"/>
      <point x="747" y="1004" type="curve" smooth="yes"/>
      <point x="1016" y="1004"/>
      <point x="1209" y="799"/>
      <point x="1209" y="512" type="curve" smooth="yes"/>
      <point x="1209" y="225"/>
      <point x="1016" y="20"/>
      <point x="747" y="20" type="curve" smooth="yes"/>
      <point x="478" y="20"/>
      <point x="285" y="225"/>
    </contour>
    <contour>
      <point x="235" y="1720" type="line"/>
      <point x="235" y="0" type="line"/>
      <point x="291" y="0" type="line" name=".hr01"/>
      <point x="291" y="262" type="line"/>
      <point x="375" y="79"/>
      <point x="547" y="-32"/>
      <point x="751" y="-32" type="curve" smooth="yes" name=".hr02"/>
      <point x="1043" y="-32"/>
      <point x="1263" y="197"/>
      <point x="1263" y="512" type="curve" smooth="yes"/>
      <point x="1263" y="827"/>
      <point x="1043" y="1056"/>
      <point x="751" y="1056" type="curve" smooth="yes"/>
      <point x="547" y="1056"/>
      <point x="375" y="945"/>
      <point x="291" y="762" type="curve"/>
      <point x="291" y="1720" type="line"/>
    </contour>
  </outline>
</glyph>
<glyph name="c" format="2">
  <advance width="1187"/>
  <unicode hex="0063"/>
  <anchor x="649" y="0" name="bottom"/>
  <anchor x="649" y="1024" name="top"/>
  <anchor x="681" y="0" name="cedilla"/>
  <outline>
    <contour>
      <point x="709" y="-32" type="curve" smooth="yes"/>
      <point x="845" y="-32"/>
      <point x="967" y="12"/>
      <point x="1063" y="88" type="curve"/>
      <point x="1027" y="126" type="line"/>
      <point x="941" y="56"/>
      <point x="831" y="20"/>
      <point x="710" y="20" type="curve" smooth="yes"/>
      <point x="420" y="20"/>
      <point x="215" y="229"/>
      <point x="215" y="512" type="curve" smooth="yes"/>
      <point x="215" y="798"/>
      <point x="423" y="1004"/>
      <point x="709" y="1004" type="curve" smooth="yes"/>
      <point x="831" y="1004"/>
      <point x="941" y="968"/>
      <point x="1029" y="898" type="curve"/>
      <point x="1063" y="936" type="line"/>
      <point x="969" y="1012"/>
      <point x="845" y="1056"/>
      <point x="709" y="1056" type="curve" smooth="yes"/>
      <point x="401" y="1056"/>
      <point x="163" y="832"/>
      <point x="163" y="512" type="curve" smooth="yes"/>
      <point x="163" y="194"/>
      <point x="401" y="-32"/>
    </contour>
  </outline>
</glyph>
<glyph name="d" format="2">
  <advance width="1428"/>
  <unicode hex="0064"/>
  <anchor x="673" y="0" name="bottom"/>
  <anchor x="657" y="1266" name="top"/>
  <outline>
    <contour>
      <point x="219" y="512" type="curve" smooth="yes"/>
      <point x="219" y="799"/>
      <point x="412" y="1004"/>
      <point x="681" y="1004" type="curve" smooth="yes"/>
      <point x="950" y="1004"/>
      <point x="1143" y="800"/>
      <point x="1143" y="512" type="curve" smooth="yes"/>
      <point x="1143" y="225"/>
      <point x="950" y="20"/>
      <point x="681" y="20" type="curve" smooth="yes"/>
      <point x="412" y="20"/>
      <point x="219" y="225"/>
    </contour>
    <contour>
      <point x="165" y="512" type="curve" smooth="yes"/>
      <point x="165" y="197"/>
      <point x="385" y="-32"/>
      <point x="677" y="-32" type="curve" smooth="yes"/>
      <point x="881" y="-32"/>
      <point x="1053" y="79"/>
      <point x="1137" y="262" type="curve"/>
      <point x="1137" y="0" type="line"/>
      <point x="1193" y="0" type="line" name=".hr01"/>
      <point x="1193" y="1720" type="line"/>
      <point x="1137" y="1720" type="line"/>
      <point x="1137" y="762" type="line"/>
      <point x="1053" y="945"/>
      <point x="881" y="1056"/>
      <point x="677" y="1056" type="curve" smooth="yes"/>
      <point x="385" y="1056"/>
      <point x="165" y="827"/>
    </contour>
  </outline>
</glyph>
<glyph name="e" format="2">
  <advance width="1358"/>
  <unicode hex="0065"/>
  <anchor x="708" y="0" name="bottom"/>
  <anchor x="718" y="0" name="ogonek"/>
  <anchor x="688" y="1026" name="top"/>
  <outline>
    <contour>
      <point x="708" y="-32" type="curve" smooth="yes"/>
      <point x="905" y="-32"/>
      <point x="1074" y="57"/>
      <point x="1172" y="212" type="curve"/>
      <point x="1128" y="240" type="line"/>
      <point x="1042" y="101"/>
      <point x="888" y="20"/>
      <point x="708" y="20" type="curve" smooth="yes"/>
      <point x="421" y="20"/>
      <point x="214" y="227"/>
      <point x="214" y="512" type="curve"/>
      <point x="1213" y="512" type="line"/>
      <point x="1214" y="519"/>
      <point x="1214" y="524"/>
      <point x="1214" y="529" type="curve"/>
      <point x="1210" y="798"/>
      <point x="995" y="1056"/>
      <point x="687" y="1056" type="curve" smooth="yes"/>
      <point x="402" y="1056"/>
      <point x="160" y="817"/>
      <point x="160" y="505" type="curve" smooth="yes"/>
      <point x="160" y="203"/>
      <point x="387" y="-32"/>
    </contour>
    <contour>
      <point x="216" y="562" type="line"/>
      <point x="240" y="813"/>
      <point x="444" y="1004"/>
      <point x="688" y="1004" type="curve" smooth="yes"/>
      <point x="931" y="1004"/>
      <point x="1134" y="814"/>
      <point x="1158" y="562" type="curve"/>
    </contour>
  </outline>
</glyph>
<glyph name="f" format="2">
  <advance width="670"/>
  <unicode hex="0066"/>
  <anchor x="270" y="0" name="bottom"/>
  <anchor x="474" y="1720" name="top"/>
  <outline>
    <contour>
      <point x="298" y="0" type="line"/>
      <point x="298" y="982" type="line"/>
      <point x="570" y="982" type="line"/>
      <point x="570" y="1024" type="line"/>
      <point x="298" y="1024" type="line"/>
      <point x="298" y="1464" type="line" smooth="yes"/>
      <point x="298" y="1621"/>
      <point x="368" y="1702"/>
      <point x="472" y="1702" type="curve" smooth="yes"/>
      <point x="521" y="1702"/>
      <point x="575" y="1684"/>
      <point x="612" y="1632" type="curve"/>
      <point x="648" y="1658" type="line"/>
      <point x="597" y="1728"/>
      <point x="532" y="1750"/>
      <point x="467" y="1750" type="curve" smooth="yes"/>
      <point x="330" y="1750"/>
      <point x="242" y="1652"/>
      <point x="242" y="1454" type="curve" smooth="yes"/>
      <point x="242" y="1024" type="line"/>
      <point x="158" y="1024" type="line"/>
      <point x="158" y="982" type="line"/>
      <point x="242" y="982" type="line"/>
      <point x="242" y="0" type="line"/>
    </contour>
  </outline>
</glyph>
<glyph name="g" format="2">
  <advance width="1429"/>
  <unicode hex="0067"/>
  <anchor x="682" y="-520" name="bottom"/>
  <anchor x="682" y="1024" name="top"/>
  <outline>
    <contour>
      <point x="166" y="512" type="curve" smooth="yes"/>
      <point x="166" y="197"/>
      <point x="386" y="-32"/>
      <point x="678" y="-32" type="curve" smooth="yes"/>
      <point x="882" y="-32"/>
      <point x="1054" y="79"/>
      <point x="1138" y="262" type="curve"/>
      <point x="1138" y="-48" type="line" smooth="yes"/>
      <point x="1138" y="-341"/>
      <point x="932" y="-504"/>
      <point x="664" y="-504" type="curve" smooth="yes"/>
      <point x="447" y="-504"/>
      <point x="270" y="-398"/>
      <point x="202" y="-232" type="curve"/>
      <point x="150" y="-252" type="line"/>
      <point x="238" y="-446"/>
      <point x="414" y="-550"/>
      <point x="662" y="-550" type="curve" smooth="yes"/>
      <point x="972" y="-550"/>
      <point x="1194" y="-388"/>
      <point x="1194" y="-28" type="curve" smooth="yes"/>
      <point x="1194" y="1024" type="line"/>
      <point x="1138" y="1024" type="line"/>
      <point x="1138" y="762" type="line"/>
      <point x="1054" y="945"/>
      <point x="882" y="1056" name=".hr01"/>
      <point x="678" y="1056" type="curve" smooth="yes"/>
      <point x="386" y="1056"/>
      <point x="166" y="827"/>
    </contour>
    <contour>
      <point x="220" y="512" type="curve" smooth="yes"/>
      <point x="220" y="799"/>
      <point x="413" y="1004"/>
      <point x="682" y="1004" type="curve" smooth="yes"/>
      <point x="951" y="1004"/>
      <point x="1144" y="800"/>
      <point x="1144" y="512" type="curve" smooth="yes"/>
      <point x="1144" y="225"/>
      <point x="951" y="20"/>
      <point x="682" y="20" type="curve" smooth="yes"/>
      <point x="413" y="20"/>
      <point x="220" y="225"/>
    </contour>
  </outline>
</glyph>
<glyph name="h" format="2">
  <advance width="1228"/>
  <unicode hex="0068"/>
  <anchor x="614" y="0" name="bottom"/>
  <anchor x="614" y="860" name="center"/>
  <anchor x="614" y="1720" name="top"/>
  <outline>
    <contour>
      <point x="291" y="0" type="line"/>
      <point x="291" y="702" type="line" smooth="yes"/>
      <point x="291" y="858"/>
      <point x="416" y="1006"/>
      <point x="633" y="1006" type="curve" smooth="yes"/>
      <point x="838" y="1006"/>
      <point x="955" y="874"/>
      <point x="955" y="627" type="curve" smooth="yes"/>
      <point x="955" y="0" type="line"/>
      <point x="1011" y="0" type="line"/>
      <point x="1011" y="634" type="line" smooth="yes"/>
      <point x="1011" y="910"/>
      <point x="875" y="1056"/>
      <point x="636" y="1056" type="curve" smooth="yes"/>
      <point x="452" y="1056"/>
      <point x="333" y="970"/>
      <point x="291" y="870" type="curve"/>
      <point x="291" y="1720" type="line"/>
      <point x="235" y="1720" type="line"/>
      <point x="235" y="0" type="line"/>
    </contour>
  </outline>
</glyph>
<glyph name="i" format="2">
  <advance width="523"/>
  <unicode hex="0069"/>
  <anchor x="263" y="0" name="bottom"/>
  <anchor x="290" y="0" name="ogonek"/>
  <outline>
    <component base="idotless" xOffset="-1"/>
    <contour>
      <point x="262" y="1224" type="curve" smooth="yes"/>
      <point x="289" y="1224"/>
      <point x="309" y="1245"/>
      <point x="309" y="1272" type="curve" smooth="yes"/>
      <point x="309" y="1299"/>
      <point x="289" y="1319"/>
      <point x="262" y="1319" type="curve" smooth="yes"/>
      <point x="235" y="1319"/>
      <point x="214" y="1299"/>
      <point x="214" y="1272" type="curve" smooth="yes"/>
      <point x="214" y="1245"/>
      <point x="235" y="1224"/>
    </contour>
  </outline>
</glyph>
<glyph name="j" format="2">
  <advance width="527"/>
  <unicode hex="006A"/>
  <outline>
    <contour>
      <point x="67" y="-550" type="curve" smooth="yes"/>
      <point x="204" y="-550"/>
      <point x="292" y="-452"/>
      <point x="292" y="-254" type="curve" smooth="yes"/>
      <point x="292" y="1024" type="line"/>
      <point x="236" y="1024" type="line"/>
      <point x="236" y="-264" type="line" smooth="yes"/>
      <point x="236" y="-421"/>
      <point x="166" y="-502"/>
      <point x="62" y="-502" type="curve" smooth="yes"/>
      <point x="13" y="-502"/>
      <point x="-41" y="-484"/>
      <point x="-78" y="-432" type="curve"/>
      <point x="-114" y="-458" type="line"/>
      <point x="-63" y="-528"/>
      <point x="2" y="-550"/>
    </contour>
    <contour>
      <point x="264" y="1226" type="curve" smooth="yes"/>
      <point x="290" y="1226"/>
      <point x="312" y="1248"/>
      <point x="312" y="1274" type="curve" smooth="yes" name=".hr01"/>
      <point x="312" y="1300"/>
      <point x="290" y="1322"/>
      <point x="264" y="1322" type="curve" smooth="yes"/>
      <point x="238" y="1322"/>
      <point x="216" y="1300"/>
      <point x="216" y="1274" type="curve" smooth="yes"/>
      <point x="216" y="1248"/>
      <point x="238" y="1226"/>
    </contour>
  </outline>
</glyph>
<glyph name="k" format="2">
  <advance width="994"/>
  <unicode hex="006B"/>
  <anchor x="497" y="0" name="bottom"/>
  <anchor x="497" y="1720" name="top"/>
  <outline>
    <contour>
      <point x="291" y="0" type="line"/>
      <point x="291" y="531" type="line"/>
      <point x="745" y="0" type="line"/>
      <point x="817" y="0" type="line"/>
      <point x="344" y="554" type="line"/>
      <point x="791" y="1024" type="line"/>
      <point x="717" y="1024" type="line"/>
      <point x="291" y="580" type="line"/>
      <point x="291" y="1720" type="line"/>
      <point x="235" y="1720" type="line"/>
      <point x="235" y="0" type="line"/>
    </contour>
  </outline>
</glyph>
<glyph name="l" format="2">
  <advance width="526"/>
  <unicode hex="006C"/>
  <anchor x="263" y="0" name="bottom"/>
  <anchor x="263" y="860" name="center"/>
  <anchor x="263" y="1720" name="top"/>
  <anchor x="291" y="1720" name="topright"/>
  <outline>
    <contour>
      <point x="291" y="0" type="line"/>
      <point x="291" y="1720" type="line"/>
      <point x="235" y="1720" type="line"/>
      <point x="235" y="0" type="line"/>
    </contour>
  </outline>
</glyph>
<glyph name="m" format="2">
  <advance width="1792"/>
  <unicode hex="006D"/>
  <anchor x="1013" y="0" name="bottom"/>
  <anchor x="1003" y="1026" name="top"/>
  <outline>
    <contour>
      <point x="235" y="1024" type="line"/>
      <point x="235" y="0" type="line"/>
      <point x="291" y="0" type="line"/>
      <point x="291" y="642" type="line" smooth="yes"/>
      <point x="291" y="859"/>
      <point x="430" y="1006" name=".hr01"/>
      <point x="605" y="1006" type="curve" smooth="yes"/>
      <point x="768" y="1006"/>
      <point x="877" y="877"/>
      <point x="877" y="672" type="curve" smooth="yes"/>
      <point x="877" y="0" type="line"/>
      <point x="933" y="0" type="line"/>
      <point x="933" y="642" type="line" smooth="yes"/>
      <point x="933" y="859"/>
      <point x="1072" y="1006"/>
      <point x="1247" y="1006" type="curve" smooth="yes"/>
      <point x="1410" y="1006"/>
      <point x="1519" y="877"/>
      <point x="1519" y="652" type="curve" smooth="yes"/>
      <point x="1519" y="0" type="line"/>
      <point x="1575" y="0" type="line"/>
      <point x="1575" y="670" type="line" smooth="yes"/>
      <point x="1575" y="914"/>
      <point x="1439" y="1056"/>
      <point x="1250" y="1056" type="curve" smooth="yes"/>
      <point x="1083" y="1056"/>
      <point x="951" y="946"/>
      <point x="918" y="789" type="curve"/>
      <point x="885" y="955"/>
      <point x="767" y="1056"/>
      <point x="608" y="1056" type="curve" smooth="yes"/>
      <point x="460" y="1056"/>
      <point x="339" y="969"/>
      <point x="291" y="840" type="curve"/>
      <point x="291" y="1024" type="line" name=".hr02"/>
    </contour>
  </outline>
</glyph>
<glyph name="n" format="2">
  <advance width="1228"/>
  <unicode hex="006E"/>
  <anchor x="633" y="0" name="bottom"/>
  <anchor x="633" y="1014" name="top"/>
  <outline>
    <contour>
      <point x="291" y="0" type="line"/>
      <point x="291" y="622" type="line" smooth="yes"/>
      <point x="291" y="828"/>
      <point x="416" y="1004"/>
      <point x="643" y="1004" type="curve" smooth="yes"/>
      <point x="843" y="1004"/>
      <point x="955" y="868"/>
      <point x="955" y="627" type="curve" smooth="yes"/>
      <point x="955" y="0" type="line"/>
      <point x="1011" y="0" type="line"/>
      <point x="1011" y="634" type="line" smooth="yes"/>
      <point x="1011" y="903"/>
      <point x="881" y="1056"/>
      <point x="651" y="1056" type="curve" smooth="yes"/>
      <point x="452" y="1056"/>
      <point x="333" y="940"/>
      <point x="291" y="820" type="curve"/>
      <point x="291" y="1024" type="line" name=".hr01"/>
      <point x="235" y="1024" type="line"/>
      <point x="235" y="0" type="line"/>
    </contour>
  </outline>
</glyph>
<glyph name="o" format="2">
  <advance width="1422"/>
  <unicode hex="006F"/>
  <anchor x="711" y="0" name="bottom"/>
  <anchor x="711" y="512" name="center"/>
  <anchor x="721" y="0" name="ogonek"/>
  <anchor x="711" y="1024" name="top"/>
  <outline>
    <contour>
      <point x="711" y="-32" type="curve" smooth="yes"/>
      <point x="1021" y="-32"/>
      <point x="1259" y="190"/>
      <point x="1259" y="512" type="curve" smooth="yes"/>
      <point x="1259" y="834"/>
      <point x="1021" y="1056"/>
      <point x="711" y="1056" type="curve" smooth="yes"/>
      <point x="401" y="1056"/>
      <point x="163" y="834"/>
      <point x="163" y="512" type="curve" smooth="yes"/>
      <point x="163" y="190"/>
      <point x="401" y="-32"/>
    </contour>
    <contour>
      <point x="711" y="24" type="curve" smooth="yes"/>
      <point x="425" y="24"/>
      <point x="219" y="228"/>
      <point x="219" y="512" type="curve" smooth="yes"/>
      <point x="219" y="796"/>
      <point x="425" y="1000"/>
      <point x="711" y="1000" type="curve" smooth="yes"/>
      <point x="997" y="1000"/>
      <point x="1203" y="796"/>
      <point x="1203" y="512" type="curve" smooth="yes"/>
      <point x="1203" y="228"/>
      <point x="997" y="24"/>
    </contour>
  </outline>
</glyph>
<glyph name="p" format="2">
  <advance width="1428"/>
  <unicode hex="0070"/>
  <anchor x="749" y="0" name="bottom"/>
  <anchor x="749" y="1024" name="top"/>
  <outline>
    <contour>
      <point x="1209" y="512" type="curve" smooth="yes"/>
      <point x="1209" y="225"/>
      <point x="1016" y="20"/>
      <point x="747" y="20" type="curve" smooth="yes"/>
      <point x="478" y="20"/>
      <point x="285" y="225"/>
      <point x="285" y="512" type="curve" smooth="yes"/>
      <point x="285" y="800"/>
      <point x="478" y="1004"/>
      <point x="747" y="1004" type="curve" smooth="yes"/>
      <point x="1016" y="1004"/>
      <point x="1209" y="799"/>
    </contour>
    <contour>
      <point x="1263" y="512" type="curve" smooth="yes"/>
      <point x="1263" y="827"/>
      <point x="1043" y="1056"/>
      <point x="751" y="1056" type="curve" smooth="yes"/>
      <point x="547" y="1056"/>
      <point x="375" y="945"/>
      <point x="291" y="762" type="curve"/>
      <point x="291" y="1024" type="line"/>
      <point x="235" y="1024" type="line"/>
      <point x="235" y="-520" type="line"/>
      <point x="291" y="-520" type="line"/>
      <point x="291" y="262" type="line"/>
      <point x="375" y="79"/>
      <point x="547" y="-32"/>
      <point x="751" y="-32" type="curve" smooth="yes"/>
      <point x="1043" y="-32"/>
      <point x="1263" y="197"/>
    </contour>
  </outline>
</glyph>
<glyph name="q" format="2">
  <advance width="1389"/>
  <unicode hex="0071"/>
  <anchor x="695" y="0" name="bottom"/>
  <anchor x="660" y="1024" name="top"/>
  <outline>
    <contour>
      <point x="200" y="512" type="curve" smooth="yes"/>
      <point x="200" y="799"/>
      <point x="393" y="1004"/>
      <point x="662" y="1004" type="curve" smooth="yes"/>
      <point x="931" y="1004"/>
      <point x="1124" y="800"/>
      <point x="1124" y="512" type="curve" smooth="yes"/>
      <point x="1124" y="225"/>
      <point x="931" y="20"/>
      <point x="662" y="20" type="curve" smooth="yes"/>
      <point x="393" y="20"/>
      <point x="200" y="225"/>
    </contour>
    <contour>
      <point x="146" y="512" type="curve" smooth="yes"/>
      <point x="146" y="197"/>
      <point x="366" y="-32"/>
      <point x="658" y="-32" type="curve" smooth="yes"/>
      <point x="862" y="-32"/>
      <point x="1034" y="79"/>
      <point x="1118" y="262" type="curve"/>
      <point x="1118" y="-520" type="line"/>
      <point x="1174" y="-520" type="line"/>
      <point x="1174" y="1024" type="line"/>
      <point x="1118" y="1024" type="line" name=".hr01"/>
      <point x="1118" y="762" type="line"/>
      <point x="1034" y="945"/>
      <point x="862" y="1056"/>
      <point x="658" y="1056" type="curve" smooth="yes" name=".hr02"/>
      <point x="366" y="1056"/>
      <point x="146" y="827"/>
    </contour>
  </outline>
</glyph>
<glyph name="r" format="2">
  <advance width="832"/>
  <unicode hex="0072"/>
  <anchor x="416" y="0" name="bottom"/>
  <anchor x="469" y="1024" name="top"/>
  <outline>
    <contour>
      <point x="291" y="0" type="line"/>
      <point x="291" y="734" type="line" smooth="yes"/>
      <point x="291" y="873"/>
      <point x="410" y="1006"/>
      <point x="589" y="1006" type="curve" smooth="yes"/>
      <point x="633" y="1006"/>
      <point x="682" y="998"/>
      <point x="719" y="984" type="curve"/>
      <point x="741" y="1032" type="line"/>
      <point x="699" y="1047"/>
      <point x="644" y="1056"/>
      <point x="589" y="1056" type="curve" smooth="yes"/>
      <point x="447" y="1056"/>
      <point x="348" y="994"/>
      <point x="291" y="870" type="curve"/>
      <point x="291" y="1024" type="line" name=".hr01"/>
      <point x="235" y="1024" type="line"/>
      <point x="235" y="0" type="line"/>
    </contour>
  </outline>
</glyph>
<glyph name="s" format="2">
  <advance width="973"/>
  <unicode hex="0073"/>
  <anchor x="490" y="0" name="bottom"/>
  <anchor x="473" y="1024" name="top"/>
  <outline>
    <contour>
      <point x="491" y="-32" type="curve" smooth="yes"/>
      <point x="687" y="-32"/>
      <point x="824" y="67"/>
      <point x="824" y="251" type="curve" smooth="yes"/>
      <point x="824" y="443"/>
      <point x="672" y="518"/>
      <point x="479" y="592" type="curve" smooth="yes"/>
      <point x="339" y="646"/>
      <point x="236" y="685"/>
      <point x="236" y="808" type="curve" smooth="yes"/>
      <point x="236" y="925"/>
      <point x="329" y="1006"/>
      <point x="473" y="1006" type="curve" smooth="yes"/>
      <point x="585" y="1006"/>
      <point x="664" y="957"/>
      <point x="710" y="864" type="curve"/>
      <point x="754" y="885" type="line"/>
      <point x="705" y="994"/>
      <point x="602" y="1056"/>
      <point x="473" y="1056" type="curve" smooth="yes"/>
      <point x="303" y="1056"/>
      <point x="184" y="950"/>
      <point x="184" y="809" type="curve" smooth="yes"/>
      <point x="184" y="653"/>
      <point x="328" y="591"/>
      <point x="462" y="540" type="curve" smooth="yes"/>
      <point x="640" y="472"/>
      <point x="774" y="410"/>
      <point x="774" y="252" type="curve" smooth="yes"/>
      <point x="774" y="93"/>
      <point x="641" y="18"/>
      <point x="490" y="18" type="curve" smooth="yes"/>
      <point x="352" y="18"/>
      <point x="235" y="76"/>
      <point x="174" y="212" type="curve"/>
      <point x="130" y="192" type="line"/>
      <point x="201" y="29"/>
      <point x="341" y="-32"/>
    </contour>
  </outline>
</glyph>
<glyph name="t" format="2">
  <advance width="681"/>
  <unicode hex="0074"/>
  <anchor x="426" y="0" name="bottom"/>
  <anchor x="341" y="513" name="center"/>
  <anchor x="351" y="1406" name="top"/>
  <anchor x="661" y="1024" name="topright"/>
  <outline>
    <contour>
      <point x="432" y="-32" type="curve" smooth="yes"/>
      <point x="491" y="-32"/>
      <point x="546" y="-11"/>
      <point x="578" y="17" type="curve"/>
      <point x="552" y="50" type="line"/>
      <point x="524" y="29"/>
      <point x="481" y="16"/>
      <point x="441" y="16" type="curve" smooth="yes"/>
      <point x="346" y="16"/>
      <point x="294" y="89"/>
      <point x="294" y="222" type="curve" smooth="yes"/>
      <point x="294" y="982" type="line"/>
      <point x="566" y="982" type="line"/>
      <point x="566" y="1024" type="line"/>
      <point x="294" y="1024" type="line"/>
      <point x="294" y="1406" type="line"/>
      <point x="238" y="1406" type="line"/>
      <point x="238" y="1024" type="line"/>
      <point x="152" y="1024" type="line"/>
      <point x="152" y="982" type="line"/>
      <point x="238" y="982" type="line"/>
      <point x="238" y="222" type="line" smooth="yes"/>
      <point x="238" y="60"/>
      <point x="309" y="-32"/>
    </contour>
  </outline>
</glyph>
<glyph name="u" format="2">
  <advance width="1198"/>
  <unicode hex="0075"/>
  <anchor x="599" y="0" name="bottom"/>
  <anchor x="609" y="0" name="ogonek"/>
  <anchor x="599" y="1024" name="top"/>
  <outline>
    <contour>
      <point x="599" y="-32" type="curve" smooth="yes"/>
      <point x="867" y="-32"/>
      <point x="979" y="100"/>
      <point x="979" y="414" type="curve" smooth="yes"/>
      <point x="979" y="1024" type="line"/>
      <point x="923" y="1024" type="line"/>
      <point x="923" y="414" type="line" smooth="yes"/>
      <point x="923" y="131"/>
      <point x="832" y="20"/>
      <point x="599" y="20" type="curve" smooth="yes"/>
      <point x="366" y="20"/>
      <point x="275" y="131"/>
      <point x="275" y="414" type="curve" smooth="yes"/>
      <point x="275" y="1024" type="line"/>
      <point x="219" y="1024" type="line"/>
      <point x="219" y="414" type="line" smooth="yes"/>
      <point x="219" y="100"/>
      <point x="331" y="-32"/>
    </contour>
  </outline>
</glyph>
<glyph name="v" format="2">
  <advance width="1198"/>
  <unicode hex="0076"/>
  <anchor x="599" y="0" name="bottom"/>
  <anchor x="599" y="1026" name="top"/>
  <outline>
    <contour>
      <point x="617" y="0" type="line"/>
      <point x="1090" y="1024" type="line"/>
      <point x="1026" y="1024" type="line"/>
      <point x="599" y="98" type="line"/>
      <point x="172" y="1024" type="line"/>
      <point x="108" y="1024" type="line"/>
      <point x="581" y="0" type="line"/>
    </contour>
  </outline>
</glyph>
<glyph name="w" format="2">
  <advance width="1946"/>
  <unicode hex="0077"/>
  <anchor x="973" y="0" name="bottom"/>
  <anchor x="973" y="1026" name="top"/>
  <outline>
    <contour>
      <point x="617" y="0" type="line"/>
      <point x="973" y="913" type="line"/>
      <point x="1329" y="0" type="line"/>
      <point x="1365" y="0" type="line"/>
      <point x="1838" y="1024" type="line"/>
      <point x="1774" y="1024" type="line"/>
      <point x="1347" y="98" type="line"/>
      <point x="991" y="1024" type="line"/>
      <point x="955" y="1024" type="line"/>
      <point x="599" y="98" type="line"/>
      <point x="172" y="1024" type="line"/>
      <point x="108" y="1024" type="line"/>
      <point x="581" y="0" type="line"/>
    </contour>
  </outline>
</glyph>
<glyph name="x" format="2">
  <advance width="1148"/>
  <unicode hex="0078"/>
  <anchor x="574" y="0" name="bottom"/>
  <anchor x="574" y="1024" name="top"/>
  <outline>
    <contour>
      <point x="166" y="0" type="line"/>
      <point x="574" y="498" type="line"/>
      <point x="982" y="0" type="line"/>
      <point x="1046" y="0" type="line"/>
      <point x="616" y="524" type="line"/>
      <point x="989" y="1024" type="line"/>
      <point x="927" y="1024" type="line"/>
      <point x="574" y="557" type="line"/>
      <point x="221" y="1024" type="line"/>
      <point x="159" y="1024" type="line"/>
      <point x="532" y="524" type="line"/>
      <point x="102" y="0" type="line"/>
    </contour>
  </outline>
</glyph>
<glyph name="y" format="2">
  <advance width="1216"/>
  <unicode hex="0079"/>
  <anchor x="609" y="0" name="bottom"/>
  <anchor x="608" y="1024" name="top"/>
  <outline>
    <contour>
      <point x="447" y="-520" type="line"/>
      <point x="1107" y="1024" type="line"/>
      <point x="1045" y="1024" type="line"/>
      <point x="625" y="36" type="line"/>
      <point x="170" y="1024" type="line"/>
      <point x="108" y="1024" type="line"/>
      <point x="595" y="-32" type="line"/>
      <point x="387" y="-520" type="line"/>
    </contour>
  </outline>
</glyph>
<glyph name="z" format="2">
  <advance width="1204"/>
  <unicode hex="007A"/>
  <anchor x="602" y="0" name="bottom"/>
  <anchor x="602" y="1024" name="top"/>
  <outline>
    <contour>
      <point x="1076" y="0" type="line"/>
      <point x="1076" y="56" type="line"/>
      <point x="226" y="56" type="line"/>
      <point x="1092" y="1024" type="line"/>
      <point x="176" y="1024" type="line"/>
      <point x="176" y="968" type="line"/>
      <point x="966" y="968" type="line"/>
      <point x="102" y="0" type="line"/>
    </contour>
  </outline>
</glyph>
<glyph name="braceleft" format="2">
  <advance width="766"/>
  <unicode hex="007B"/>
  <outline>
    <contour>
      <point x="620" y="-520" type="line"/>
      <point x="620" y="-464" type="line"/>
      <point x="590" y="-464" type="line" smooth="yes"/>
      <point x="408" y="-464"/>
      <point x="328" y="-354"/>
      <point x="328" y="-158" type="curve" smooth="yes"/>
      <point x="328" y="524" type="line" smooth="yes"/>
      <point x="328" y="564"/>
      <point x="320" y="588"/>
      <point x="300" y="600" type="curve"/>
      <point x="320" y="612"/>
      <point x="328" y="636"/>
      <point x="328" y="676" type="curve" smooth="yes"/>
      <point x="328" y="1358" type="line" smooth="yes"/>
      <point x="328" y="1554"/>
      <point x="408" y="1664"/>
      <point x="590" y="1664" type="curve" smooth="yes"/>
      <point x="620" y="1664" type="line"/>
      <point x="620" y="1720" type="line"/>
      <point x="590" y="1720" type="line" smooth="yes"/>
      <point x="334" y="1720"/>
      <point x="272" y="1524"/>
      <point x="272" y="1358" type="curve" smooth="yes"/>
      <point x="272" y="710" type="line" smooth="yes"/>
      <point x="272" y="648"/>
      <point x="252" y="624"/>
      <point x="206" y="624" type="curve"/>
      <point x="206" y="576" type="line"/>
      <point x="252" y="576"/>
      <point x="272" y="552"/>
      <point x="272" y="490" type="curve" smooth="yes"/>
      <point x="272" y="-158" type="line" smooth="yes"/>
      <point x="272" y="-324"/>
      <point x="334" y="-520"/>
      <point x="590" y="-520" type="curve" smooth="yes"/>
    </contour>
  </outline>
</glyph>
<glyph name="bar" format="2">
  <advance width="760"/>
  <unicode hex="007C"/>
  <outline>
    <contour>
      <point x="408" y="0" type="line"/>
      <point x="408" y="1720" type="line"/>
      <point x="352" y="1720" type="line"/>
      <point x="352" y="0" type="line"/>
    </contour>
  </outline>
</glyph>
<glyph name="asciitilde" format="2">
  <advance width="1540"/>
  <unicode hex="007E"/>
  <outline>
    <contour>
      <point x="290" y="764" type="curve"/>
      <point x="332" y="738" type="line"/>
      <point x="381" y="818"/>
      <point x="459" y="886"/>
      <point x="568" y="886" type="curve" smooth="yes"/>
      <point x="735" y="886"/>
      <point x="783" y="726"/>
      <point x="967" y="726" type="curve" smooth="yes"/>
      <point x="1079" y="726"/>
      <point x="1178" y="785"/>
      <point x="1246" y="898" type="curve"/>
      <point x="1204" y="924" type="line"/>
      <point x="1147" y="829"/>
      <point x="1063" y="776"/>
      <point x="967" y="776" type="curve" smooth="yes"/>
      <point x="801" y="776"/>
      <point x="753" y="936"/>
      <point x="568" y="936" type="curve" smooth="yes"/>
      <point x="440" y="936"/>
      <point x="347" y="860"/>
    </contour>
  </outline>
</glyph>
<glyph name="cent" format="2">
  <advance width="1433"/>
  <unicode hex="00A2"/>
  <outline>
    <component base="c" xOffset="113"/>
    <contour>
      <point x="752" y="1272" type="line"/>
      <point x="752" y="1024" type="line"/>
      <point x="796" y="1024" type="line"/>
      <point x="796" y="1272" type="line"/>
    </contour>
    <contour>
      <point x="796" y="0" type="line"/>
      <point x="796" y="-258" type="line"/>
      <point x="842" y="-258" type="line" name=".hr01"/>
      <point x="842" y="0" type="line"/>
    </contour>
  </outline>
</glyph>
<glyph name="sterling" format="2">
  <advance width="1784"/>
  <unicode hex="00A3"/>
  <outline>
    <contour>
      <point x="1173" y="-30" type="curve" smooth="yes"/>
      <point x="1370" y="-30"/>
      <point x="1506" y="110"/>
      <point x="1534" y="278" type="curve"/>
      <point x="1482" y="304" type="line"/>
      <point x="1466" y="167"/>
      <point x="1366" y="22"/>
      <point x="1180" y="22" type="curve" smooth="yes"/>
      <point x="973" y="22"/>
      <point x="829" y="204"/>
      <point x="637" y="204" type="curve"/>
      <point x="674" y="289"/>
      <point x="688" y="375"/>
      <point x="688" y="443" type="curve" smooth="yes"/>
      <point x="688" y="527"/>
      <point x="667" y="583"/>
      <point x="632" y="644" type="curve"/>
      <point x="1160" y="644" type="line"/>
      <point x="1160" y="690" type="line"/>
      <point x="606" y="690" type="line"/>
      <point x="534" y="806"/>
      <point x="438" y="925"/>
      <point x="438" y="1138" type="curve" smooth="yes"/>
      <point x="438" y="1433"/>
      <point x="624" y="1636"/>
      <point x="920" y="1636" type="curve" smooth="yes"/>
      <point x="1222" y="1636"/>
      <point x="1373" y="1425"/>
      <point x="1408" y="1242" type="curve"/>
      <point x="1458" y="1252" type="line"/>
      <point x="1398" y="1530"/>
      <point x="1173" y="1680"/>
      <point x="917" y="1680" type="curve" smooth="yes"/>
      <point x="610" y="1680"/>
      <point x="386" y="1465"/>
      <point x="386" y="1140" type="curve" smooth="yes"/>
      <point x="386" y="939"/>
      <point x="471" y="808"/>
      <point x="554" y="690" type="curve"/>
      <point x="246" y="690" type="line"/>
      <point x="246" y="644" type="line"/>
      <point x="584" y="644" type="line"/>
      <point x="616" y="588"/>
      <point x="642" y="531"/>
      <point x="642" y="442" type="curve" smooth="yes"/>
      <point x="642" y="357"/>
      <point x="620" y="267"/>
      <point x="594" y="202" type="curve"/>
      <point x="440" y="190"/>
      <point x="324" y="94"/>
      <point x="312" y="0" type="curve"/>
      <point x="365" y="0" type="line"/>
      <point x="381" y="92"/>
      <point x="504" y="156"/>
      <point x="622" y="156" type="curve" smooth="yes"/>
      <point x="824" y="156"/>
      <point x="944" y="-30"/>
    </contour>
  </outline>
</glyph>
<glyph name="currency" format="2">
  <advance width="1220"/>
  <unicode hex="00A4"/>
  <outline>
    <contour>
      <point x="307" y="330" type="line"/>
      <point x="387" y="257"/>
      <point x="493" y="213"/>
      <point x="610" y="213" type="curve" smooth="yes"/>
      <point x="727" y="213"/>
      <point x="833" y="257"/>
      <point x="913" y="330" type="curve"/>
      <point x="1046" y="197" type="line"/>
      <point x="1076" y="227" type="line"/>
      <point x="943" y="360" type="line"/>
      <point x="1016" y="440"/>
      <point x="1060" y="546"/>
      <point x="1060" y="663" type="curve" smooth="yes"/>
      <point x="1060" y="780"/>
      <point x="1016" y="886"/>
      <point x="943" y="966" type="curve"/>
      <point x="1076" y="1099" type="line"/>
      <point x="1046" y="1129" type="line"/>
      <point x="913" y="996" type="line"/>
      <point x="833" y="1069"/>
      <point x="727" y="1113"/>
      <point x="610" y="1113" type="curve" smooth="yes"/>
      <point x="493" y="1113"/>
      <point x="387" y="1069"/>
      <point x="307" y="996" type="curve"/>
      <point x="174" y="1129" type="line"/>
      <point x="144" y="1099" type="line"/>
      <point x="277" y="966" type="line"/>
      <point x="204" y="886"/>
      <point x="160" y="780"/>
      <point x="160" y="663" type="curve" smooth="yes"/>
      <point x="160" y="546"/>
      <point x="204" y="440"/>
      <point x="277" y="360" type="curve"/>
      <point x="144" y="227" type="line"/>
      <point x="174" y="197" type="line"/>
    </contour>
    <contour>
      <point x="610" y="255" type="curve" smooth="yes"/>
      <point x="384" y="255"/>
      <point x="202" y="437"/>
      <point x="202" y="663" type="curve" smooth="yes"/>
      <point x="202" y="889"/>
      <point x="384" y="1071"/>
      <point x="610" y="1071" type="curve" smooth="yes"/>
      <point x="836" y="1071"/>
      <point x="1018" y="889"/>
      <point x="1018" y="663" type="curve" smooth="yes"/>
      <point x="1018" y="437"/>
      <point x="836" y="255"/>
    </contour>
  </outline>
</glyph>
<glyph name="yen" format="2">
  <advance width="1622"/>
  <unicode hex="00A5"/>
  <outline>
    <component base="Y" xOffset="80"/>
    <contour>
      <point x="400" y="742" type="line"/>
      <point x="400" y="696" type="line"/>
      <point x="1222" y="696" type="line"/>
      <point x="1222" y="742" type="line"/>
    </contour>
    <contour>
      <point x="400" y="406" type="line"/>
      <point x="400" y="360" type="line"/>
      <point x="1222" y="360" type="line"/>
      <point x="1222" y="406" type="line"/>
    </contour>
  </outline>
</glyph>
<glyph name="brokenbar" format="2">
  <advance width="760"/>
  <unicode hex="00A6"/>
  <outline>
    <contour>
      <point x="408" y="1056" type="line"/>
      <point x="408" y="1720" type="line"/>
      <point x="352" y="1720" type="line"/>
      <point x="352" y="1056" type="line"/>
    </contour>
    <contour>
      <point x="408" y="0" type="line"/>
      <point x="408" y="664" type="line"/>
      <point x="352" y="664" type="line"/>
      <point x="352" y="0" type="line"/>
    </contour>
  </outline>
</glyph>
<glyph name="section" format="2">
  <advance width="1492"/>
  <unicode hex="00A7"/>
  <outline>
    <contour>
      <point x="766" y="-550" type="curve" smooth="yes"/>
      <point x="1031" y="-550"/>
      <point x="1238" y="-369"/>
      <point x="1238" y="-104" type="curve" smooth="yes"/>
      <point x="1238" y="39"/>
      <point x="1178" y="152"/>
      <point x="1050" y="242" type="curve"/>
      <point x="1157" y="287"/>
      <point x="1231" y="397"/>
      <point x="1231" y="510" type="curve" smooth="yes"/>
      <point x="1231" y="735"/>
      <point x="940" y="830"/>
      <point x="750" y="901" type="curve" smooth="yes"/>
      <point x="567" y="970"/>
      <point x="379" y="1039"/>
      <point x="379" y="1260" type="curve" smooth="yes"/>
      <point x="379" y="1461"/>
      <point x="535" y="1623"/>
      <point x="744" y="1623" type="curve" smooth="yes"/>
      <point x="898" y="1623"/>
      <point x="1043" y="1535"/>
      <point x="1090" y="1413" type="curve"/>
      <point x="1142" y="1436" type="line"/>
      <point x="1084" y="1573"/>
      <point x="929" y="1680"/>
      <point x="745" y="1680" type="curve" smooth="yes"/>
      <point x="509" y="1680"/>
      <point x="322" y="1504"/>
      <point x="322" y="1261" type="curve" smooth="yes"/>
      <point x="322" y="1126"/>
      <point x="380" y="1024"/>
      <point x="500" y="945" type="curve"/>
      <point x="400" y="907"/>
      <point x="326" y="795"/>
      <point x="326" y="678" type="curve" smooth="yes"/>
      <point x="326" y="477"/>
      <point x="544" y="391"/>
      <point x="716" y="327" type="curve" smooth="yes"/>
      <point x="989" y="225"/>
      <point x="1179" y="142"/>
      <point x="1179" y="-103" type="curve" smooth="yes"/>
      <point x="1179" y="-343"/>
      <point x="997" y="-493"/>
      <point x="766" y="-493" type="curve" smooth="yes"/>
      <point x="550" y="-493"/>
      <point x="345" y="-361"/>
      <point x="274" y="-169" type="curve"/>
      <point x="224" y="-192" type="line"/>
      <point x="272" y="-353"/>
      <point x="490" y="-550"/>
    </contour>
    <contour>
      <point x="998" y="268" type="curve"/>
      <point x="899" y="321"/>
      <point x="887" y="329"/>
      <point x="746" y="379" type="curve" smooth="yes"/>
      <point x="516" y="461"/>
      <point x="396" y="521"/>
      <point x="396" y="673" type="curve" smooth="yes"/>
      <point x="396" y="794"/>
      <point x="471" y="895"/>
      <point x="552" y="921" type="curve"/>
      <point x="627" y="885"/>
      <point x="653" y="873"/>
      <point x="719" y="850" type="curve" smooth="yes"/>
      <point x="1053" y="735"/>
      <point x="1162" y="648"/>
      <point x="1162" y="510" type="curve" smooth="yes"/>
      <point x="1162" y="401"/>
      <point x="1093" y="302"/>
    </contour>
  </outline>
</glyph>
<glyph name="copyright" format="2">
  <advance width="2185"/>
  <unicode hex="00A9"/>
  <outline>
    <component base="c" xOffset="406" yOffset="310"/>
    <contour>
      <point x="1091" y="-32" type="curve" smooth="yes"/>
      <point x="1563" y="-32"/>
      <point x="1927" y="339"/>
      <point x="1927" y="820" type="curve" smooth="yes"/>
      <point x="1927" y="1302"/>
      <point x="1559" y="1680"/>
      <point x="1091" y="1680" type="curve" smooth="yes"/>
      <point x="627" y="1680"/>
      <point x="259" y="1300"/>
      <point x="259" y="820" type="curve" smooth="yes"/>
      <point x="259" y="336"/>
      <point x="618" y="-32"/>
    </contour>
    <contour>
      <point x="1091" y="22" type="curve" smooth="yes"/>
      <point x="651" y="22"/>
      <point x="319" y="365"/>
      <point x="319" y="820" type="curve" smooth="yes"/>
      <point x="319" y="1269"/>
      <point x="661" y="1626"/>
      <point x="1091" y="1626" type="curve" smooth="yes"/>
      <point x="1525" y="1626"/>
      <point x="1867" y="1271"/>
      <point x="1867" y="820" type="curve" smooth="yes"/>
      <point x="1867" y="369"/>
      <point x="1530" y="22"/>
    </contour>
  </outline>
</glyph>
<glyph name="ordfeminine" format="2">
  <advance width="1046"/>
  <unicode hex="00AA"/>
  <outline>
    <contour>
      <point x="496" y="1008" type="curve" smooth="yes"/>
      <point x="622" y="1008"/>
      <point x="728" y="1078"/>
      <point x="778" y="1190" type="curve"/>
      <point x="778" y="1028" type="line"/>
      <point x="812" y="1028" type="line"/>
      <point x="812" y="1660" type="line"/>
      <point x="778" y="1660" type="line"/>
      <point x="778" y="1498" type="line"/>
      <point x="728" y="1610"/>
      <point x="622" y="1680"/>
      <point x="496" y="1680" type="curve" smooth="yes"/>
      <point x="316" y="1680"/>
      <point x="178" y="1540"/>
      <point x="178" y="1344" type="curve" smooth="yes"/>
      <point x="178" y="1146"/>
      <point x="316" y="1008"/>
    </contour>
    <contour>
      <point x="496" y="1038" type="curve" smooth="yes"/>
      <point x="332" y="1038"/>
      <point x="212" y="1168"/>
      <point x="212" y="1344" type="curve" smooth="yes"/>
      <point x="212" y="1522"/>
      <point x="332" y="1650"/>
      <point x="496" y="1650" type="curve" smooth="yes"/>
      <point x="660" y="1650"/>
      <point x="778" y="1522"/>
      <point x="778" y="1344" type="curve" smooth="yes"/>
      <point x="778" y="1168"/>
      <point x="660" y="1038"/>
    </contour>
  </outline>
</glyph>
<glyph name="guillemetleft" format="2">
  <advance width="1048"/>
  <unicode hex="00AB"/>
  <outline>
    <contour>
      <point x="594" y="92" type="line"/>
      <point x="232" y="556" type="line"/>
      <point x="594" y="1020" type="line"/>
      <point x="548" y="1056" type="line"/>
      <point x="158" y="556" type="line"/>
      <point x="548" y="56" type="line"/>
    </contour>
    <contour>
      <point x="879" y="92" type="line"/>
      <point x="517" y="556" type="line"/>
      <point x="879" y="1020" type="line"/>
      <point x="833" y="1056" type="line"/>
      <point x="443" y="556" type="line"/>
      <point x="833" y="56" type="line"/>
    </contour>
  </outline>
</glyph>
<glyph name="logicalnot" format="2">
  <advance width="1482"/>
  <unicode hex="00AC"/>
  <outline>
    <contour>
      <point x="1253" y="316" type="line"/>
      <point x="1253" y="852" type="line"/>
      <point x="229" y="852" type="line"/>
      <point x="229" y="804" type="line"/>
      <point x="1205" y="804" type="line"/>
      <point x="1205" y="316" type="line"/>
    </contour>
  </outline>
</glyph>
<glyph name="registered" format="2">
  <advance width="1454"/>
  <unicode hex="00AE"/>
  <outline>
    <component base="R" xScale="0.3733" yScale="0.3733" xOffset="462" yOffset="923"/>
    <contour>
      <point x="727" y="768" type="curve" smooth="yes"/>
      <point x="981" y="768"/>
      <point x="1189" y="978"/>
      <point x="1189" y="1231" type="curve" smooth="yes"/>
      <point x="1189" y="1484"/>
      <point x="981" y="1694"/>
      <point x="727" y="1694" type="curve" smooth="yes"/>
      <point x="473" y="1694"/>
      <point x="265" y="1484"/>
      <point x="265" y="1231" type="curve" smooth="yes"/>
      <point x="265" y="978"/>
      <point x="473" y="768"/>
    </contour>
    <contour>
      <point x="727" y="798" type="curve" smooth="yes"/>
      <point x="489" y="798"/>
      <point x="295" y="994"/>
      <point x="295" y="1231" type="curve" smooth="yes"/>
      <point x="295" y="1468"/>
      <point x="489" y="1664"/>
      <point x="727" y="1664" type="curve" smooth="yes"/>
      <point x="965" y="1664"/>
      <point x="1159" y="1468"/>
      <point x="1159" y="1231" type="curve" smooth="yes"/>
      <point x="1159" y="994"/>
      <point x="965" y="798"/>
    </contour>
  </outline>
</glyph>
<glyph name="degree" format="2">
  <advance width="1036"/>
  <unicode hex="00B0"/>
  <outline>
    <contour>
      <point x="517" y="1338" type="curve" smooth="yes"/>
      <point x="637" y="1338"/>
      <point x="721" y="1424"/>
      <point x="721" y="1544" type="curve" smooth="yes"/>
      <point x="721" y="1666"/>
      <point x="631" y="1750"/>
      <point x="517" y="1750" type="curve" smooth="yes"/>
      <point x="405" y="1750"/>
      <point x="315" y="1666"/>
      <point x="315" y="1543" type="curve" smooth="yes"/>
      <point x="315" y="1427"/>
      <point x="394" y="1338"/>
    </contour>
    <contour>
      <point x="518" y="1386" type="curve" smooth="yes"/>
      <point x="425" y="1386"/>
      <point x="363" y="1450"/>
      <point x="363" y="1542" type="curve" smooth="yes"/>
      <point x="363" y="1637"/>
      <point x="429" y="1702"/>
      <point x="517" y="1702" type="curve" smooth="yes"/>
      <point x="603" y="1702"/>
      <point x="673" y="1640"/>
      <point x="673" y="1543" type="curve" smooth="yes"/>
      <point x="673" y="1451"/>
      <point x="611" y="1386"/>
    </contour>
  </outline>
</glyph>
<glyph name="plusminus" format="2">
  <advance width="1508"/>
  <unicode hex="00B1"/>
  <outline>
    <contour>
      <point x="778" y="316" type="line"/>
      <point x="778" y="804" type="line"/>
      <point x="1266" y="804" type="line"/>
      <point x="1266" y="852" type="line"/>
      <point x="778" y="852" type="line"/>
      <point x="778" y="1340" type="line"/>
      <point x="730" y="1340" type="line"/>
      <point x="730" y="852" type="line"/>
      <point x="242" y="852" type="line"/>
      <point x="242" y="804" type="line"/>
      <point x="730" y="804" type="line"/>
      <point x="730" y="316" type="line"/>
    </contour>
    <contour>
      <point x="1266" y="0" type="line"/>
      <point x="1266" y="48" type="line"/>
      <point x="242" y="48" type="line"/>
      <point x="242" y="0" type="line"/>
    </contour>
  </outline>
</glyph>
<glyph name="twosuperior" format="2">
  <advance width="980"/>
  <unicode hex="00B2"/>
  <outline>
    <contour>
      <point x="712" y="1026" type="line"/>
      <point x="712" y="1064" type="line"/>
      <point x="346" y="1064" type="line"/>
      <point x="625" y="1274"/>
      <point x="700" y="1361"/>
      <point x="700" y="1473" type="curve" smooth="yes"/>
      <point x="700" y="1599"/>
      <point x="604" y="1680"/>
      <point x="491" y="1680" type="curve" smooth="yes"/>
      <point x="374" y="1680"/>
      <point x="280" y="1592"/>
      <point x="276" y="1477" type="curve"/>
      <point x="316" y="1467" type="line"/>
      <point x="319" y="1562"/>
      <point x="395" y="1640"/>
      <point x="492" y="1640" type="curve" smooth="yes"/>
      <point x="583" y="1640"/>
      <point x="654" y="1573"/>
      <point x="654" y="1479" type="curve" smooth="yes"/>
      <point x="654" y="1366"/>
      <point x="552" y="1253"/>
      <point x="268" y="1054" type="curve"/>
      <point x="268" y="1026" type="line"/>
    </contour>
  </outline>
</glyph>
<glyph name="threesuperior" format="2">
  <advance width="920"/>
  <unicode hex="00B3"/>
  <outline>
    <contour>
      <point x="464" y="1026" type="curve" smooth="yes"/>
      <point x="585" y="1026"/>
      <point x="652" y="1102"/>
      <point x="652" y="1200" type="curve" smooth="yes"/>
      <point x="652" y="1275"/>
      <point x="608" y="1341"/>
      <point x="538" y="1361" type="curve"/>
      <point x="600" y="1383"/>
      <point x="644" y="1445"/>
      <point x="644" y="1513" type="curve" smooth="yes"/>
      <point x="644" y="1602"/>
      <point x="571" y="1680"/>
      <point x="472" y="1680" type="curve" smooth="yes"/>
      <point x="378" y="1680"/>
      <point x="306" y="1611"/>
      <point x="303" y="1522" type="curve"/>
      <point x="340" y="1513" type="line"/>
      <point x="342" y="1587"/>
      <point x="401" y="1642"/>
      <point x="473" y="1642" type="curve" smooth="yes"/>
      <point x="544" y="1642"/>
      <point x="602" y="1586"/>
      <point x="602" y="1512" type="curve" smooth="yes"/>
      <point x="602" y="1437"/>
      <point x="541" y="1376"/>
      <point x="463" y="1376" type="curve" smooth="yes"/>
      <point x="443" y="1376" type="line"/>
      <point x="443" y="1342" type="line"/>
      <point x="447" y="1343"/>
      <point x="457" y="1344"/>
      <point x="466" y="1344" type="curve" smooth="yes"/>
      <point x="541" y="1344"/>
      <point x="608" y="1280"/>
      <point x="608" y="1197" type="curve" smooth="yes"/>
      <point x="608" y="1125"/>
      <point x="558" y="1067"/>
      <point x="463" y="1067" type="curve" smooth="yes"/>
      <point x="369" y="1067"/>
      <point x="309" y="1124"/>
      <point x="309" y="1201" type="curve"/>
      <point x="268" y="1190" type="line"/>
      <point x="272" y="1101"/>
      <point x="343" y="1026"/>
    </contour>
  </outline>
</glyph>
<glyph name="micro" format="2">
  <advance width="1461"/>
  <unicode hex="00B5"/>
  <outline>
    <contour>
      <point x="417" y="-320" type="line"/>
      <point x="417" y="132" type="line"/>
      <point x="479" y="23"/>
      <point x="592" y="-32"/>
      <point x="753" y="-32" type="curve" smooth="yes"/>
      <point x="899" y="-32"/>
      <point x="1037" y="46"/>
      <point x="1081" y="154" type="curve"/>
      <point x="1081" y="0" type="line" name=".hr01"/>
      <point x="1137" y="0" type="line"/>
      <point x="1137" y="1024" type="line"/>
      <point x="1081" y="1024" type="line"/>
      <point x="1081" y="322" type="line" smooth="yes"/>
      <point x="1081" y="153"/>
      <point x="936" y="18" name=".hr02"/>
      <point x="753" y="18" type="curve" smooth="yes"/>
      <point x="530" y="18"/>
      <point x="417" y="147"/>
      <point x="417" y="402" type="curve" smooth="yes"/>
      <point x="417" y="1024" type="line"/>
      <point x="361" y="1024" type="line"/>
      <point x="361" y="446" type="line" smooth="yes"/>
      <point x="361" y="164"/>
      <point x="331" y="36"/>
      <point x="331" y="-320" type="curve"/>
    </contour>
  </outline>
</glyph>
<glyph name="paragraph" format="2">
  <advance width="1460"/>
  <unicode hex="00B6"/>
  <outline>
    <contour>
      <point x="1002" y="0" type="line"/>
      <point x="1002" y="1602" type="line"/>
      <point x="1052" y="1602" type="line"/>
      <point x="1052" y="0" type="line"/>
      <point x="1108" y="0" type="line"/>
      <point x="1108" y="1650" type="line"/>
      <point x="752" y="1650" type="line" smooth="yes"/>
      <point x="430" y="1650"/>
      <point x="244" y="1472"/>
      <point x="244" y="1202" type="curve" smooth="yes"/>
      <point x="244" y="934"/>
      <point x="430" y="736"/>
      <point x="752" y="736" type="curve" smooth="yes"/>
      <point x="946" y="736" type="line"/>
      <point x="946" y="0" type="line"/>
    </contour>
  </outline>
</glyph>
<glyph name="ordmasculine" format="2">
  <advance width="1028"/>
  <unicode hex="00BA"/>
  <outline>
    <contour>
      <point x="514" y="1008" type="curve" smooth="yes"/>
      <point x="704" y="1008"/>
      <point x="852" y="1146"/>
      <point x="852" y="1344" type="curve" smooth="yes"/>
      <point x="852" y="1544"/>
      <point x="704" y="1680"/>
      <point x="514" y="1680" type="curve" smooth="yes"/>
      <point x="322" y="1680"/>
      <point x="176" y="1544"/>
      <point x="176" y="1344" type="curve" smooth="yes"/>
      <point x="176" y="1146"/>
      <point x="322" y="1008"/>
    </contour>
    <contour>
      <point x="513" y="1040" type="curve" smooth="yes"/>
      <point x="338" y="1040"/>
      <point x="208" y="1166"/>
      <point x="208" y="1344" type="curve" smooth="yes"/>
      <point x="208" y="1520"/>
      <point x="336" y="1648"/>
      <point x="514" y="1648" type="curve" smooth="yes"/>
      <point x="690" y="1648"/>
      <point x="820" y="1520"/>
      <point x="820" y="1344" type="curve" smooth="yes"/>
      <point x="820" y="1168"/>
      <point x="690" y="1040"/>
    </contour>
  </outline>
</glyph>
<glyph name="AE" format="2">
  <advance width="1787"/>
  <unicode hex="00C6"/>
  <outline>
    <contour>
      <point x="826" y="1582" type="line"/>
      <point x="826" y="660" type="line"/>
      <point x="473" y="660" type="line"/>
    </contour>
    <contour>
      <point x="800" y="1650" type="line"/>
      <point x="158" y="0" type="line"/>
      <point x="218" y="0" type="line"/>
      <point x="454" y="610" type="line"/>
      <point x="826" y="610" type="line"/>
      <point x="826" y="0" type="line"/>
      <point x="1610" y="0" type="line"/>
      <point x="1610" y="50" type="line" name=".hr01"/>
      <point x="882" y="50" type="line"/>
      <point x="882" y="802" type="line"/>
      <point x="1586" y="802" type="line"/>
      <point x="1586" y="852" type="line"/>
      <point x="882" y="852" type="line"/>
      <point x="882" y="1600" type="line"/>
      <point x="1610" y="1600" type="line"/>
      <point x="1610" y="1650" type="line"/>
    </contour>
  </outline>
</glyph>
<glyph name="Eth" format="2">
  <advance width="1682"/>
  <unicode hex="00D0"/>
  <outline>
    <component base="D" xOffset="29"/>
    <contour>
      <point x="158" y="848" type="line"/>
      <point x="158" y="802" type="line"/>
      <point x="916" y="802" type="line"/>
      <point x="916" y="848" type="line"/>
    </contour>
  </outline>
</glyph>
<glyph name="multiply" format="2">
  <advance width="1334"/>
  <unicode hex="00D7"/>
  <outline>
    <contour>
      <point x="667" y="796" type="line"/>
      <point x="1063" y="398" type="line"/>
      <point x="1097" y="432" type="line"/>
      <point x="699" y="828" type="line"/>
      <point x="1097" y="1226" type="line"/>
      <point x="1065" y="1258" type="line"/>
      <point x="667" y="860" type="line"/>
      <point x="271" y="1258" type="line"/>
      <point x="237" y="1226" type="line"/>
      <point x="635" y="828" type="line"/>
      <point x="237" y="432" type="line"/>
      <point x="269" y="398" type="line"/>
    </contour>
  </outline>
</glyph>
<glyph name="Oslash" format="2">
  <advance width="2070"/>
  <unicode hex="00D8"/>
  <outline>
    <component base="O"/>
    <contour>
      <point x="1685" y="1610" type="line"/>
      <point x="1639" y="1644" type="line"/>
      <point x="393" y="42" type="line"/>
      <point x="437" y="8" type="line"/>
    </contour>
  </outline>
</glyph>
<glyph name="Thorn" format="2">
  <advance width="1343"/>
  <unicode hex="00DE"/>
  <anchor x="672" y="0" name="bottom"/>
  <anchor x="672" y="1650" name="top"/>
  <outline>
    <contour>
      <point x="349" y="0" type="line"/>
      <point x="349" y="358" type="line"/>
      <point x="647" y="358" type="line" smooth="yes"/>
      <point x="971" y="358"/>
      <point x="1157" y="546"/>
      <point x="1157" y="815" type="curve" smooth="yes"/>
      <point x="1157" y="1084"/>
      <point x="971" y="1272"/>
      <point x="647" y="1272" type="curve" smooth="yes"/>
      <point x="349" y="1272" type="line"/>
      <point x="349" y="1650" type="line"/>
      <point x="293" y="1650" type="line"/>
      <point x="293" y="0" type="line"/>
    </contour>
    <contour>
      <point x="349" y="1222" type="line"/>
      <point x="647" y="1222" type="line" smooth="yes"/>
      <point x="937" y="1222"/>
      <point x="1105" y="1054"/>
      <point x="1105" y="815" type="curve" smooth="yes"/>
      <point x="1105" y="576"/>
      <point x="937" y="408"/>
      <point x="647" y="408" type="curve" smooth="yes"/>
      <point x="349" y="408" type="line"/>
    </contour>
  </outline>
</glyph>
<glyph name="germandbls" format="2">
  <advance width="1333"/>
  <unicode hex="00DF"/>
  <anchor x="667" y="0" name="bottom"/>
  <anchor x="667" y="1026" name="top"/>
  <outline>
    <contour>
      <point x="689" y="-32" type="line" smooth="yes"/>
      <point x="959" y="-32"/>
      <point x="1177" y="186"/>
      <point x="1177" y="456" type="curve" smooth="yes"/>
      <point x="1177" y="666"/>
      <point x="1045" y="852"/>
      <point x="847" y="920" type="curve"/>
      <point x="1011" y="984"/>
      <point x="1119" y="1142"/>
      <point x="1119" y="1320" type="curve" smooth="yes"/>
      <point x="1119" y="1558"/>
      <point x="927" y="1750"/>
      <point x="689" y="1750" type="curve" smooth="yes"/>
      <point x="451" y="1750"/>
      <point x="259" y="1558"/>
      <point x="259" y="1320" type="curve" smooth="yes"/>
      <point x="259" y="814" type="line"/>
      <point x="127" y="814" type="line"/>
      <point x="127" y="756" type="line"/>
      <point x="259" y="756" type="line"/>
      <point x="259" y="0" type="line" name=".hr01"/>
      <point x="315" y="0" type="line"/>
      <point x="315" y="1320" type="line" smooth="yes"/>
      <point x="315" y="1526"/>
      <point x="483" y="1694"/>
      <point x="689" y="1694" type="curve" smooth="yes"/>
      <point x="895" y="1694"/>
      <point x="1063" y="1526"/>
      <point x="1063" y="1320" type="curve" smooth="yes"/>
      <point x="1063" y="1114"/>
      <point x="895" y="946"/>
      <point x="689" y="946" type="curve" smooth="yes"/>
      <point x="471" y="946" type="line"/>
      <point x="471" y="890" type="line"/>
      <point x="689" y="890" type="line" smooth="yes"/>
      <point x="927" y="890"/>
      <point x="1121" y="696"/>
      <point x="1121" y="456" type="curve" smooth="yes"/>
      <point x="1121" y="218"/>
      <point x="927" y="24" name=".hr02"/>
      <point x="689" y="24" type="curve" smooth="yes"/>
      <point x="471" y="24" type="line"/>
      <point x="471" y="-32" type="line"/>
    </contour>
  </outline>
</glyph>
<glyph name="ae" format="2">
  <advance width="2117"/>
  <unicode hex="00E6"/>
  <outline>
    <contour>
      <point x="571" y="-32" type="curve" smooth="yes"/>
      <point x="781" y="-32"/>
      <point x="940" y="81"/>
      <point x="979" y="258" type="curve"/>
      <point x="1068" y="77"/>
      <point x="1251" y="-32"/>
      <point x="1467" y="-32" type="curve" smooth="yes"/>
      <point x="1663" y="-32"/>
      <point x="1833" y="57"/>
      <point x="1931" y="212" type="curve"/>
      <point x="1887" y="240" type="line"/>
      <point x="1801" y="101"/>
      <point x="1647" y="20"/>
      <point x="1467" y="20" type="curve" smooth="yes"/>
      <point x="1180" y="20"/>
      <point x="973" y="227"/>
      <point x="973" y="512" type="curve"/>
      <point x="1973" y="512" type="line"/>
      <point x="1973" y="514"/>
      <point x="1973" y="515"/>
      <point x="1973" y="518" type="curve" smooth="yes"/>
      <point x="1973" y="816"/>
      <point x="1735" y="1056"/>
      <point x="1447" y="1056" type="curve" smooth="yes"/>
      <point x="1235" y="1056"/>
      <point x="1055" y="926"/>
      <point x="969" y="740" type="curve"/>
      <point x="942" y="915"/>
      <point x="814" y="1056"/>
      <point x="580" y="1056" type="curve" smooth="yes"/>
      <point x="447" y="1056"/>
      <point x="322" y="1010"/>
      <point x="227" y="892" type="curve"/>
      <point x="267" y="860" type="line"/>
      <point x="345" y="945"/>
      <point x="435" y="1006"/>
      <point x="577" y="1006" type="curve" smooth="yes"/>
      <point x="792" y="1006"/>
      <point x="923" y="866"/>
      <point x="923" y="622" type="curve" smooth="yes"/>
      <point x="923" y="478" type="line"/>
      <point x="853" y="574"/>
      <point x="725" y="634"/>
      <point x="573" y="634" type="curve" smooth="yes"/>
      <point x="343" y="634"/>
      <point x="165" y="498"/>
      <point x="165" y="300" type="curve" smooth="yes"/>
      <point x="165" y="99"/>
      <point x="347" y="-32"/>
    </contour>
    <contour>
      <point x="573" y="20" type="curve" smooth="yes"/>
      <point x="377" y="20"/>
      <point x="217" y="132"/>
      <point x="217" y="302" type="curve" smooth="yes"/>
      <point x="217" y="472"/>
      <point x="377" y="582"/>
      <point x="573" y="582" type="curve" smooth="yes"/>
      <point x="769" y="582"/>
      <point x="929" y="472"/>
      <point x="929" y="302" type="curve" smooth="yes"/>
      <point x="929" y="132"/>
      <point x="769" y="20"/>
    </contour>
    <contour>
      <point x="975" y="562" type="line"/>
      <point x="999" y="812"/>
      <point x="1202" y="1004"/>
      <point x="1447" y="1004" type="curve" smooth="yes"/>
      <point x="1692" y="1004" name=".hr01"/>
      <point x="1893" y="812"/>
      <point x="1917" y="562" type="curve"/>
    </contour>
  </outline>
</glyph>
<glyph name="eth" format="2">
  <advance width="1446"/>
  <unicode hex="00F0"/>
  <outline>
    <contour>
      <point x="711" y="-32" type="curve" smooth="yes"/>
      <point x="1021" y="-32"/>
      <point x="1259" y="192"/>
      <point x="1259" y="512" type="curve" smooth="yes"/>
      <point x="1259" y="968"/>
      <point x="1117" y="1330"/>
      <point x="837" y="1562" type="curve"/>
      <point x="987" y="1710" type="line"/>
      <point x="947" y="1750" type="line"/>
      <point x="793" y="1596" type="line"/>
      <point x="707" y="1660"/>
      <point x="611" y="1710"/>
      <point x="503" y="1750" type="curve"/>
      <point x="483" y="1698" type="line"/>
      <point x="581" y="1662"/>
      <point x="673" y="1616"/>
      <point x="753" y="1556" type="curve"/>
      <point x="605" y="1408" type="line"/>
      <point x="645" y="1368" type="line"/>
      <point x="799" y="1522" type="line"/>
      <point x="997" y="1362"/>
      <point x="1135" y="1122"/>
      <point x="1185" y="798" type="curve"/>
      <point x="1091" y="958"/>
      <point x="917" y="1056"/>
      <point x="711" y="1056" type="curve" smooth="yes"/>
      <point x="401" y="1056"/>
      <point x="163" y="834"/>
      <point x="163" y="512" type="curve" smooth="yes"/>
      <point x="163" y="192"/>
      <point x="401" y="-32"/>
    </contour>
    <contour>
      <point x="711" y="20" type="curve" smooth="yes"/>
      <point x="423" y="20"/>
      <point x="215" y="226"/>
      <point x="215" y="512" type="curve" smooth="yes"/>
      <point x="215" y="798"/>
      <point x="423" y="1004"/>
      <point x="711" y="1004" type="curve" smooth="yes"/>
      <point x="997" y="1004"/>
      <point x="1207" y="798"/>
      <point x="1207" y="512" type="curve" smooth="yes"/>
      <point x="1207" y="226"/>
      <point x="997" y="20"/>
    </contour>
  </outline>
</glyph>
<glyph name="divide" format="2">
  <advance width="1500"/>
  <unicode hex="00F7"/>
  <outline>
    <contour>
      <point x="1234" y="806" type="line"/>
      <point x="1234" y="854" type="line"/>
      <point x="210" y="854" type="line"/>
      <point x="210" y="806" type="line"/>
    </contour>
    <contour>
      <point x="722" y="276" type="curve" smooth="yes"/>
      <point x="748" y="276"/>
      <point x="770" y="298"/>
      <point x="770" y="324" type="curve" smooth="yes"/>
      <point x="770" y="350"/>
      <point x="748" y="372"/>
      <point x="722" y="372" type="curve" smooth="yes"/>
      <point x="696" y="372"/>
      <point x="674" y="350"/>
      <point x="674" y="324" type="curve" smooth="yes"/>
      <point x="674" y="298"/>
      <point x="696" y="276"/>
    </contour>
    <contour>
      <point x="722" y="1288" type="curve" smooth="yes"/>
      <point x="748" y="1288"/>
      <point x="770" y="1310"/>
      <point x="770" y="1336" type="curve" smooth="yes"/>
      <point x="770" y="1362"/>
      <point x="748" y="1384"/>
      <point x="722" y="1384" type="curve" smooth="yes"/>
      <point x="696" y="1384"/>
      <point x="674" y="1362"/>
      <point x="674" y="1336" type="curve" smooth="yes"/>
      <point x="674" y="1310"/>
      <point x="696" y="1288"/>
    </contour>
  </outline>
</glyph>
<glyph name="dcroat" format="2">
  <advance width="1478"/>
  <unicode hex="0111"/>
  <outline>
    <component base="d"/>
    <contour>
      <point x="669" y="1394" type="line"/>
      <point x="669" y="1348" type="line"/>
      <point x="1393" y="1348" type="line"/>
      <point x="1393" y="1394" type="line"/>
    </contour>
  </outline>
</glyph>
<glyph name="eogonek" format="2">
  <advance width="1358"/>
  <unicode hex="0119"/>
  <anchor x="708" y="0" name="bottom"/>
  <anchor x="718" y="0" name="ogonek"/>
  <anchor x="688" y="1026" name="top"/>
  <anchor x="718" y="0" name="_ogonek"/>
  <outline>
    <contour>
      <point x="708" y="-32" type="curve" smooth="yes"/>
      <point x="813" y="-32"/>
      <point x="910" y="-7"/>
      <point x="992" y="40" type="curve"/>
      <point x="963" y="40" type="line"/>
      <point x="819" y="-100"/>
      <point x="737" y="-232"/>
      <point x="737" y="-335" type="curve" smooth="yes"/>
      <point x="737" y="-458"/>
      <point x="840" y="-559"/>
      <point x="987" y="-559" type="curve" smooth="yes"/>
      <point x="1096" y="-559"/>
      <point x="1202" y="-504"/>
      <point x="1263" y="-415" type="curve"/>
      <point x="1229" y="-391" type="line"/>
      <point x="1155" y="-472"/>
      <point x="1081" y="-507"/>
      <point x="993" y="-507" type="curve" smooth="yes"/>
      <point x="858" y="-507"/>
      <point x="789" y="-425"/>
      <point x="789" y="-334" type="curve" smooth="yes"/>
      <point x="789" y="-237"/>
      <point x="874" y="-91"/>
      <point x="1093" y="115" type="curve" smooth="yes"/>
      <point x="1123" y="143"/>
      <point x="1149" y="176"/>
      <point x="1172" y="212" type="curve"/>
      <point x="1128" y="240" type="line"/>
      <point x="1042" y="101"/>
      <point x="888" y="20"/>
      <point x="708" y="20" type="curve" smooth="yes"/>
      <point x="421" y="20"/>
      <point x="214" y="227"/>
      <point x="214" y="512" type="curve"/>
      <point x="1213" y="512" type="line"/>
      <point x="1214" y="519"/>
      <point x="1214" y="524"/>
      <point x="1214" y="529" type="curve"/>
      <point x="1210" y="798"/>
      <point x="995" y="1056"/>
      <point x="687" y="1056" type="curve" smooth="yes"/>
      <point x="402" y="1056"/>
      <point x="160" y="817"/>
      <point x="160" y="505" type="curve" smooth="yes"/>
      <point x="160" y="203"/>
      <point x="387" y="-32"/>
    </contour>
    <contour>
      <point x="216" y="562" type="line"/>
      <point x="240" y="813"/>
      <point x="444" y="1004"/>
      <point x="688" y="1004" type="curve" smooth="yes"/>
      <point x="931" y="1004"/>
      <point x="1134" y="814"/>
      <point x="1158" y="562" type="curve"/>
    </contour>
  </outline>
</glyph>
<glyph name="Hbar" format="2">
  <advance width="1758"/>
  <unicode hex="0126"/>
  <outline>
    <contour>
      <point x="349" y="0" type="line"/>
      <point x="349" y="772" type="line"/>
      <point x="1409" y="772" type="line"/>
      <point x="1409" y="0" type="line"/>
      <point x="1465" y="0" type="line"/>
      <point x="1465" y="1650" type="line"/>
      <point x="1409" y="1650" type="line"/>
      <point x="1409" y="822" type="line"/>
      <point x="349" y="822" type="line"/>
      <point x="349" y="1650" type="line"/>
      <point x="293" y="1650" type="line"/>
      <point x="293" y="0" type="line"/>
    </contour>
    <contour>
      <point x="1600" y="1070" type="line"/>
      <point x="1600" y="1120" type="line"/>
      <point x="158" y="1120" type="line"/>
      <point x="158" y="1070" type="line"/>
    </contour>
  </outline>
</glyph>
<glyph name="hbar" format="2">
  <advance width="1228"/>
  <unicode hex="0127"/>
  <outline>
    <component base="h"/>
    <contour>
      <point x="506" y="1338" type="line"/>
      <point x="506" y="1390" type="line"/>
      <point x="92" y="1390" type="line"/>
      <point x="92" y="1338" type="line"/>
    </contour>
  </outline>
</glyph>
<glyph name="idotless" format="2">
  <advance width="526"/>
  <unicode hex="0131"/>
  <anchor x="263" y="0" name="bottom"/>
  <anchor x="291" y="0" name="ogonek"/>
  <anchor x="263" y="1026" name="top"/>
  <outline>
    <contour>
      <point x="291" y="0" type="line"/>
      <point x="291" y="1024" type="line"/>
      <point x="235" y="1024" type="line"/>
      <point x="235" y="0" type="line"/>
    </contour>
  </outline>
</glyph>
<glyph name="Lslash" format="2">
  <advance width="1276"/>
  <unicode hex="0141"/>
  <outline>
    <component base="L" xOffset="33"/>
    <contour>
      <point x="598" y="956" type="line"/>
      <point x="598" y="1002" type="line"/>
      <point x="158" y="656" type="line"/>
      <point x="158" y="610" type="line"/>
    </contour>
  </outline>
</glyph>
<glyph name="lslash" format="2">
  <advance width="910"/>
  <unicode hex="0142"/>
  <outline>
    <component base="l" xOffset="192"/>
    <contour>
      <point x="235" y="788" type="line"/>
      <point x="235" y="732" type="line"/>
      <point x="675" y="1078" type="line"/>
      <point x="675" y="1134" type="line"/>
    </contour>
  </outline>
</glyph>
<glyph name="Eng" format="2">
  <advance width="1665"/>
  <unicode hex="014A"/>
  <outline>
    <contour>
      <point x="293" y="1650" type="line"/>
      <point x="293" y="0" type="line"/>
      <point x="349" y="0" type="line"/>
      <point x="349" y="1546" type="line"/>
      <point x="1333" y="0" type="line"/>
      <point x="1333" y="-31" type="line" smooth="yes"/>
      <point x="1333" y="-322"/>
      <point x="1184" y="-499"/>
      <point x="903" y="-499" type="curve" smooth="yes"/>
      <point x="774" y="-499"/>
      <point x="660" y="-458"/>
      <point x="561" y="-352" type="curve"/>
      <point x="527" y="-399" type="line"/>
      <point x="629" y="-505"/>
      <point x="742" y="-551"/>
      <point x="897" y="-551" type="curve" smooth="yes"/>
      <point x="1206" y="-551"/>
      <point x="1389" y="-366"/>
      <point x="1389" y="-55" type="curve" smooth="yes"/>
      <point x="1389" y="1650" type="line"/>
      <point x="1333" y="1650" type="line"/>
      <point x="1333" y="102" type="line"/>
      <point x="349" y="1650" type="line"/>
    </contour>
  </outline>
</glyph>
<glyph name="eng" format="2">
  <advance width="1226"/>
  <unicode hex="014B"/>
  <outline>
    <contour>
      <point x="235" y="1025" type="line"/>
      <point x="235" y="0" type="line"/>
      <point x="291" y="0" type="line"/>
      <point x="291" y="702" type="line" smooth="yes"/>
      <point x="291" y="890"/>
      <point x="453" y="1006" name=".hr01"/>
      <point x="626" y="1006" type="curve" smooth="yes"/>
      <point x="841" y="1006"/>
      <point x="955" y="826"/>
      <point x="955" y="622" type="curve" smooth="yes"/>
      <point x="955" y="-264" type="line" smooth="yes"/>
      <point x="955" y="-421"/>
      <point x="885" y="-502"/>
      <point x="781" y="-502" type="curve" smooth="yes"/>
      <point x="732" y="-502"/>
      <point x="678" y="-484"/>
      <point x="641" y="-432" type="curve"/>
      <point x="605" y="-458" type="line"/>
      <point x="656" y="-528"/>
      <point x="721" y="-550"/>
      <point x="786" y="-550" type="curve" smooth="yes"/>
      <point x="923" y="-550"/>
      <point x="1011" y="-452"/>
      <point x="1011" y="-254" type="curve" smooth="yes"/>
      <point x="1011" y="640" type="line" smooth="yes"/>
      <point x="1011" y="880"/>
      <point x="859" y="1056"/>
      <point x="624" y="1056" type="curve" smooth="yes"/>
      <point x="469" y="1056"/>
      <point x="335" y="979"/>
      <point x="291" y="870" type="curve"/>
      <point x="291" y="1025" type="line" name=".hr02"/>
    </contour>
  </outline>
</glyph>
<glyph name="OE" format="2">
  <advance width="1990"/>
  <unicode hex="0152"/>
  <outline>
    <contour>
      <point x="1813" y="0" type="line"/>
      <point x="1813" y="50" type="line"/>
      <point x="1085" y="50" type="line"/>
      <point x="1085" y="802" type="line"/>
      <point x="1789" y="802" type="line"/>
      <point x="1789" y="852" type="line"/>
      <point x="1085" y="852" type="line"/>
      <point x="1085" y="1600" type="line"/>
      <point x="1813" y="1600" type="line"/>
      <point x="1813" y="1650" type="line"/>
      <point x="1029" y="1650" type="line" smooth="yes"/>
      <point x="557" y="1650"/>
      <point x="203" y="1291"/>
      <point x="203" y="825" type="curve" smooth="yes"/>
      <point x="203" y="359"/>
      <point x="557" y="0"/>
      <point x="1029" y="0" type="curve" smooth="yes"/>
    </contour>
    <contour>
      <point x="1029" y="52" type="line"/>
      <point x="592" y="52"/>
      <point x="263" y="388"/>
      <point x="263" y="825" type="curve" smooth="yes"/>
      <point x="263" y="1262"/>
      <point x="592" y="1598"/>
      <point x="1029" y="1598" type="curve"/>
    </contour>
  </outline>
</glyph>
<glyph name="oe" format="2">
  <advance width="2395"/>
  <unicode hex="0153"/>
  <anchor x="1198" y="0" name="bottom"/>
  <anchor x="1198" y="1026" name="top"/>
  <outline>
    <contour>
      <point x="711" y="-32" type="curve" smooth="yes"/>
      <point x="954" y="-32"/>
      <point x="1156" y="106"/>
      <point x="1229" y="322" type="curve"/>
      <point x="1303" y="105"/>
      <point x="1504" y="-32"/>
      <point x="1745" y="-32" type="curve" smooth="yes"/>
      <point x="1941" y="-32"/>
      <point x="2111" y="58"/>
      <point x="2209" y="212" type="curve"/>
      <point x="2165" y="240" type="line"/>
      <point x="2079" y="101"/>
      <point x="1925" y="20"/>
      <point x="1745" y="20" type="curve" smooth="yes"/>
      <point x="1458" y="20"/>
      <point x="1251" y="227"/>
      <point x="1251" y="512" type="curve"/>
      <point x="2251" y="512" type="line"/>
      <point x="2251" y="515"/>
      <point x="2251" y="517"/>
      <point x="2251" y="522" type="curve" smooth="yes"/>
      <point x="2251" y="817"/>
      <point x="2012" y="1056"/>
      <point x="1725" y="1056" type="curve" smooth="yes"/>
      <point x="1499" y="1056"/>
      <point x="1303" y="908"/>
      <point x="1231" y="698" type="curve"/>
      <point x="1159" y="918"/>
      <point x="955" y="1056"/>
      <point x="711" y="1056" type="curve" smooth="yes"/>
      <point x="401" y="1056"/>
      <point x="163" y="833"/>
      <point x="163" y="512" type="curve" smooth="yes"/>
      <point x="163" y="191"/>
      <point x="401" y="-32"/>
    </contour>
    <contour>
      <point x="711" y="20" type="curve" smooth="yes"/>
      <point x="424" y="20"/>
      <point x="215" y="226"/>
      <point x="215" y="512" type="curve" smooth="yes"/>
      <point x="215" y="798"/>
      <point x="424" y="1004"/>
      <point x="711" y="1004" type="curve" smooth="yes"/>
      <point x="998" y="1004"/>
      <point x="1207" y="798"/>
      <point x="1207" y="512" type="curve" smooth="yes"/>
      <point x="1207" y="226"/>
      <point x="998" y="20"/>
    </contour>
    <contour>
      <point x="1253" y="562" type="line"/>
      <point x="1277" y="812"/>
      <point x="1480" y="1004"/>
      <point x="1725" y="1004" type="curve" smooth="yes"/>
      <point x="1970" y="1004"/>
      <point x="2171" y="812"/>
      <point x="2195" y="562" type="curve"/>
    </contour>
  </outline>
</glyph>
<glyph name="Tbar" format="2">
  <advance width="1464"/>
  <unicode hex="0166"/>
  <outline>
    <component base="T"/>
    <contour>
      <point x="1097" y="1007" type="line"/>
      <point x="1097" y="1057" type="line"/>
      <point x="368" y="1057" type="line"/>
      <point x="368" y="1007" type="line"/>
    </contour>
  </outline>
</glyph>
<glyph name="tbar" format="2">
  <advance width="681"/>
  <unicode hex="0167"/>
  <outline>
    <contour>
      <point x="432" y="-32" type="curve" smooth="yes"/>
      <point x="491" y="-32"/>
      <point x="546" y="-11"/>
      <point x="578" y="17" type="curve"/>
      <point x="552" y="50" type="line"/>
      <point x="524" y="29"/>
      <point x="481" y="16"/>
      <point x="441" y="16" type="curve" smooth="yes"/>
      <point x="346" y="16"/>
      <point x="294" y="89"/>
      <point x="294" y="222" type="curve" smooth="yes"/>
      <point x="294" y="782" type="line"/>
      <point x="566" y="782" type="line"/>
      <point x="566" y="824" type="line"/>
      <point x="294" y="824" type="line"/>
      <point x="294" y="983" type="line"/>
      <point x="566" y="983" type="line"/>
      <point x="566" y="1025" type="line"/>
      <point x="294" y="1025" type="line"/>
      <point x="294" y="1406" type="line"/>
      <point x="238" y="1406" type="line"/>
      <point x="238" y="1025" type="line"/>
      <point x="152" y="1025" type="line"/>
      <point x="152" y="983" type="line"/>
      <point x="238" y="983" type="line"/>
      <point x="238" y="824" type="line"/>
      <point x="152" y="824" type="line"/>
      <point x="152" y="782" type="line"/>
      <point x="238" y="782" type="line"/>
      <point x="238" y="222" type="line" smooth="yes"/>
      <point x="238" y="60"/>
      <point x="309" y="-32"/>
    </contour>
  </outline>
</glyph>
<glyph name="Uogonek" format="2">
  <advance width="1638"/>
  <unicode hex="0172"/>
  <outline>
    <contour>
      <point x="811" y="-32" type="curve" smooth="yes"/>
      <point x="909" y="-32"/>
      <point x="994" y="-14"/>
      <point x="1067" y="20" type="curve"/>
      <point x="1047" y="20" type="line"/>
      <point x="915" y="-113"/>
      <point x="841" y="-230"/>
      <point x="841" y="-335" type="curve" smooth="yes"/>
      <point x="841" y="-458"/>
      <point x="944" y="-559"/>
      <point x="1091" y="-559" type="curve" smooth="yes"/>
      <point x="1200" y="-559"/>
      <point x="1306" y="-504"/>
      <point x="1367" y="-415" type="curve"/>
      <point x="1333" y="-391" type="line"/>
      <point x="1259" y="-472"/>
      <point x="1185" y="-507"/>
      <point x="1097" y="-507" type="curve" smooth="yes"/>
      <point x="962" y="-507"/>
      <point x="893" y="-429"/>
      <point x="893" y="-332" type="curve" smooth="yes"/>
      <point x="893" y="-216"/>
      <point x="992" y="-69"/>
      <point x="1169" y="87" type="curve" smooth="yes"/>
      <point x="1288" y="192"/>
      <point x="1351" y="363"/>
      <point x="1351" y="594" type="curve" smooth="yes"/>
      <point x="1351" y="1650" type="line"/>
      <point x="1295" y="1650" type="line"/>
      <point x="1295" y="594" type="line" smooth="yes"/>
      <point x="1295" y="221"/>
      <point x="1128" y="24"/>
      <point x="811" y="24" type="curve" smooth="yes"/>
      <point x="494" y="24"/>
      <point x="327" y="221"/>
      <point x="327" y="594" type="curve" smooth="yes"/>
      <point x="327" y="1650" type="line"/>
      <point x="271" y="1650" type="line"/>
      <point x="271" y="594" type="line" smooth="yes"/>
      <point x="271" y="191"/>
      <point x="463" y="-32"/>
    </contour>
  </outline>
</glyph>
<glyph name="uogonek" format="2">
  <advance width="1198"/>
  <unicode hex="0173"/>
  <outline>
    <contour>
      <point x="599" y="-32" type="curve" smooth="yes"/>
      <point x="674" y="-32"/>
      <point x="737" y="-22"/>
      <point x="788" y="0" type="curve"/>
      <point x="767" y="0" type="line"/>
      <point x="648" y="-125"/>
      <point x="581" y="-242"/>
      <point x="581" y="-335" type="curve" smooth="yes"/>
      <point x="581" y="-458"/>
      <point x="684" y="-559"/>
      <point x="831" y="-559" type="curve" smooth="yes"/>
      <point x="940" y="-559"/>
      <point x="1046" y="-504"/>
      <point x="1107" y="-415" type="curve"/>
      <point x="1073" y="-391" type="line"/>
      <point x="999" y="-472"/>
      <point x="925" y="-507"/>
      <point x="837" y="-507" type="curve" smooth="yes"/>
      <point x="702" y="-507"/>
      <point x="633" y="-425"/>
      <point x="633" y="-334" type="curve" smooth="yes"/>
      <point x="633" y="-237"/>
      <point x="718" y="-91"/>
      <point x="869" y="52" type="curve" smooth="yes"/>
      <point x="944" y="124"/>
      <point x="979" y="241"/>
      <point x="979" y="414" type="curve" smooth="yes"/>
      <point x="979" y="1024" type="line"/>
      <point x="923" y="1024" type="line"/>
      <point x="923" y="414" type="line" smooth="yes"/>
      <point x="923" y="131"/>
      <point x="832" y="20"/>
      <point x="599" y="20" type="curve" smooth="yes"/>
      <point x="366" y="20"/>
      <point x="275" y="131"/>
      <point x="275" y="414" type="curve" smooth="yes"/>
      <point x="275" y="1024" type="line"/>
      <point x="219" y="1024" type="line"/>
      <point x="219" y="414" type="line" smooth="yes"/>
      <point x="219" y="100"/>
      <point x="331" y="-32"/>
    </contour>
  </outline>
</glyph>
<glyph name="florin" format="2">
  <advance width="848"/>
  <unicode hex="0192"/>
  <outline>
    <contour>
      <point x="27" y="-551" type="curve" smooth="yes"/>
      <point x="179" y="-551"/>
      <point x="275" y="-445"/>
      <point x="295" y="-255" type="curve" smooth="yes"/>
      <point x="424" y="984" type="line"/>
      <point x="696" y="984" type="line"/>
      <point x="700" y="1026" type="line"/>
      <point x="428" y="1026" type="line"/>
      <point x="475" y="1464" type="line" smooth="yes"/>
      <point x="491" y="1615"/>
      <point x="570" y="1702"/>
      <point x="684" y="1702" type="curve" smooth="yes"/>
      <point x="728" y="1702"/>
      <point x="769" y="1689"/>
      <point x="795" y="1667" type="curve"/>
      <point x="826" y="1704" type="line"/>
      <point x="790" y="1735"/>
      <point x="742" y="1750"/>
      <point x="685" y="1750" type="curve" smooth="yes"/>
      <point x="533" y="1750"/>
      <point x="437" y="1644"/>
      <point x="417" y="1454" type="curve" smooth="yes"/>
      <point x="372" y="1026" type="line"/>
      <point x="288" y="1026" type="line"/>
      <point x="284" y="984" type="line"/>
      <point x="368" y="984" type="line"/>
      <point x="237" y="-265" type="line" smooth="yes"/>
      <point x="221" y="-416"/>
      <point x="141" y="-503"/>
      <point x="28" y="-503" type="curve" smooth="yes"/>
      <point x="-16" y="-503"/>
      <point x="-57" y="-490"/>
      <point x="-83" y="-468" type="curve"/>
      <point x="-114" y="-505" type="line"/>
      <point x="-78" y="-536"/>
      <point x="-30" y="-551"/>
    </contour>
  </outline>
</glyph>
<glyph name="gravecomb" format="2">
  <advance width="205"/>
  <unicode hex="0300"/>
  <anchor x="103" y="1024" name="_top"/>
  <anchor x="103" y="1657" name="top"/>
  <outline>
    <contour>
      <point x="292" y="1310" type="line"/>
      <point x="-38" y="1483" type="line"/>
      <point x="-69" y="1416" type="line"/>
      <point x="267" y="1266" type="line"/>
    </contour>
  </outline>
</glyph>
<glyph name="acutecomb" format="2">
  <advance width="205"/>
  <unicode hex="0301"/>
  <anchor x="34" y="1024" name="_top"/>
  <anchor x="34" y="1680" name="top"/>
  <outline>
    <contour>
      <point x="-87" y="1310" type="line"/>
      <point x="-62" y="1266" type="line"/>
      <point x="274" y="1416" type="line"/>
      <point x="243" y="1483" type="line"/>
    </contour>
  </outline>
</glyph>
<glyph name="circumflexcomb" format="2">
  <advance width="672"/>
  <unicode hex="0302"/>
  <anchor x="336" y="1024" name="_top"/>
  <anchor x="336" y="1680" name="top"/>
  <outline>
    <contour>
      <point x="336" y="1616" type="line"/>
      <point x="642" y="1392" type="line"/>
      <point x="672" y="1434" type="line"/>
      <point x="336" y="1680" type="line"/>
      <point x="0" y="1434" type="line"/>
      <point x="30" y="1392" type="line"/>
    </contour>
  </outline>
</glyph>
<glyph name="tildecomb" format="2">
  <advance width="956"/>
  <unicode hex="0303"/>
  <anchor x="478" y="1024" name="_top"/>
  <anchor x="478" y="1530" name="top"/>
  <outline>
    <contour>
      <point x="0" y="1358" type="curve"/>
      <point x="42" y="1332" type="line"/>
      <point x="91" y="1412"/>
      <point x="169" y="1480"/>
      <point x="278" y="1480" type="curve" smooth="yes"/>
      <point x="445" y="1480"/>
      <point x="493" y="1320"/>
      <point x="677" y="1320" type="curve" smooth="yes"/>
      <point x="789" y="1320"/>
      <point x="888" y="1379"/>
      <point x="956" y="1492" type="curve"/>
      <point x="914" y="1518" type="line"/>
      <point x="857" y="1423"/>
      <point x="773" y="1370"/>
      <point x="677" y="1370" type="curve" smooth="yes"/>
      <point x="511" y="1370"/>
      <point x="463" y="1530"/>
      <point x="278" y="1530" type="curve" smooth="yes"/>
      <point x="150" y="1530"/>
      <point x="57" y="1454"/>
    </contour>
  </outline>
</glyph>
<glyph name="brevecomb" format="2">
  <advance width="780"/>
  <unicode hex="0306"/>
  <anchor x="390" y="1024" name="_top"/>
  <anchor x="390" y="1680" name="top"/>
  <outline>
    <contour>
      <point x="390" y="1364" type="curve" smooth="yes"/>
      <point x="584" y="1364"/>
      <point x="740" y="1486"/>
      <point x="780" y="1668" type="curve"/>
      <point x="730" y="1680" type="line"/>
      <point x="696" y="1522"/>
      <point x="562" y="1416"/>
      <point x="390" y="1416" type="curve" smooth="yes"/>
      <point x="216" y="1416"/>
      <point x="84" y="1522"/>
      <point x="50" y="1680" type="curve"/>
      <point x="0" y="1668" type="line"/>
      <point x="40" y="1486"/>
      <point x="196" y="1364"/>
    </contour>
  </outline>
</glyph>
<glyph name="dotaccentcomb" format="2">
  <advance width="95"/>
  <unicode hex="0307"/>
  <anchor x="48" y="1024" name="_top"/>
  <anchor x="48" y="1520" name="top"/>
  <outline>
    <contour>
      <point x="48" y="1424" type="curve" smooth="yes"/>
      <point x="74" y="1424"/>
      <point x="96" y="1446"/>
      <point x="96" y="1472" type="curve" smooth="yes"/>
      <point x="96" y="1498"/>
      <point x="74" y="1520"/>
      <point x="48" y="1520" type="curve" smooth="yes"/>
      <point x="22" y="1520"/>
      <point x="0" y="1498"/>
      <point x="0" y="1472" type="curve" smooth="yes"/>
      <point x="0" y="1446"/>
      <point x="22" y="1424"/>
    </contour>
  </outline>
</glyph>
<glyph name="dieresiscomb" format="2">
  <advance width="568"/>
  <unicode hex="0308"/>
  <anchor x="284" y="1024" name="_top"/>
  <anchor x="284" y="1446" name="top"/>
  <outline>
    <contour>
      <point x="520" y="1350" type="curve" smooth="yes"/>
      <point x="546" y="1350"/>
      <point x="568" y="1372"/>
      <point x="568" y="1398" type="curve" smooth="yes"/>
      <point x="568" y="1424"/>
      <point x="546" y="1446"/>
      <point x="520" y="1446" type="curve" smooth="yes"/>
      <point x="494" y="1446"/>
      <point x="472" y="1424"/>
      <point x="472" y="1398" type="curve" smooth="yes"/>
      <point x="472" y="1372"/>
      <point x="494" y="1350"/>
    </contour>
    <contour>
      <point x="48" y="1350" type="curve" smooth="yes"/>
      <point x="74" y="1350"/>
      <point x="96" y="1372"/>
      <point x="96" y="1398" type="curve" smooth="yes"/>
      <point x="96" y="1424"/>
      <point x="74" y="1446"/>
      <point x="48" y="1446" type="curve" smooth="yes"/>
      <point x="22" y="1446"/>
      <point x="0" y="1424"/>
      <point x="0" y="1398" type="curve" smooth="yes"/>
      <point x="0" y="1372"/>
      <point x="22" y="1350"/>
    </contour>
  </outline>
</glyph>
<glyph name="ringcomb" format="2">
  <advance width="388"/>
  <unicode hex="030A"/>
  <anchor x="194" y="1026" name="_top"/>
  <anchor x="194" y="1636" name="top"/>
  <outline>
    <contour>
      <point x="194" y="1292" type="curve" smooth="yes"/>
      <point x="302" y="1292"/>
      <point x="388" y="1364"/>
      <point x="388" y="1464" type="curve" smooth="yes"/>
      <point x="388" y="1564"/>
      <point x="302" y="1636"/>
      <point x="194" y="1636" type="curve" smooth="yes"/>
      <point x="86" y="1636"/>
      <point x="0" y="1564"/>
      <point x="0" y="1464" type="curve" smooth="yes"/>
      <point x="0" y="1364"/>
      <point x="86" y="1292"/>
    </contour>
    <contour>
      <point x="194" y="1344" type="curve" smooth="yes"/>
      <point x="112" y="1344"/>
      <point x="52" y="1394"/>
      <point x="52" y="1464" type="curve" smooth="yes"/>
      <point x="52" y="1534"/>
      <point x="112" y="1584"/>
      <point x="194" y="1584" type="curve" smooth="yes"/>
      <point x="276" y="1584"/>
      <point x="336" y="1534"/>
      <point x="336" y="1464" type="curve" smooth="yes"/>
      <point x="336" y="1394"/>
      <point x="276" y="1344"/>
    </contour>
  </outline>
</glyph>
<glyph name="hungarumlautcomb" format="2">
  <advance width="503"/>
  <unicode hex="030B"/>
  <anchor x="202" y="1024" name="_top"/>
  <anchor x="202" y="1680" name="top"/>
  <outline>
    <contour>
      <point x="503" y="1618" type="line"/>
      <point x="437" y="1680" type="line"/>
      <point x="272" y="1510" type="line"/>
      <point x="315" y="1468" type="line"/>
    </contour>
    <contour>
      <point x="231" y="1618" type="line"/>
      <point x="167" y="1680" type="line"/>
      <point x="0" y="1510" type="line"/>
      <point x="43" y="1468" type="line"/>
    </contour>
  </outline>
</glyph>
<glyph name="caroncomb" format="2">
  <advance width="672"/>
  <unicode hex="030C"/>
  <anchor x="336" y="1024" name="_top"/>
  <anchor x="336" y="1680" name="top"/>
  <outline>
    <contour>
      <point x="672" y="1498" type="line"/>
      <point x="642" y="1540" type="line"/>
      <point x="336" y="1316" type="line"/>
      <point x="30" y="1540" type="line"/>
      <point x="0" y="1498" type="line"/>
      <point x="336" y="1252" type="line"/>
    </contour>
  </outline>
</glyph>
<glyph name="commaaccentcomb" format="2">
  <advance width="709"/>
  <unicode hex="0326"/>
  <anchor x="346" y="0" name="_bottom"/>
  <anchor x="346" y="-444" name="bottom"/>
  <outline>
    <contour>
      <point x="313" y="-444" type="line"/>
      <point x="359" y="-409"/>
      <point x="410" y="-301"/>
      <point x="410" y="-220" type="curve" smooth="yes"/>
      <point x="410" y="-162"/>
      <point x="383" y="-136"/>
      <point x="346" y="-136" type="curve" smooth="yes"/>
      <point x="310" y="-136"/>
      <point x="286" y="-161"/>
      <point x="286" y="-193" type="curve" smooth="yes"/>
      <point x="286" y="-227"/>
      <point x="313" y="-254"/>
      <point x="345" y="-254" type="curve"/>
      <point x="345" y="-331"/>
      <point x="331" y="-386"/>
      <point x="300" y="-432" type="curve"/>
    </contour>
  </outline>
</glyph>
<glyph name="cedillacomb" format="2">
  <advance width="471"/>
  <unicode hex="0327"/>
  <anchor x="258" y="29" name="_cedilla"/>
  <anchor x="236" y="-551" name="bottom"/>
  <outline>
    <contour>
      <point x="206" y="29" type="line"/>
      <point x="119" y="-240" type="line"/>
      <point x="122" y="-242" type="line"/>
      <point x="163" y="-217"/>
      <point x="228" y="-199"/>
      <point x="277" y="-199" type="curve" smooth="yes"/>
      <point x="363" y="-199"/>
      <point x="422" y="-254"/>
      <point x="422" y="-334" type="curve" smooth="yes"/>
      <point x="422" y="-422"/>
      <point x="349" y="-482"/>
      <point x="241" y="-482" type="curve" smooth="yes"/>
      <point x="152" y="-482"/>
      <point x="79" y="-442"/>
      <point x="41" y="-371" type="curve"/>
      <point x="0" y="-394" type="line"/>
      <point x="44" y="-480"/>
      <point x="132" y="-531"/>
      <point x="239" y="-531" type="curve" smooth="yes"/>
      <point x="375" y="-531"/>
      <point x="471" y="-449"/>
      <point x="471" y="-333" type="curve" smooth="yes"/>
      <point x="471" y="-226"/>
      <point x="389" y="-150"/>
      <point x="273" y="-150" type="curve" smooth="yes"/>
      <point x="246" y="-150"/>
      <point x="219" y="-154"/>
      <point x="188" y="-163" type="curve"/>
      <point x="194" y="-167" type="line"/>
      <point x="258" y="29" type="line"/>
    </contour>
  </outline>
</glyph>
<glyph name="ogonekcomb" format="2">
  <advance width="526"/>
  <unicode hex="0328"/>
  <anchor x="236" y="29" name="_ogonek"/>
  <outline>
    <contour>
      <point x="250" y="-530" type="curve" smooth="yes"/>
      <point x="359" y="-530"/>
      <point x="465" y="-475"/>
      <point x="526" y="-386" type="curve"/>
      <point x="492" y="-362" type="line"/>
      <point x="418" y="-443"/>
      <point x="344" y="-478"/>
      <point x="256" y="-478" type="curve" smooth="yes"/>
      <point x="121" y="-478"/>
      <point x="52" y="-400"/>
      <point x="52" y="-303" type="curve" smooth="yes"/>
      <point x="52" y="-209"/>
      <point x="117" y="-94"/>
      <point x="236" y="29" type="curve"/>
      <point x="186" y="29" type="line"/>
      <point x="67" y="-96"/>
      <point x="0" y="-206"/>
      <point x="0" y="-306" type="curve" smooth="yes"/>
      <point x="0" y="-429"/>
      <point x="103" y="-530"/>
    </contour>
  </outline>
</glyph>
<glyph name="Delta" format="2">
  <advance width="1644"/>
  <unicode hex="0394"/>
  <outline>
    <contour>
      <point x="804" y="1650" type="line"/>
      <point x="158" y="0" type="line"/>
      <point x="1486" y="0" type="line"/>
      <point x="840" y="1650" type="line"/>
    </contour>
    <contour>
      <point x="812" y="1621" type="line"/>
      <point x="1417" y="43" type="line"/>
      <point x="227" y="43" type="line"/>
      <point x="832" y="1621" type="line"/>
    </contour>
  </outline>
</glyph>
<glyph name="Omega" format="2">
  <advance width="1978"/>
  <unicode hex="03A9"/>
  <outline>
    <contour>
      <point x="989" y="1680" type="curve" smooth="yes"/>
      <point x="554" y="1680"/>
      <point x="203" y="1319"/>
      <point x="203" y="873" type="curve" smooth="yes"/>
      <point x="203" y="501"/>
      <point x="463" y="168"/>
      <point x="843" y="53" type="curve"/>
      <point x="311" y="45" type="line"/>
      <point x="311" y="0" type="line"/>
      <point x="945" y="0" type="line"/>
      <point x="945" y="65" type="line"/>
      <point x="914" y="73" type="line" smooth="yes"/>
      <point x="545" y="168"/>
      <point x="263" y="508"/>
      <point x="263" y="859" type="curve" smooth="yes"/>
      <point x="263" y="1282"/>
      <point x="587" y="1622"/>
      <point x="989" y="1622" type="curve" smooth="yes"/>
      <point x="1391" y="1622"/>
      <point x="1715" y="1282"/>
      <point x="1715" y="859" type="curve" smooth="yes"/>
      <point x="1715" y="508"/>
      <point x="1433" y="168"/>
      <point x="1064" y="73" type="curve" smooth="yes"/>
      <point x="1033" y="65" type="line"/>
      <point x="1033" y="0" type="line"/>
      <point x="1667" y="0" type="line"/>
      <point x="1667" y="45" type="line"/>
      <point x="1135" y="53" type="line"/>
      <point x="1515" y="168"/>
      <point x="1775" y="501"/>
      <point x="1775" y="873" type="curve" smooth="yes"/>
      <point x="1775" y="1319"/>
      <point x="1424" y="1680"/>
    </contour>
  </outline>
</glyph>
<glyph name="mu" format="2">
  <advance width="1461"/>
  <unicode hex="03BC"/>
  <outline>
    <contour>
      <point x="417" y="-320" type="line"/>
      <point x="417" y="132" type="line"/>
      <point x="475" y="30"/>
      <point x="581" y="-32"/>
      <point x="753" y="-32" type="curve" smooth="yes"/>
      <point x="867" y="-32"/>
      <point x="1027" y="22"/>
      <point x="1081" y="154" type="curve"/>
      <point x="1081" y="0" type="line"/>
      <point x="1137" y="0" type="line"/>
      <point x="1137" y="1024" type="line"/>
      <point x="1081" y="1024" type="line"/>
      <point x="1081" y="322" type="line" smooth="yes"/>
      <point x="1081" y="176"/>
      <point x="961" y="18"/>
      <point x="753" y="18" type="curve" smooth="yes"/>
      <point x="521" y="18"/>
      <point x="417" y="158"/>
      <point x="417" y="402" type="curve" smooth="yes"/>
      <point x="417" y="1024" type="line"/>
      <point x="361" y="1024" type="line"/>
      <point x="361" y="446" type="line" smooth="yes"/>
      <point x="361" y="164"/>
      <point x="331" y="36"/>
      <point x="331" y="-320" type="curve"/>
    </contour>
  </outline>
</glyph>
<glyph name="pi" format="2">
  <advance width="1256"/>
  <unicode hex="03C0"/>
  <outline>
    <contour>
      <point x="465" y="0" type="line"/>
      <point x="465" y="968" type="line"/>
      <point x="809" y="968" type="line"/>
      <point x="809" y="147" type="line" smooth="yes"/>
      <point x="809" y="41"/>
      <point x="847" y="0"/>
      <point x="947" y="0" type="curve"/>
      <point x="947" y="56" type="line"/>
      <point x="885" y="56"/>
      <point x="865" y="78"/>
      <point x="865" y="147" type="curve" smooth="yes"/>
      <point x="865" y="968" type="line"/>
      <point x="1039" y="968" type="line"/>
      <point x="1039" y="1024" type="line"/>
      <point x="235" y="1024" type="line"/>
      <point x="235" y="968" type="line"/>
      <point x="409" y="968" type="line"/>
      <point x="409" y="0" type="line"/>
    </contour>
  </outline>
</glyph>
<glyph name="Germandbls" format="2">
  <advance width="1485"/>
  <unicode hex="1E9E"/>
  <outline>
    <contour>
      <point x="872" y="-33" type="curve" smooth="yes"/>
      <point x="1124" y="-33"/>
      <point x="1299" y="142"/>
      <point x="1299" y="385" type="curve" smooth="yes"/>
      <point x="1299" y="766"/>
      <point x="869" y="742"/>
      <point x="869" y="917" type="curve" smooth="yes"/>
      <point x="869" y="1043"/>
      <point x="1093" y="1050"/>
      <point x="1093" y="1322" type="curve" smooth="yes"/>
      <point x="1093" y="1551"/>
      <point x="935" y="1681"/>
      <point x="725" y="1681" type="curve" smooth="yes"/>
      <point x="446" y="1681"/>
      <point x="293" y="1452"/>
      <point x="293" y="1121" type="curve" smooth="yes"/>
      <point x="293" y="0" type="line" name=".hr01"/>
      <point x="349" y="0" type="line"/>
      <point x="349" y="1115" type="line" smooth="yes"/>
      <point x="349" y="1427"/>
      <point x="482" y="1621"/>
      <point x="721" y="1621" type="curve" smooth="yes"/>
      <point x="900" y="1621"/>
      <point x="1033" y="1513"/>
      <point x="1033" y="1320" type="curve" smooth="yes"/>
      <point x="1033" y="1071"/>
      <point x="811" y="1079"/>
      <point x="811" y="919" type="curve" smooth="yes"/>
      <point x="811" y="698"/>
      <point x="1239" y="740"/>
      <point x="1239" y="382" type="curve" smooth="yes"/>
      <point x="1239" y="161"/>
      <point x="1076" y="21" name=".hr02"/>
      <point x="876" y="21" type="curve" smooth="yes"/>
      <point x="751" y="21"/>
      <point x="651" y="75"/>
      <point x="539" y="165" type="curve"/>
      <point x="508" y="116" type="line"/>
      <point x="640" y="14"/>
      <point x="742" y="-33"/>
    </contour>
  </outline>
</glyph>
<glyph name="endash" format="2">
  <advance width="1246"/>
  <unicode hex="2013"/>
  <outline>
    <contour>
      <point x="1011" y="556" type="line"/>
      <point x="1011" y="602" type="line"/>
      <point x="235" y="602" type="line"/>
      <point x="235" y="556" type="line"/>
    </contour>
  </outline>
</glyph>
<glyph name="emdash" format="2">
  <advance width="1972"/>
  <unicode hex="2014"/>
  <outline>
    <contour>
      <point x="1737" y="556" type="line"/>
      <point x="1737" y="602" type="line"/>
      <point x="235" y="602" type="line"/>
      <point x="235" y="556" type="line"/>
    </contour>
  </outline>
</glyph>
<glyph name="quotesinglbase" format="2">
  <advance width="709"/>
  <unicode hex="201A"/>
  <outline>
    <contour>
      <point x="275" y="-186" type="line"/>
      <point x="313" y="-158"/>
      <point x="359" y="-71"/>
      <point x="359" y="-7" type="curve" smooth="yes"/>
      <point x="359" y="42"/>
      <point x="331" y="64"/>
      <point x="303" y="64" type="curve" smooth="yes"/>
      <point x="275" y="64"/>
      <point x="253" y="42"/>
      <point x="253" y="16" type="curve" smooth="yes"/>
      <point x="253" y="-10"/>
      <point x="275" y="-32"/>
      <point x="301" y="-32" type="curve"/>
      <point x="301" y="-94"/>
      <point x="290" y="-139"/>
      <point x="265" y="-176" type="curve"/>
    </contour>
  </outline>
</glyph>
<glyph name="dagger" format="2">
  <advance width="1238"/>
  <unicode hex="2020"/>
  <outline>
    <contour>
      <point x="647" y="0" type="line"/>
      <point x="647" y="1136" type="line"/>
      <point x="1021" y="1136" type="line"/>
      <point x="1021" y="1192" type="line"/>
      <point x="647" y="1192" type="line"/>
      <point x="647" y="1720" type="line"/>
      <point x="591" y="1720" type="line"/>
      <point x="591" y="1192" type="line"/>
      <point x="217" y="1192" type="line"/>
      <point x="217" y="1136" type="line"/>
      <point x="591" y="1136" type="line"/>
      <point x="591" y="0" type="line"/>
    </contour>
  </outline>
</glyph>
<glyph name="daggerdbl" format="2">
  <advance width="1274"/>
  <unicode hex="2021"/>
  <outline>
    <contour>
      <point x="665" y="0" type="line"/>
      <point x="665" y="568" type="line"/>
      <point x="1039" y="568" type="line"/>
      <point x="1039" y="624" type="line"/>
      <point x="665" y="624" type="line"/>
      <point x="665" y="1136" type="line"/>
      <point x="1039" y="1136" type="line"/>
      <point x="1039" y="1192" type="line"/>
      <point x="665" y="1192" type="line"/>
      <point x="665" y="1720" type="line"/>
      <point x="609" y="1720" type="line"/>
      <point x="609" y="1192" type="line"/>
      <point x="235" y="1192" type="line"/>
      <point x="235" y="1136" type="line"/>
      <point x="609" y="1136" type="line"/>
      <point x="609" y="624" type="line"/>
      <point x="235" y="624" type="line"/>
      <point x="235" y="568" type="line"/>
      <point x="609" y="568" type="line"/>
      <point x="609" y="0" type="line"/>
    </contour>
  </outline>
</glyph>
<glyph name="bullet" format="2">
  <advance width="753"/>
  <unicode hex="2022"/>
  <outline>
    <contour>
      <point x="377" y="656" type="curve" smooth="yes"/>
      <point x="409" y="656"/>
      <point x="435" y="682"/>
      <point x="435" y="714" type="curve" smooth="yes"/>
      <point x="435" y="746"/>
      <point x="409" y="772"/>
      <point x="377" y="772" type="curve" smooth="yes"/>
      <point x="345" y="772"/>
      <point x="317" y="746"/>
      <point x="317" y="714" type="curve" smooth="yes"/>
      <point x="317" y="682"/>
      <point x="345" y="656"/>
    </contour>
  </outline>
</glyph>
<glyph name="perthousand" format="2">
  <advance width="3230"/>
  <unicode hex="2030"/>
  <outline>
    <component base="percent"/>
    <contour>
      <point x="2595" y="-32" type="curve" smooth="yes"/>
      <point x="2819" y="-32"/>
      <point x="2991" y="130"/>
      <point x="2991" y="362" type="curve" smooth="yes"/>
      <point x="2991" y="594"/>
      <point x="2819" y="756"/>
      <point x="2595" y="756" type="curve" smooth="yes"/>
      <point x="2373" y="756"/>
      <point x="2199" y="594"/>
      <point x="2199" y="362" type="curve" smooth="yes"/>
      <point x="2199" y="130"/>
      <point x="2373" y="-32"/>
    </contour>
    <contour>
      <point x="2595" y="21" type="curve" smooth="yes"/>
      <point x="2401" y="21"/>
      <point x="2258" y="162"/>
      <point x="2258" y="362" type="curve" smooth="yes"/>
      <point x="2258" y="562"/>
      <point x="2401" y="703"/>
      <point x="2595" y="703" type="curve" smooth="yes"/>
      <point x="2791" y="703"/>
      <point x="2932" y="562"/>
      <point x="2932" y="362" type="curve" smooth="yes"/>
      <point x="2932" y="162"/>
      <point x="2791" y="21"/>
    </contour>
  </outline>
</glyph>
<glyph name="guilsinglleft" format="2">
  <advance width="763"/>
  <unicode hex="2039"/>
  <outline>
    <contour>
      <point x="594" y="92" type="line"/>
      <point x="232" y="556" type="line"/>
      <point x="594" y="1020" type="line"/>
      <point x="548" y="1056" type="line"/>
      <point x="158" y="556" type="line"/>
      <point x="548" y="56" type="line"/>
    </contour>
  </outline>
</glyph>
<glyph name="guilsinglright" format="2">
  <advance width="763"/>
  <unicode hex="203A"/>
  <outline>
    <contour>
      <point x="605" y="556" type="line"/>
      <point x="215" y="1056" type="line"/>
      <point x="169" y="1020" type="line"/>
      <point x="531" y="556" type="line"/>
      <point x="169" y="92" type="line"/>
      <point x="215" y="56" type="line"/>
    </contour>
  </outline>
</glyph>
<glyph name="fraction" format="2">
  <advance width="208"/>
  <unicode hex="2044"/>
  <outline>
    <contour>
      <point x="-454" y="0" type="line"/>
      <point x="706" y="1650" type="line"/>
      <point x="662" y="1650" type="line"/>
      <point x="-498" y="0" type="line"/>
    </contour>
  </outline>
</glyph>
<glyph name="foursuperior" format="2">
  <advance width="988"/>
  <unicode hex="2074"/>
  <outline>
    <contour>
      <point x="641" y="1040" type="line"/>
      <point x="641" y="1155" type="line"/>
      <point x="720" y="1155" type="line"/>
      <point x="720" y="1186" type="line"/>
      <point x="641" y="1186" type="line"/>
      <point x="641" y="1650" type="line"/>
      <point x="610" y="1650" type="line"/>
      <point x="268" y="1180" type="line"/>
      <point x="268" y="1155" type="line"/>
      <point x="607" y="1155" type="line"/>
      <point x="607" y="1040" type="line"/>
    </contour>
    <contour>
      <point x="607" y="1594" type="line"/>
      <point x="607" y="1186" type="line"/>
      <point x="314" y="1186" type="line"/>
    </contour>
  </outline>
</glyph>
<glyph name="euro" format="2">
  <advance width="2036"/>
  <unicode hex="20AC"/>
  <outline>
    <component base="C" xOffset="247" yOffset="-2"/>
    <contour>
      <point x="259" y="1014" type="line"/>
      <point x="259" y="968" type="line"/>
      <point x="1503" y="968" type="line"/>
      <point x="1503" y="1014" type="line"/>
    </contour>
    <contour>
      <point x="259" y="678" type="line"/>
      <point x="259" y="632" type="line"/>
      <point x="1503" y="632" type="line"/>
      <point x="1503" y="678" type="line"/>
    </contour>
  </outline>
</glyph>
<glyph name="arrowleft" format="2">
  <advance width="2150"/>
  <unicode hex="2190"/>
  <outline>
    <contour>
      <point x="281" y="853" type="line"/>
      <point x="281" y="797" type="line"/>
      <point x="1915" y="797" type="line"/>
      <point x="1915" y="853" type="line"/>
    </contour>
    <contour>
      <point x="235" y="825" type="line"/>
      <point x="1060" y="0" type="line"/>
      <point x="1140" y="0" type="line"/>
      <point x="295" y="844" type="line"/>
      <point x="295" y="806" type="line"/>
      <point x="1140" y="1650" type="line"/>
      <point x="1060" y="1650" type="line"/>
    </contour>
  </outline>
</glyph>
<glyph name="arrowup" format="2">
  <advance width="2120"/>
  <unicode hex="2191"/>
  <outline>
    <contour>
      <point x="1088" y="1634" type="line"/>
      <point x="1032" y="1634" type="line"/>
      <point x="1032" y="0" type="line"/>
      <point x="1088" y="0" type="line"/>
    </contour>
    <contour>
      <point x="1060" y="1680" type="line"/>
      <point x="235" y="855" type="line"/>
      <point x="235" y="775" type="line"/>
      <point x="1079" y="1620" type="line"/>
      <point x="1041" y="1620" type="line"/>
      <point x="1885" y="775" type="line"/>
      <point x="1885" y="855" type="line"/>
    </contour>
  </outline>
</glyph>
<glyph name="arrowboth" format="2">
  <advance width="2420"/>
  <unicode hex="2194"/>
  <outline>
    <contour>
      <point x="273" y="853" type="line"/>
      <point x="273" y="797" type="line"/>
      <point x="2147" y="797" type="line"/>
      <point x="2147" y="853" type="line"/>
    </contour>
    <contour>
      <point x="910" y="1650" type="line"/>
      <point x="235" y="825" type="line"/>
      <point x="910" y="0" type="line"/>
      <point x="988" y="0" type="line"/>
      <point x="295" y="844" type="line"/>
      <point x="295" y="806" type="line"/>
      <point x="988" y="1650" type="line"/>
    </contour>
    <contour>
      <point x="1432" y="1650" type="line"/>
      <point x="2125" y="806" type="line"/>
      <point x="2125" y="844" type="line"/>
      <point x="1432" y="0" type="line"/>
      <point x="1510" y="0" type="line"/>
      <point x="2185" y="825" type="line"/>
      <point x="1510" y="1650" type="line"/>
    </contour>
  </outline>
</glyph>
<glyph name="arrowupdn" format="2">
  <advance width="1600"/>
  <unicode hex="2195"/>
  <outline>
    <contour>
      <point x="828" y="1634" type="line"/>
      <point x="772" y="1634" type="line"/>
      <point x="772" y="0" type="line"/>
      <point x="828" y="0" type="line"/>
    </contour>
    <contour>
      <point x="800" y="1680" type="line"/>
      <point x="235" y="1115" type="line"/>
      <point x="235" y="1035" type="line"/>
      <point x="819" y="1620" type="line"/>
      <point x="781" y="1620" type="line"/>
      <point x="1365" y="1035" type="line"/>
      <point x="1365" y="1115" type="line"/>
    </contour>
    <contour>
      <point x="235" y="615" type="line"/>
      <point x="235" y="535" type="line"/>
      <point x="800" y="-30" type="line"/>
      <point x="1365" y="535" type="line"/>
      <point x="1365" y="615" type="line"/>
      <point x="781" y="30" type="line"/>
      <point x="819" y="30" type="line"/>
    </contour>
  </outline>
</glyph>
<glyph name="arrowNW" format="2">
  <advance width="1994"/>
  <unicode hex="2196"/>
  <outline>
    <contour>
      <point x="287" y="1637" type="line"/>
      <point x="248" y="1598" type="line"/>
      <point x="1703" y="142" type="line"/>
      <point x="1743" y="182" type="line"/>
    </contour>
    <contour>
      <point x="235" y="1650" type="line"/>
      <point x="235" y="182" type="line"/>
      <point x="292" y="126" type="line"/>
      <point x="291" y="1621" type="line"/>
      <point x="264" y="1594" type="line"/>
      <point x="1759" y="1593" type="line"/>
      <point x="1703" y="1650" type="line"/>
    </contour>
  </outline>
</glyph>
<glyph name="arrowNE" format="2">
  <advance width="1994"/>
  <unicode hex="2197"/>
  <outline>
    <contour>
      <point x="1746" y="1598" type="line"/>
      <point x="1707" y="1637" type="line"/>
      <point x="251" y="182" type="line"/>
      <point x="291" y="142" type="line"/>
    </contour>
    <contour>
      <point x="1759" y="1650" type="line"/>
      <point x="291" y="1650" type="line"/>
      <point x="235" y="1593" type="line"/>
      <point x="1730" y="1594" type="line"/>
      <point x="1703" y="1621" type="line"/>
      <point x="1702" y="126" type="line"/>
      <point x="1759" y="182" type="line"/>
    </contour>
  </outline>
</glyph>
<glyph name="arrowSE" format="2">
  <advance width="1994"/>
  <unicode hex="2198"/>
  <outline>
    <contour>
      <point x="1707" y="13" type="line"/>
      <point x="1746" y="52" type="line"/>
      <point x="291" y="1508" type="line"/>
      <point x="251" y="1468" type="line"/>
    </contour>
    <contour>
      <point x="1759" y="0" type="line"/>
      <point x="1759" y="1468" type="line"/>
      <point x="1702" y="1524" type="line"/>
      <point x="1703" y="29" type="line"/>
      <point x="1730" y="56" type="line"/>
      <point x="235" y="57" type="line"/>
      <point x="291" y="0" type="line"/>
    </contour>
  </outline>
</glyph>
<glyph name="arrowSW" format="2">
  <advance width="1994"/>
  <unicode hex="2199"/>
  <outline>
    <contour>
      <point x="248" y="52" type="line"/>
      <point x="287" y="13" type="line"/>
      <point x="1743" y="1468" type="line"/>
      <point x="1703" y="1508" type="line"/>
    </contour>
    <contour>
      <point x="235" y="0" type="line"/>
      <point x="1703" y="0" type="line"/>
      <point x="1759" y="57" type="line"/>
      <point x="264" y="56" type="line"/>
      <point x="291" y="29" type="line"/>
      <point x="292" y="1524" type="line"/>
      <point x="235" y="1468" type="line"/>
    </contour>
  </outline>
</glyph>
<glyph name="partialdiff" format="2">
  <advance width="1497"/>
  <unicode hex="2202"/>
  <outline>
    <contour>
      <point x="758" y="-31" type="curve" smooth="yes"/>
      <point x="1157" y="-31"/>
      <point x="1308" y="279"/>
      <point x="1308" y="704" type="curve" smooth="yes"/>
      <point x="1308" y="1172"/>
      <point x="1125" y="1546"/>
      <point x="748" y="1770" type="curve"/>
      <point x="719" y="1722" type="line"/>
      <point x="1098" y="1502"/>
      <point x="1254" y="1165"/>
      <point x="1254" y="714" type="curve"/>
      <point x="1174" y="931"/>
      <point x="957" y="1061"/>
      <point x="726" y="1061" type="curve" smooth="yes"/>
      <point x="402" y="1061"/>
      <point x="189" y="803"/>
      <point x="189" y="509" type="curve" smooth="yes"/>
      <point x="189" y="194"/>
      <point x="433" y="-31"/>
    </contour>
    <contour>
      <point x="746" y="22" type="curve" smooth="yes"/>
      <point x="478" y="22"/>
      <point x="241" y="209"/>
      <point x="241" y="508" type="curve" smooth="yes"/>
      <point x="241" y="773"/>
      <point x="428" y="1008"/>
      <point x="728" y="1008" type="curve" smooth="yes"/>
      <point x="996" y="1008"/>
      <point x="1235" y="820"/>
      <point x="1235" y="522" type="curve" smooth="yes"/>
      <point x="1235" y="257"/>
      <point x="1046" y="22"/>
    </contour>
  </outline>
</glyph>
<glyph name="emptyset" format="2">
  <advance width="1200"/>
  <unicode hex="2205"/>
  <outline>
    <contour>
      <point x="1076" y="1099" type="line"/>
      <point x="1046" y="1129" type="line"/>
      <point x="144" y="227" type="line"/>
      <point x="174" y="197" type="line"/>
    </contour>
    <contour>
      <point x="609" y="213" type="curve" smooth="yes"/>
      <point x="858" y="213"/>
      <point x="1060" y="414"/>
      <point x="1060" y="663" type="curve" smooth="yes"/>
      <point x="1060" y="909"/>
      <point x="862" y="1113"/>
      <point x="610" y="1113" type="curve" smooth="yes"/>
      <point x="360" y="1113"/>
      <point x="160" y="910"/>
      <point x="160" y="662" type="curve" smooth="yes"/>
      <point x="160" y="414"/>
      <point x="360" y="213"/>
    </contour>
    <contour>
      <point x="610" y="255" type="curve" smooth="yes"/>
      <point x="384" y="255"/>
      <point x="202" y="437"/>
      <point x="202" y="663" type="curve" smooth="yes"/>
      <point x="202" y="889"/>
      <point x="384" y="1071"/>
      <point x="610" y="1071" type="curve" smooth="yes"/>
      <point x="836" y="1071"/>
      <point x="1018" y="889"/>
      <point x="1018" y="663" type="curve" smooth="yes"/>
      <point x="1018" y="437"/>
      <point x="836" y="255"/>
    </contour>
  </outline>
</glyph>
<glyph name="product" format="2">
  <advance width="1872"/>
  <unicode hex="220F"/>
  <outline>
    <contour>
      <point x="523" y="0" type="line"/>
      <point x="523" y="1664" type="line"/>
      <point x="1349" y="1664" type="line"/>
      <point x="1349" y="0" type="line"/>
      <point x="1405" y="0" type="line"/>
      <point x="1405" y="1664" type="line"/>
      <point x="1579" y="1664" type="line"/>
      <point x="1579" y="1720" type="line"/>
      <point x="293" y="1720" type="line"/>
      <point x="293" y="1664" type="line"/>
      <point x="467" y="1664" type="line"/>
      <point x="467" y="0" type="line"/>
    </contour>
  </outline>
</glyph>
<glyph name="summation" format="2">
  <advance width="1570"/>
  <unicode hex="2211"/>
  <outline>
    <contour>
      <point x="1277" y="0" type="line"/>
      <point x="1277" y="56" type="line"/>
      <point x="396" y="56" type="line"/>
      <point x="919" y="860" type="line"/>
      <point x="396" y="1664" type="line"/>
      <point x="1277" y="1664" type="line"/>
      <point x="1277" y="1720" type="line"/>
      <point x="293" y="1720" type="line"/>
      <point x="852" y="860" type="line"/>
      <point x="293" y="0" type="line"/>
    </contour>
  </outline>
</glyph>
<glyph name="minus" format="2">
  <advance width="1728"/>
  <unicode hex="2212"/>
  <outline>
    <contour>
      <point x="1376" y="804" type="line"/>
      <point x="1376" y="852" type="line"/>
      <point x="352" y="852" type="line"/>
      <point x="352" y="804" type="line"/>
    </contour>
  </outline>
</glyph>
<glyph name="radical" format="2">
  <advance width="1606"/>
  <unicode hex="221A"/>
  <outline>
    <contour>
      <point x="572" y="-32" type="line"/>
      <point x="976" y="1664" type="line"/>
      <point x="1313" y="1664" type="line"/>
      <point x="1313" y="1720" type="line"/>
      <point x="930" y="1720" type="line"/>
      <point x="539" y="64" type="line"/>
      <point x="351" y="609" type="line"/>
      <point x="293" y="609" type="line"/>
      <point x="516" y="-32" type="line"/>
    </contour>
  </outline>
</glyph>
<glyph name="infinity" format="2">
  <advance width="2164"/>
  <unicode hex="221E"/>
  <outline>
    <contour>
      <point x="566" y="135" type="curve" smooth="yes"/>
      <point x="764" y="135"/>
      <point x="917" y="298"/>
      <point x="1082" y="507" type="curve"/>
      <point x="1247" y="298"/>
      <point x="1400" y="135"/>
      <point x="1598" y="135" type="curve" smooth="yes"/>
      <point x="1802" y="135"/>
      <point x="2001" y="305"/>
      <point x="2001" y="545" type="curve" smooth="yes"/>
      <point x="2001" y="785"/>
      <point x="1801" y="954"/>
      <point x="1598" y="954" type="curve" smooth="yes"/>
      <point x="1400" y="954"/>
      <point x="1247" y="791"/>
      <point x="1082" y="583" type="curve"/>
      <point x="917" y="791"/>
      <point x="764" y="954"/>
      <point x="566" y="954" type="curve" smooth="yes"/>
      <point x="363" y="954"/>
      <point x="163" y="785"/>
      <point x="163" y="545" type="curve" smooth="yes"/>
      <point x="163" y="305"/>
      <point x="362" y="135"/>
    </contour>
    <contour>
      <point x="565" y="185" type="curve" smooth="yes"/>
      <point x="390" y="185"/>
      <point x="213" y="331"/>
      <point x="213" y="545" type="curve" smooth="yes"/>
      <point x="213" y="759"/>
      <point x="391" y="904"/>
      <point x="565" y="904" type="curve" smooth="yes"/>
      <point x="748" y="904"/>
      <point x="881" y="744"/>
      <point x="1052" y="545" type="curve"/>
      <point x="881" y="345"/>
      <point x="747" y="185"/>
    </contour>
    <contour>
      <point x="1599" y="185" type="curve" smooth="yes"/>
      <point x="1417" y="185"/>
      <point x="1283" y="345"/>
      <point x="1112" y="545" type="curve"/>
      <point x="1283" y="744"/>
      <point x="1416" y="904"/>
      <point x="1599" y="904" type="curve" smooth="yes"/>
      <point x="1773" y="904"/>
      <point x="1951" y="759"/>
      <point x="1951" y="545" type="curve" smooth="yes"/>
      <point x="1951" y="331"/>
      <point x="1774" y="185"/>
    </contour>
  </outline>
</glyph>
<glyph name="integral" format="2">
  <advance width="848"/>
  <unicode hex="222B"/>
  <outline>
    <contour>
      <point x="31" y="-551" type="curve" smooth="yes"/>
      <point x="187" y="-551"/>
      <point x="274" y="-452"/>
      <point x="295" y="-255" type="curve" smooth="yes"/>
      <point x="475" y="1464" type="line" smooth="yes"/>
      <point x="491" y="1615"/>
      <point x="565" y="1702"/>
      <point x="683" y="1702" type="curve" smooth="yes"/>
      <point x="732" y="1702"/>
      <point x="775" y="1687"/>
      <point x="801" y="1662" type="curve"/>
      <point x="826" y="1704" type="line"/>
      <point x="790" y="1735"/>
      <point x="742" y="1750"/>
      <point x="681" y="1750" type="curve" smooth="yes"/>
      <point x="525" y="1750"/>
      <point x="438" y="1651"/>
      <point x="417" y="1454" type="curve" smooth="yes"/>
      <point x="237" y="-265" type="line" smooth="yes"/>
      <point x="221" y="-416"/>
      <point x="147" y="-503"/>
      <point x="29" y="-503" type="curve" smooth="yes"/>
      <point x="-20" y="-503"/>
      <point x="-63" y="-488"/>
      <point x="-89" y="-463" type="curve"/>
      <point x="-114" y="-505" type="line"/>
      <point x="-78" y="-536"/>
      <point x="-30" y="-551"/>
    </contour>
  </outline>
</glyph>
<glyph name="notequal" format="2">
  <advance width="1540"/>
  <unicode hex="2260"/>
  <outline>
    <component base="equal" xOffset="-103"/>
    <contour>
      <point x="432" y="308" type="line"/>
      <point x="1034" y="1342" type="line"/>
      <point x="986" y="1342" type="line"/>
      <point x="384" y="308" type="line"/>
    </contour>
  </outline>
</glyph>
<glyph name="lessequal" format="2">
  <advance width="1580"/>
  <unicode hex="2264"/>
  <outline>
    <contour>
      <point x="1329" y="456" type="line"/>
      <point x="287" y="972" type="line"/>
      <point x="1329" y="1488" type="line"/>
      <point x="1329" y="1534" type="line"/>
      <point x="235" y="990" type="line"/>
      <point x="235" y="954" type="line"/>
      <point x="1329" y="410" type="line"/>
    </contour>
    <contour>
      <point x="1329" y="194" type="line"/>
      <point x="1329" y="242" type="line"/>
      <point x="235" y="242" type="line"/>
      <point x="235" y="194" type="line"/>
    </contour>
  </outline>
</glyph>
<glyph name="greaterequal" format="2">
  <advance width="1580"/>
  <unicode hex="2265"/>
  <outline>
    <contour>
      <point x="1345" y="954" type="line"/>
      <point x="1345" y="990" type="line"/>
      <point x="251" y="1534" type="line"/>
      <point x="251" y="1488" type="line"/>
      <point x="1293" y="972" type="line"/>
      <point x="251" y="456" type="line"/>
      <point x="251" y="410" type="line"/>
    </contour>
    <contour>
      <point x="1345" y="194" type="line"/>
      <point x="1345" y="242" type="line"/>
      <point x="251" y="242" type="line"/>
      <point x="251" y="194" type="line"/>
    </contour>
  </outline>
</glyph>
<glyph name="lozenge" format="2">
  <advance width="1200"/>
  <unicode hex="25CA"/>
  <outline>
    <contour>
      <point x="655" y="-80" type="line"/>
      <point x="1075" y="795" type="line"/>
      <point x="655" y="1670" type="line"/>
      <point x="545" y="1670" type="line"/>
      <point x="125" y="795" type="line"/>
      <point x="545" y="-80" type="line"/>
    </contour>
    <contour>
      <point x="203" y="795" type="line"/>
      <point x="600" y="1618" type="line"/>
      <point x="997" y="795" type="line"/>
      <point x="600" y="-28" type="line"/>
    </contour>
  </outline>
</glyph>
<glyph name="f_f" format="2">
  <advance width="1224"/>
  <unicode hex="FB00"/>
  <anchor x="612" y="0" name="caret_1"/>
  <outline>
    <contour>
      <point x="350" y="0" type="line"/>
      <point x="350" y="982" type="line"/>
      <point x="682" y="982" type="line"/>
      <point x="682" y="0" type="line"/>
      <point x="738" y="0" type="line"/>
      <point x="738" y="982" type="line"/>
      <point x="1010" y="982" type="line"/>
      <point x="1010" y="1024" type="line"/>
      <point x="738" y="1024" type="line"/>
      <point x="738" y="1464" type="line" smooth="yes"/>
      <point x="738" y="1636"/>
      <point x="804" y="1702"/>
      <point x="918" y="1702" type="curve" smooth="yes"/>
      <point x="976" y="1702"/>
      <point x="1016" y="1686"/>
      <point x="1044" y="1662" type="curve"/>
      <point x="1064" y="1704" type="line"/>
      <point x="1036" y="1726"/>
      <point x="992" y="1750"/>
      <point x="914" y="1750" type="curve" smooth="yes"/>
      <point x="778" y="1750"/>
      <point x="682" y="1674"/>
      <point x="682" y="1454" type="curve" smooth="yes"/>
      <point x="682" y="1024" type="line"/>
      <point x="350" y="1024" type="line"/>
      <point x="350" y="1464" type="line" smooth="yes"/>
      <point x="350" y="1636"/>
      <point x="416" y="1702"/>
      <point x="530" y="1702" type="curve" smooth="yes"/>
      <point x="570" y="1702"/>
      <point x="602" y="1694"/>
      <point x="628" y="1680" type="curve"/>
      <point x="652" y="1720" type="line"/>
      <point x="624" y="1736"/>
      <point x="584" y="1750"/>
      <point x="526" y="1750" type="curve" smooth="yes"/>
      <point x="390" y="1750"/>
      <point x="294" y="1674"/>
      <point x="294" y="1454" type="curve" smooth="yes"/>
      <point x="294" y="1024" type="line"/>
      <point x="210" y="1024" type="line"/>
      <point x="210" y="982" type="line"/>
      <point x="294" y="982" type="line"/>
      <point x="294" y="0" type="line"/>
    </contour>
  </outline>
</glyph>
<glyph name="fi" format="2">
  <advance width="857"/>
  <unicode hex="FB01"/>
  <anchor x="428" y="0" name="caret_1"/>
  <outline>
    <contour>
      <point x="292" y="0" type="line"/>
      <point x="292" y="982" type="line"/>
      <point x="610" y="982" type="line"/>
      <point x="610" y="0" type="line"/>
      <point x="666" y="0" type="line"/>
      <point x="666" y="1024" type="line"/>
      <point x="292" y="1024" type="line"/>
      <point x="292" y="1464" type="line" smooth="yes"/>
      <point x="292" y="1636"/>
      <point x="358" y="1702"/>
      <point x="472" y="1702" type="curve" smooth="yes"/>
      <point x="530" y="1702"/>
      <point x="598" y="1666"/>
      <point x="618" y="1608" type="curve"/>
      <point x="664" y="1626" type="line"/>
      <point x="628" y="1706"/>
      <point x="546" y="1750"/>
      <point x="468" y="1750" type="curve" smooth="yes"/>
      <point x="332" y="1750"/>
      <point x="236" y="1674"/>
      <point x="236" y="1454" type="curve" smooth="yes"/>
      <point x="236" y="1024" type="line"/>
      <point x="152" y="1024" type="line"/>
      <point x="152" y="982" type="line"/>
      <point x="236" y="982" type="line"/>
      <point x="236" y="0" type="line"/>
    </contour>
  </outline>
</glyph>
<glyph name="fl" format="2">
  <advance width="1048"/>
  <unicode hex="FB02"/>
  <anchor x="524" y="0" name="caret_1"/>
  <outline>
    <contour>
      <point x="337" y="0" type="line"/>
      <point x="337" y="982" type="line"/>
      <point x="609" y="982" type="line"/>
      <point x="609" y="1024" type="line"/>
      <point x="337" y="1024" type="line"/>
      <point x="337" y="1464" type="line" smooth="yes"/>
      <point x="337" y="1636"/>
      <point x="403" y="1702"/>
      <point x="517" y="1702" type="curve" smooth="yes"/>
      <point x="557" y="1702"/>
      <point x="589" y="1694"/>
      <point x="615" y="1680" type="curve"/>
      <point x="639" y="1720" type="line" name=".hr01"/>
      <point x="611" y="1736"/>
      <point x="571" y="1750" name=".hr02"/>
      <point x="513" y="1750" type="curve" smooth="yes"/>
      <point x="377" y="1750"/>
      <point x="283" y="1674"/>
      <point x="283" y="1454" type="curve" smooth="yes"/>
      <point x="283" y="1024" type="line"/>
      <point x="197" y="1024" type="line"/>
      <point x="197" y="982" type="line"/>
      <point x="283" y="982" type="line"/>
      <point x="283" y="0" type="line"/>
    </contour>
    <contour>
      <point x="767" y="0" type="line"/>
      <point x="767" y="1720" type="line" name=".hr03"/>
      <point x="715" y="1720" type="line"/>
      <point x="715" y="0" type="line"/>
    </contour>
  </outline>
</glyph>
<glyph name="f_f_i" format="2">
  <advance width="1338"/>
  <unicode hex="FB03"/>
  <anchor x="446" y="0" name="caret_1"/>
  <anchor x="892" y="0" name="caret_2"/>
  <outline>
    <contour>
      <point x="339" y="0" type="line"/>
      <point x="339" y="982" type="line"/>
      <point x="671" y="982" type="line"/>
      <point x="671" y="0" type="line"/>
      <point x="727" y="0" type="line"/>
      <point x="727" y="982" type="line"/>
      <point x="1043" y="982" type="line"/>
      <point x="1043" y="0" type="line"/>
      <point x="1099" y="0" type="line"/>
      <point x="1099" y="1024" type="line"/>
      <point x="727" y="1024" type="line"/>
      <point x="727" y="1464" type="line" smooth="yes"/>
      <point x="727" y="1636"/>
      <point x="793" y="1702"/>
      <point x="907" y="1702" type="curve" smooth="yes"/>
      <point x="965" y="1702"/>
      <point x="1033" y="1666"/>
      <point x="1053" y="1608" type="curve"/>
      <point x="1099" y="1626" type="line"/>
      <point x="1063" y="1706"/>
      <point x="981" y="1750"/>
      <point x="903" y="1750" type="curve" smooth="yes"/>
      <point x="767" y="1750"/>
      <point x="671" y="1674"/>
      <point x="671" y="1454" type="curve" smooth="yes"/>
      <point x="671" y="1024" type="line"/>
      <point x="339" y="1024" type="line"/>
      <point x="339" y="1464" type="line" smooth="yes"/>
      <point x="339" y="1636"/>
      <point x="405" y="1702"/>
      <point x="519" y="1702" type="curve" smooth="yes"/>
      <point x="559" y="1702"/>
      <point x="591" y="1694"/>
      <point x="617" y="1680" type="curve"/>
      <point x="641" y="1720" type="line"/>
      <point x="613" y="1736"/>
      <point x="573" y="1750"/>
      <point x="515" y="1750" type="curve" smooth="yes"/>
      <point x="379" y="1750"/>
      <point x="283" y="1674"/>
      <point x="283" y="1454" type="curve" smooth="yes"/>
      <point x="283" y="1024" type="line"/>
      <point x="199" y="1024" type="line"/>
      <point x="199" y="982" type="line"/>
      <point x="283" y="982" type="line"/>
      <point x="283" y="0" type="line"/>
    </contour>
  </outline>
</glyph>
<glyph name="f_f_l" format="2">
  <advance width="1440"/>
  <unicode hex="FB04"/>
  <anchor x="480" y="0" name="caret_1"/>
  <anchor x="960" y="0" name="caret_2"/>
  <outline>
    <contour>
      <point x="339" y="0" type="line"/>
      <point x="339" y="982" type="line"/>
      <point x="671" y="982" type="line"/>
      <point x="671" y="0" type="line"/>
      <point x="727" y="0" type="line"/>
      <point x="727" y="982" type="line"/>
      <point x="999" y="982" type="line"/>
      <point x="999" y="1024" type="line"/>
      <point x="727" y="1024" type="line"/>
      <point x="727" y="1464" type="line" smooth="yes"/>
      <point x="727" y="1636"/>
      <point x="793" y="1702"/>
      <point x="907" y="1702" type="curve" smooth="yes"/>
      <point x="947" y="1702"/>
      <point x="979" y="1694"/>
      <point x="1005" y="1680" type="curve"/>
      <point x="1029" y="1720" type="line" name=".hr01"/>
      <point x="1001" y="1736"/>
      <point x="961" y="1750" name=".hr02"/>
      <point x="903" y="1750" type="curve" smooth="yes"/>
      <point x="767" y="1750"/>
      <point x="671" y="1674"/>
      <point x="671" y="1454" type="curve" smooth="yes"/>
      <point x="671" y="1024" type="line"/>
      <point x="339" y="1024" type="line"/>
      <point x="339" y="1464" type="line" smooth="yes"/>
      <point x="339" y="1636"/>
      <point x="405" y="1702"/>
      <point x="519" y="1702" type="curve" smooth="yes"/>
      <point x="559" y="1702"/>
      <point x="591" y="1694"/>
      <point x="617" y="1680" type="curve"/>
      <point x="641" y="1720" type="line" name=".hr03"/>
      <point x="613" y="1736"/>
      <point x="573" y="1750" name=".hr04"/>
      <point x="515" y="1750" type="curve" smooth="yes"/>
      <point x="379" y="1750"/>
      <point x="283" y="1674"/>
      <point x="283" y="1454" type="curve" smooth="yes"/>
      <point x="283" y="1024" type="line"/>
      <point x="199" y="1024" type="line"/>
      <point x="199" y="982" type="line"/>
      <point x="283" y="982" type="line"/>
      <point x="283" y="0" type="line"/>
    </contour>
    <contour>
      <point x="1159" y="0" type="line"/>
      <point x="1159" y="1720" type="line" name=".hr05"/>
      <point x="1103" y="1720" type="line"/>
      <point x="1103" y="0" type="line"/>
    </contour>
  </outline>
</glyph>
<glyph name="A.tnum" format="2">
  <advance width="1500"/>
  <anchor x="750" y="0" name="bottom"/>
  <anchor x="1418" y="0" name="ogonek"/>
  <anchor x="750" y="1650" name="top"/>
  <outline>
    <contour>
      <point x="142" y="0" type="line"/>
      <point x="378" y="610" type="line"/>
      <point x="1122" y="610" type="line"/>
      <point x="1358" y="0" type="line"/>
      <point x="1418" y="0" type="line"/>
      <point x="776" y="1650" type="line"/>
      <point x="724" y="1650" type="line"/>
      <point x="82" y="0" type="line"/>
    </contour>
    <contour>
      <point x="750" y="1582" type="line"/>
      <point x="1103" y="660" type="line"/>
      <point x="397" y="660" type="line"/>
    </contour>
  </outline>
</glyph>
<glyph name="M.ss01" format="2">
  <advance width="2054"/>
  <anchor x="1027" y="134" name="bottom"/>
  <anchor x="1027" y="1650" name="top"/>
  <outline>
    <contour>
      <point x="245" y="0" type="line"/>
      <point x="473" y="1534" type="line"/>
      <point x="997" y="134" type="line"/>
      <point x="1057" y="134" type="line"/>
      <point x="1581" y="1534" type="line"/>
      <point x="1809" y="0" type="line"/>
      <point x="1865" y="0" type="line"/>
      <point x="1623" y="1650" type="line"/>
      <point x="1563" y="1650" type="line"/>
      <point x="1027" y="214" type="line"/>
      <point x="491" y="1650" type="line"/>
      <point x="431" y="1650" type="line"/>
      <point x="189" y="0" type="line"/>
    </contour>
  </outline>
</glyph>
<glyph name="P.tnum" format="2">
  <advance width="1500"/>
  <outline>
    <contour>
      <point x="427" y="0" type="line"/>
      <point x="427" y="736" type="line"/>
      <point x="725" y="736" type="line" smooth="yes"/>
      <point x="1049" y="736"/>
      <point x="1235" y="924"/>
      <point x="1235" y="1193" type="curve" smooth="yes"/>
      <point x="1235" y="1462"/>
      <point x="1049" y="1650"/>
      <point x="725" y="1650" type="curve" smooth="yes"/>
      <point x="371" y="1650" type="line"/>
      <point x="371" y="0" type="line"/>
    </contour>
    <contour>
      <point x="427" y="1600" type="line"/>
      <point x="725" y="1600" type="line" smooth="yes"/>
      <point x="1015" y="1600"/>
      <point x="1183" y="1432"/>
      <point x="1183" y="1193" type="curve" smooth="yes"/>
      <point x="1183" y="954"/>
      <point x="1015" y="786"/>
      <point x="725" y="786" type="curve" smooth="yes"/>
      <point x="427" y="786" type="line"/>
    </contour>
  </outline>
</glyph>
<glyph name="a.ss01" format="2">
  <advance width="1428"/>
  <anchor x="677" y="0" name="bottom"/>
  <anchor x="1193" y="0" name="ogonek"/>
  <anchor x="707" y="1024" name="top"/>
  <outline>
    <contour>
      <point x="219" y="512" type="curve" smooth="yes"/>
      <point x="219" y="799"/>
      <point x="412" y="1004"/>
      <point x="681" y="1004" type="curve" smooth="yes"/>
      <point x="950" y="1004"/>
      <point x="1143" y="800"/>
      <point x="1143" y="512" type="curve" smooth="yes"/>
      <point x="1143" y="225"/>
      <point x="950" y="20"/>
      <point x="681" y="20" type="curve" smooth="yes"/>
      <point x="412" y="20"/>
      <point x="219" y="225"/>
    </contour>
    <contour>
      <point x="165" y="512" type="curve" smooth="yes"/>
      <point x="165" y="197"/>
      <point x="385" y="-32"/>
      <point x="677" y="-32" type="curve" smooth="yes"/>
      <point x="881" y="-32"/>
      <point x="1053" y="79"/>
      <point x="1137" y="262" type="curve"/>
      <point x="1137" y="0" type="line"/>
      <point x="1193" y="0" type="line" name=".hr01"/>
      <point x="1193" y="1024" type="line"/>
      <point x="1137" y="1024" type="line"/>
      <point x="1137" y="762" type="line"/>
      <point x="1053" y="945"/>
      <point x="881" y="1056"/>
      <point x="677" y="1056" type="curve" smooth="yes" name=".hr02"/>
      <point x="385" y="1056"/>
      <point x="165" y="827"/>
    </contour>
  </outline>
</glyph>
<glyph name="eight.pnum" format="2">
  <advance width="1356"/>
  <outline>
    <contour>
      <point x="678" y="-32" type="curve" smooth="yes"/>
      <point x="961" y="-32"/>
      <point x="1162" y="171"/>
      <point x="1162" y="431" type="curve" smooth="yes"/>
      <point x="1162" y="634"/>
      <point x="1038" y="803"/>
      <point x="842" y="872" type="curve"/>
      <point x="1001" y="938"/>
      <point x="1102" y="1088"/>
      <point x="1102" y="1263" type="curve" smooth="yes"/>
      <point x="1102" y="1496"/>
      <point x="924" y="1680"/>
      <point x="678" y="1680" type="curve" smooth="yes"/>
      <point x="432" y="1680"/>
      <point x="254" y="1496"/>
      <point x="254" y="1263" type="curve" smooth="yes"/>
      <point x="254" y="1088"/>
      <point x="355" y="938"/>
      <point x="514" y="872" type="curve"/>
      <point x="318" y="803"/>
      <point x="194" y="634"/>
      <point x="194" y="431" type="curve" smooth="yes"/>
      <point x="194" y="171"/>
      <point x="395" y="-32"/>
    </contour>
    <contour>
      <point x="678" y="20" type="curve" smooth="yes"/>
      <point x="429" y="20"/>
      <point x="252" y="197"/>
      <point x="252" y="431" type="curve" smooth="yes"/>
      <point x="252" y="670"/>
      <point x="437" y="842"/>
      <point x="678" y="842" type="curve" smooth="yes"/>
      <point x="922" y="842"/>
      <point x="1104" y="667"/>
      <point x="1104" y="430" type="curve" smooth="yes"/>
      <point x="1104" y="197"/>
      <point x="927" y="20"/>
    </contour>
    <contour>
      <point x="678" y="899" type="curve" smooth="yes"/>
      <point x="466" y="899"/>
      <point x="309" y="1054"/>
      <point x="309" y="1264" type="curve" smooth="yes"/>
      <point x="309" y="1473"/>
      <point x="467" y="1631"/>
      <point x="678" y="1631" type="curve" smooth="yes"/>
      <point x="889" y="1631"/>
      <point x="1047" y="1473"/>
      <point x="1047" y="1264" type="curve" smooth="yes"/>
      <point x="1047" y="1054"/>
      <point x="890" y="899"/>
    </contour>
  </outline>
</glyph>
<glyph name="f_f_j" format="2">
  <advance width="1233"/>
  <outline>
    <contour>
      <point x="804" y="-550" type="curve" smooth="yes"/>
      <point x="940" y="-550"/>
      <point x="1036" y="-474"/>
      <point x="1036" y="-254" type="curve" smooth="yes"/>
      <point x="1036" y="1024" type="line"/>
      <point x="664" y="1024" type="line"/>
      <point x="664" y="1464" type="line" smooth="yes"/>
      <point x="664" y="1636"/>
      <point x="730" y="1702"/>
      <point x="844" y="1702" type="curve" smooth="yes"/>
      <point x="902" y="1702"/>
      <point x="970" y="1666"/>
      <point x="990" y="1608" type="curve"/>
      <point x="1036" y="1626" type="line"/>
      <point x="1000" y="1706"/>
      <point x="918" y="1750"/>
      <point x="840" y="1750" type="curve" smooth="yes"/>
      <point x="704" y="1750"/>
      <point x="608" y="1674"/>
      <point x="608" y="1454" type="curve" smooth="yes"/>
      <point x="608" y="1024" type="line"/>
      <point x="276" y="1024" type="line"/>
      <point x="276" y="1464" type="line" smooth="yes"/>
      <point x="276" y="1636"/>
      <point x="342" y="1702"/>
      <point x="456" y="1702" type="curve" smooth="yes"/>
      <point x="496" y="1702"/>
      <point x="528" y="1694"/>
      <point x="554" y="1680" type="curve"/>
      <point x="578" y="1720" type="line"/>
      <point x="550" y="1736"/>
      <point x="510" y="1750"/>
      <point x="452" y="1750" type="curve" smooth="yes"/>
      <point x="316" y="1750"/>
      <point x="220" y="1674"/>
      <point x="220" y="1454" type="curve" smooth="yes"/>
      <point x="220" y="1024" type="line"/>
      <point x="136" y="1024" type="line"/>
      <point x="136" y="982" type="line"/>
      <point x="220" y="982" type="line"/>
      <point x="220" y="0" type="line"/>
      <point x="276" y="0" type="line"/>
      <point x="276" y="982" type="line"/>
      <point x="608" y="982" type="line"/>
      <point x="608" y="0" type="line"/>
      <point x="664" y="0" type="line"/>
      <point x="664" y="982" type="line"/>
      <point x="980" y="982" type="line"/>
      <point x="980" y="-264" type="line" smooth="yes"/>
      <point x="980" y="-428"/>
      <point x="914" y="-502"/>
      <point x="800" y="-502" type="curve" smooth="yes"/>
      <point x="740" y="-502"/>
      <point x="698" y="-486"/>
      <point x="670" y="-460" type="curve"/>
      <point x="654" y="-504" type="line"/>
      <point x="682" y="-528"/>
      <point x="726" y="-550"/>
    </contour>
  </outline>
</glyph>
